
<svg width="23" height="22" viewBox="0 0 23 22" fill="none" xmlns="http://www.w3.org/2000/svg">
<path d="M8.24977 21.0713C7.79365 21.0676 7.34609 20.9471 6.94977 20.7213L5.31977 19.7713C5.02317 19.6016 4.76339 19.3744 4.55562 19.1031C4.34786 18.8318 4.19628 18.5218 4.10977 18.1913C4.01827 17.8573 3.99414 17.5085 4.03878 17.1651C4.08342 16.8218 4.19593 16.4907 4.36977 16.1913L4.80977 15.4413C4.59394 15.1215 4.40015 14.7874 4.22977 14.4413H3.32977C2.98833 14.44 2.65049 14.3714 2.33555 14.2395C2.0206 14.1077 1.73472 13.915 1.49421 13.6727C1.25371 13.4303 1.06329 13.143 0.933847 12.827C0.804399 12.5111 0.73845 12.1727 0.739765 11.8313V9.92126C0.742663 9.5876 0.811273 9.25778 0.941677 8.95065C1.07208 8.64352 1.26172 8.36508 1.49977 8.13126C1.73982 7.89114 2.02524 7.70117 2.33941 7.57241C2.65359 7.44365 2.99024 7.37867 3.32977 7.38126H4.20977C4.38141 7.03379 4.57862 6.69954 4.79977 6.38126L4.35977 5.59126C4.19015 5.29385 4.08142 4.96566 4.03993 4.6258C3.99843 4.28595 4.025 3.94123 4.11807 3.61175C4.21115 3.28226 4.36887 2.9746 4.58205 2.70668C4.79523 2.43877 5.05961 2.21597 5.35977 2.05126L6.99977 1.11126C7.29783 0.944337 7.62587 0.837787 7.96514 0.797704C8.3044 0.757621 8.64824 0.784791 8.977 0.877661C9.30576 0.970531 9.61299 1.12728 9.88114 1.33895C10.1493 1.55062 10.3731 1.81306 10.5398 2.11126L10.9698 2.86126C11.3228 2.84126 11.6767 2.84126 12.0298 2.86126L12.4998 2.07126C12.6708 1.7757 12.8983 1.51672 13.1694 1.30911C13.4405 1.1015 13.7499 0.949318 14.0798 0.861264C14.4134 0.766919 14.7627 0.741317 15.1064 0.78601C15.4502 0.830703 15.7814 0.94476 16.0798 1.12126L17.7098 2.06126C18.3062 2.40632 18.7413 2.97403 18.9194 3.63967C19.0975 4.30531 19.0042 5.01444 18.6598 5.61126L18.2298 6.37126C18.4549 6.68887 18.6555 7.02317 18.8298 7.37126H19.7298C20.4185 7.37918 21.0762 7.65902 21.5595 8.14979C22.0428 8.64057 22.3124 9.30248 22.3098 9.99126V11.9213C22.3019 12.6065 22.0248 13.2612 21.5383 13.7439C21.0519 14.2267 20.3951 14.4987 19.7098 14.5013H18.8198C18.6559 14.8256 18.4722 15.1395 18.2698 15.4413L18.7198 16.2313C18.8867 16.5293 18.9932 16.8574 19.0333 17.1966C19.0734 17.5359 19.0462 17.8797 18.9534 18.2085C18.8605 18.5373 18.7037 18.8445 18.4921 19.1126C18.2804 19.3808 18.018 19.6046 17.7198 19.7713L16.0798 20.7113C15.782 20.8795 15.4539 20.9872 15.1143 21.0279C14.7748 21.0687 14.4305 21.0419 14.1014 20.9489C13.7723 20.8559 13.4648 20.6987 13.1968 20.4863C12.9288 20.2738 12.7055 20.0104 12.5398 19.7113L12.0998 18.9613C11.727 18.9912 11.3525 18.9912 10.9798 18.9613L10.5198 19.7413C10.2939 20.1448 9.96443 20.4808 9.56541 20.7146C9.16639 20.9484 8.71223 21.0715 8.24977 21.0713ZM3.34977 8.92126C3.05961 8.92062 2.78032 9.03162 2.56977 9.23126C2.46775 9.33385 2.38698 9.45554 2.33207 9.58939C2.27716 9.72323 2.24919 9.8666 2.24977 10.0113V11.8913C2.26733 12.1673 2.38823 12.4266 2.58837 12.6174C2.78852 12.8083 3.05323 12.9168 3.32977 12.9213H4.70977C4.85786 12.9189 5.00318 12.9616 5.12643 13.0438C5.24967 13.1259 5.345 13.2436 5.39977 13.3813C5.63287 13.9309 5.93532 14.4484 6.29977 14.9213C6.3891 15.0409 6.44223 15.1836 6.45287 15.3325C6.46351 15.4814 6.43119 15.6302 6.35977 15.7613L5.66977 16.9313C5.52946 17.1877 5.49021 17.4874 5.55977 17.7713C5.63554 18.0502 5.81899 18.2876 6.06977 18.4313L7.69977 19.3813C7.82492 19.4558 7.96397 19.504 8.10842 19.5229C8.25286 19.5419 8.39964 19.5311 8.53977 19.4913C8.82 19.413 9.0597 19.2305 9.20977 18.9813L9.89977 17.7813C9.97584 17.6539 10.0871 17.5512 10.2202 17.4856C10.3532 17.4199 10.5024 17.3941 10.6498 17.4113C11.2276 17.4813 11.8119 17.4813 12.3898 17.4113C12.5366 17.3878 12.687 17.4096 12.8211 17.474C12.9551 17.5383 13.0663 17.642 13.1398 17.7713L13.8198 18.9513C13.9644 19.2045 14.2036 19.3899 14.4849 19.4668C14.7662 19.5436 15.0665 19.5057 15.3198 19.3613L16.9498 18.4213C17.0765 18.352 17.1879 18.2579 17.2773 18.1444C17.3666 18.031 17.4321 17.9007 17.4698 17.7613C17.5393 17.4774 17.5001 17.1777 17.3598 16.9213L16.6698 15.7213C16.5893 15.5978 16.5465 15.4536 16.5465 15.3063C16.5465 15.1589 16.5893 15.0147 16.6698 14.8913C17.0216 14.437 17.3139 13.9396 17.5398 13.4113C17.589 13.2692 17.6828 13.1468 17.807 13.0621C17.9313 12.9775 18.0795 12.9351 18.2298 12.9413H19.5898C19.8771 12.9527 20.1578 12.8531 20.3737 12.6632C20.5897 12.4734 20.7243 12.2077 20.7498 11.9213V10.0213C20.7503 9.8766 20.7224 9.73323 20.6675 9.59939C20.6125 9.46554 20.5318 9.34385 20.4298 9.24126C20.3302 9.13729 20.2107 9.05448 20.0784 8.99778C19.9461 8.94107 19.8037 8.91165 19.6598 8.91126H18.2898C18.1414 8.90882 17.9971 8.86301 17.8745 8.77949C17.7518 8.69598 17.6564 8.5784 17.5998 8.44126C17.3664 7.89584 17.0603 7.38452 16.6898 6.92126C16.5996 6.80174 16.5468 6.65825 16.5379 6.50882C16.529 6.35938 16.5644 6.21064 16.6398 6.08126L17.3198 4.90126C17.4642 4.64796 17.5021 4.34767 17.4253 4.0664C17.3484 3.78513 17.163 3.54589 16.9098 3.40126L15.2798 2.42126C15.0439 2.28476 14.7642 2.24532 14.4998 2.31126C14.2186 2.38765 13.9783 2.57059 13.8298 2.82126L13.1398 4.02126C13.0656 4.15044 12.9547 4.25461 12.8211 4.3205C12.6876 4.3864 12.5374 4.41103 12.3898 4.39126C11.8286 4.3213 11.2609 4.3213 10.6998 4.39126C10.5536 4.41031 10.4051 4.38526 10.2732 4.31934C10.1414 4.25342 10.0322 4.14963 9.95977 4.02126L9.23977 2.83126C9.09328 2.58006 8.85406 2.39638 8.57356 2.31971C8.29305 2.24303 7.99366 2.2795 7.73977 2.42126L6.09977 3.34126C5.84686 3.48609 5.66105 3.72457 5.58247 4.00522C5.50389 4.28587 5.53884 4.58616 5.67977 4.84126L6.35977 6.05126C6.44318 6.18395 6.48232 6.33969 6.47154 6.49604C6.46075 6.6524 6.40061 6.80129 6.29977 6.92126C5.93823 7.38166 5.63587 7.8856 5.39977 8.42126C5.34384 8.55808 5.24823 8.67501 5.12525 8.757C5.00228 8.83898 4.85756 8.88227 4.70977 8.88126H3.34977V8.92126ZM11.4998 14.9213C10.7086 14.9213 9.93528 14.6867 9.27748 14.2471C8.61969 13.8076 8.107 13.1829 7.80425 12.452C7.5015 11.7211 7.42228 10.9168 7.57662 10.1409C7.73096 9.36498 8.11193 8.65225 8.67134 8.09284C9.23075 7.53343 9.94348 7.15246 10.7194 6.99812C11.4953 6.84378 12.2996 6.92299 13.0305 7.22575C13.7614 7.5285 14.3861 8.04119 14.8256 8.69898C15.2652 9.35678 15.4998 10.1301 15.4998 10.9213C15.4998 11.9821 15.0783 12.9995 14.3282 13.7497C13.578 14.4998 12.5606 14.9213 11.4998 14.9213ZM11.4998 8.42126C11.0053 8.42126 10.522 8.56789 10.1108 8.84259C9.69972 9.11729 9.37929 9.50774 9.19007 9.96455C9.00085 10.4214 8.95134 10.924 9.0478 11.409C9.14427 11.8939 9.38237 12.3394 9.732 12.689C10.0816 13.0387 10.5271 13.2768 11.012 13.3732C11.497 13.4697 11.9997 13.4202 12.4565 13.231C12.9133 13.0417 13.3037 12.7213 13.5784 12.3102C13.8531 11.8991 13.9998 11.4157 13.9998 10.9213C13.9998 10.2582 13.7364 9.62234 13.2675 9.1535C12.7987 8.68466 12.1628 8.42126 11.4998 8.42126Z" fill="#F5F5F5"/>
</svg>
