<svg width="30" height="30" viewBox="0 0 30 30" fill="none" xmlns="http://www.w3.org/2000/svg">
<path d="M23.3002 13.025C23.5488 13.025 23.7873 12.9262 23.9631 12.7504C24.1389 12.5746 24.2377 12.3361 24.2377 12.0875L24.3002 6.83751C24.3 6.58895 24.2011 6.35066 24.0252 6.17501C23.9413 6.08053 23.8367 6.0066 23.7197 5.95892C23.6027 5.91124 23.4763 5.89109 23.3502 5.90001H18.1002C17.9766 5.89996 17.8542 5.92469 17.7403 5.97273C17.6265 6.02077 17.5234 6.09115 17.4371 6.17971C17.3509 6.26827 17.2833 6.37322 17.2383 6.48834C17.1933 6.60347 17.1719 6.72645 17.1752 6.85001C17.1785 7.09648 17.2787 7.33173 17.4542 7.50485C17.6296 7.67798 17.8662 7.77503 18.1127 7.77501H20.7627L15.0002 13.575L9.2627 7.80001H11.8877C12.1342 7.80003 12.3708 7.70298 12.5462 7.52985C12.7217 7.35673 12.8219 7.12148 12.8252 6.87501C12.8285 6.75145 12.8071 6.62847 12.7621 6.51334C12.7171 6.39822 12.6495 6.29327 12.5633 6.20471C12.477 6.11615 12.3739 6.04577 12.26 5.99773C12.1462 5.94969 12.0238 5.92496 11.9002 5.92501H6.6502C6.52453 5.91964 6.39918 5.94142 6.2827 5.98888C6.16621 6.03634 6.06133 6.10835 5.9752 6.20001C5.80081 6.38171 5.70243 6.62317 5.7002 6.87501L5.7627 12.125C5.7627 12.3736 5.86147 12.6121 6.03728 12.7879C6.2131 12.9637 6.45156 13.0625 6.7002 13.0625C6.94998 13.0592 7.18842 12.9577 7.36388 12.7799C7.53935 12.6021 7.63772 12.3623 7.6377 12.1125L7.6002 8.75001L13.7502 14.9125L7.7127 20.9375V17.925C7.71435 17.8019 7.69173 17.6797 7.64614 17.5653C7.60055 17.4509 7.53287 17.3466 7.44697 17.2584C7.36108 17.1702 7.25864 17.0998 7.14552 17.0511C7.0324 17.0025 6.91081 16.9766 6.7877 16.975V16.975C6.54006 16.9782 6.30348 17.0781 6.12836 17.2532C5.95324 17.4283 5.85343 17.6649 5.8502 17.9125V23.1625C5.85243 23.4143 5.95081 23.6558 6.1252 23.8375C6.30084 24.0134 6.53914 24.1123 6.7877 24.1125V24.1125L12.0377 24.05C12.1613 24.0501 12.2837 24.0253 12.3975 23.9773C12.5114 23.9292 12.6145 23.8589 12.7008 23.7703C12.787 23.6817 12.8546 23.5768 12.8996 23.4617C12.9446 23.3465 12.966 23.2236 12.9627 23.1C12.9562 22.8524 12.8532 22.6171 12.6758 22.4444C12.4983 22.2716 12.2604 22.1749 12.0127 22.175H9.1127L15.0002 16.25L20.9377 22.225H18.0002C17.7523 22.2312 17.5161 22.3316 17.3396 22.5057C17.1632 22.6799 17.0597 22.9147 17.0502 23.1625C17.0485 23.285 17.0712 23.4067 17.117 23.5203C17.1627 23.634 17.2306 23.7375 17.3167 23.8247C17.4027 23.9119 17.5053 23.9812 17.6183 24.0284C17.7314 24.0757 17.8527 24.1 17.9752 24.1L23.2252 24.1625C23.4738 24.1623 23.7121 24.0634 23.8877 23.8875C24.0621 23.7058 24.1605 23.4643 24.1627 23.2125V17.9625C24.1627 17.7139 24.0639 17.4754 23.8881 17.2996C23.7123 17.1238 23.4738 17.025 23.2252 17.025C22.9766 17.025 22.7381 17.1238 22.5623 17.2996C22.3865 17.4754 22.2877 17.7139 22.2877 17.9625V20.9375L16.3377 14.95L22.4002 8.85001V12.1125C22.4092 12.3495 22.5066 12.5745 22.6731 12.7434C22.8397 12.9122 23.0634 13.0127 23.3002 13.025V13.025Z" fill="#F5F5F5"/>
</svg>
