<svg width="30" height="30" viewBox="0 0 30 30" fill="none" xmlns="http://www.w3.org/2000/svg">
<path d="M25.9625 5.23755V8.23755C25.9597 8.76177 25.847 9.27959 25.6317 9.75756C25.4164 10.2355 25.1032 10.6631 24.7125 11.0125L23.275 12.2625C23.0893 12.4283 22.8455 12.5135 22.597 12.4995C22.3485 12.4854 22.1158 12.3732 21.95 12.1875C21.7842 12.0019 21.699 11.758 21.7131 11.5095C21.7271 11.261 21.8393 11.0283 22.025 10.8625L23.45 9.61255C23.6428 9.43909 23.7969 9.22704 23.9024 8.99016C24.0079 8.75328 24.0625 8.49687 24.0625 8.23755V5.23755C24.0625 4.75353 23.8702 4.28933 23.528 3.94708C23.1857 3.60482 22.7215 3.41255 22.2375 3.41255H6.325C5.84098 3.41255 5.37678 3.60482 5.03453 3.94708C4.69228 4.28933 4.5 4.75353 4.5 5.23755V8.35005C4.50927 8.8184 4.69706 9.26554 5.025 9.60005L9.725 14.3625C10.7919 15.4351 11.3898 16.8872 11.3875 18.4V25C11.3935 25.2883 11.4767 25.5697 11.6284 25.8149C11.7801 26.0601 11.9948 26.2602 12.2501 26.3942C12.5054 26.5282 12.792 26.5913 13.08 26.577C13.3679 26.5626 13.6468 26.4713 13.8875 26.3125V26.3125L15.5875 25.0625C15.6885 24.9911 15.8025 24.9403 15.9231 24.913C16.0437 24.8856 16.1685 24.8823 16.2903 24.9032C16.4122 24.9241 16.5288 24.9688 16.6334 25.0347C16.738 25.1007 16.8286 25.1866 16.9 25.2875C16.9714 25.3885 17.0222 25.5025 17.0496 25.6231C17.0769 25.7437 17.0802 25.8685 17.0593 25.9904C17.0384 26.1123 16.9937 26.2288 16.9278 26.3334C16.8619 26.4381 16.776 26.5286 16.675 26.6L14.9625 27.85C14.4406 28.2053 13.8321 28.4123 13.2018 28.4489C12.5716 28.4854 11.9432 28.3502 11.3837 28.0577C10.8243 27.7651 10.3547 27.3262 10.0252 26.7877C9.69564 26.2492 9.51844 25.6314 9.5125 25V18.4375C9.51253 17.4162 9.10803 16.4364 8.3875 15.7125L3.75 10.95C3.04947 10.2638 2.64562 9.33047 2.625 8.35005V5.23755C2.625 4.24299 3.02009 3.28916 3.72335 2.5859C4.42661 1.88264 5.38044 1.48755 6.375 1.48755H22.2625C23.2484 1.50069 24.1894 1.90158 24.8819 2.60342C25.5744 3.30526 25.9626 4.25159 25.9625 5.23755ZM24.5375 18.2375L23.575 19.2125L20.3375 22.5C20.0909 22.7485 19.7788 22.9219 19.4375 23L18.1125 23.275C17.9878 23.2873 17.8622 23.2873 17.7375 23.275C17.2689 23.2671 16.8213 23.0791 16.4875 22.75C16.2735 22.5407 16.1146 22.2815 16.0252 21.9958C15.9358 21.71 15.9185 21.4066 15.975 21.1125L16.225 19.7875C16.2853 19.4416 16.4512 19.1229 16.7 18.875L20.8875 14.5875C21.0689 14.4042 21.285 14.2589 21.5233 14.1601C21.7615 14.0614 22.0171 14.0112 22.275 14.0125V14.0125C22.7944 14.018 23.2915 14.224 23.6625 14.5875L24.475 15.3875C24.6696 15.5686 24.826 15.7868 24.9348 16.0293C25.0436 16.2718 25.1027 16.5336 25.1085 16.7993C25.1143 17.0651 25.0668 17.3293 24.9687 17.5763C24.8706 17.8233 24.724 18.0482 24.5375 18.2375V18.2375ZM22.2 15.95L21.475 16.7C21.5531 16.9316 21.6936 17.137 21.8811 17.2936C22.0686 17.4502 22.2958 17.552 22.5375 17.5875L23.1875 16.925C23.1875 16.925 23.1875 16.825 23.1875 16.775L22.375 15.975C22.342 15.968 22.308 15.968 22.275 15.975L22.2 15.95ZM21.1125 19.05C20.7102 18.8096 20.3681 18.4804 20.1125 18.0875L18.0125 20.2375L17.7875 21.4875L19.0375 21.1625L21.1125 19.05Z" fill="#F5F5F5"/>
</svg>
