<svg width="30" height="30" viewBox="0 0 30 30" fill="none" xmlns="http://www.w3.org/2000/svg">
<path d="M15.2254 19.3625C14.2983 19.3625 13.392 19.0876 12.6212 18.5725C11.8503 18.0575 11.2495 17.3254 10.8947 16.4689C10.5399 15.6123 10.4471 14.6698 10.628 13.7605C10.8088 12.8513 11.2553 12.016 11.9108 11.3605C12.5664 10.7049 13.4016 10.2585 14.3109 10.0776C15.2202 9.89673 16.1627 9.98956 17.0192 10.3443C17.8757 10.6991 18.6078 11.2999 19.1229 12.0708C19.638 12.8417 19.9129 13.7479 19.9129 14.675C19.9129 15.2906 19.7916 15.9001 19.5561 16.4689C19.3205 17.0376 18.9752 17.5543 18.54 17.9896C18.1047 18.4249 17.5879 18.7701 17.0192 19.0057C16.4505 19.2413 15.841 19.3625 15.2254 19.3625V19.3625ZM15.2254 11.7C14.637 11.7 14.0618 11.8745 13.5726 12.2014C13.0833 12.5283 12.702 12.9929 12.4768 13.5365C12.2517 14.0802 12.1928 14.6783 12.3076 15.2554C12.4223 15.8325 12.7057 16.3626 13.1217 16.7787C13.5378 17.1947 14.0679 17.4781 14.645 17.5929C15.2221 17.7077 15.8203 17.6487 16.3639 17.4236C16.9075 17.1984 17.3721 16.8171 17.699 16.3279C18.0259 15.8386 18.2004 15.2634 18.2004 14.675C18.2004 13.886 17.887 13.1293 17.329 12.5714C16.7711 12.0135 16.0144 11.7 15.2254 11.7V11.7ZM15.2254 28.4875C11.9629 28.4875 9.40039 26.725 9.40039 24.475C9.40039 22.225 11.9629 20.4625 15.2254 20.4625C18.4879 20.4625 21.0504 22.225 21.0504 24.475C21.0504 26.725 18.4879 28.4875 15.2254 28.4875ZM15.2254 22.2375C12.8379 22.2375 11.1754 23.4125 11.1754 24.475C11.1754 25.5375 12.8379 26.7125 15.2254 26.7125C17.6129 26.7125 19.2754 25.525 19.2754 24.475C19.2754 23.425 17.6129 22.2375 15.2254 22.2375ZM21.4754 9.98753C20.6389 9.98013 19.8234 9.72532 19.1315 9.25523C18.4396 8.78513 17.9023 8.12076 17.5873 7.34584C17.2723 6.57091 17.1937 5.7201 17.3614 4.90059C17.5292 4.08108 17.9357 3.32954 18.5298 2.74066C19.1238 2.15178 19.8789 1.75191 20.6999 1.59142C21.5208 1.43093 22.3709 1.51701 23.1431 1.83881C23.9152 2.16061 24.5748 2.70373 25.0388 3.39975C25.5027 4.09576 25.7504 4.91354 25.7504 5.75003C25.752 6.30756 25.6436 6.85993 25.4314 7.37549C25.2192 7.89105 24.9073 8.35967 24.5137 8.75448C24.12 9.14929 23.6523 9.46254 23.1374 9.67628C22.6225 9.89001 22.0704 10 21.5129 10L21.4754 9.98753ZM21.4754 3.28753C20.9809 3.28753 20.4976 3.43415 20.0865 3.70886C19.6753 3.98356 19.3549 4.37401 19.1657 4.83082C18.9765 5.28764 18.927 5.7903 19.0234 6.27526C19.1199 6.76021 19.358 7.20567 19.7076 7.5553C20.0573 7.90493 20.5027 8.14303 20.9877 8.23949C21.4726 8.33596 21.9753 8.28645 22.4321 8.09723C22.8889 7.90801 23.2794 7.58758 23.5541 7.17646C23.8288 6.76533 23.9754 6.28198 23.9754 5.78753C23.9755 5.13094 23.7172 4.50067 23.2565 4.03289C22.7957 3.56511 22.1694 3.29738 21.5129 3.28753H21.4754ZM8.90039 10C8.06283 10 7.24405 9.75181 6.54747 9.28674C5.85089 8.82167 5.30775 8.1606 4.98666 7.38703C4.66557 6.61345 4.58093 5.76207 4.74342 4.94042C4.90592 4.11877 5.30826 3.3637 5.89963 2.77058C6.49101 2.17746 7.24489 1.7729 8.06606 1.60798C8.88723 1.44307 9.73885 1.52521 10.5134 1.84402C11.2879 2.16283 11.9506 2.70401 12.4177 3.39922C12.8848 4.09442 13.1354 4.91247 13.1379 5.75003C13.1395 6.30756 13.0311 6.85993 12.8189 7.37549C12.6067 7.89105 12.2948 8.35967 11.9012 8.75448C11.5075 9.14929 11.0398 9.46254 10.5249 9.67628C10.01 9.89001 9.45792 10 8.90039 10ZM8.90039 3.30003C8.40594 3.30003 7.92259 3.44665 7.51147 3.72136C7.10034 3.99606 6.77991 4.38651 6.59069 4.84332C6.40147 5.30014 6.35196 5.8028 6.44843 6.28776C6.54489 6.77271 6.78299 7.21817 7.13262 7.5678C7.48225 7.91743 7.92771 8.15553 8.41266 8.25199C8.89762 8.34846 9.40028 8.29895 9.8571 8.10973C10.3139 7.92051 10.7044 7.60008 10.9791 7.18896C11.2538 6.77783 11.4004 6.29448 11.4004 5.80003C11.402 5.47068 11.3386 5.14424 11.2137 4.83948C11.0888 4.53473 10.9049 4.25765 10.6726 4.02418C10.4403 3.79071 10.1641 3.60544 9.86 3.47902C9.55586 3.3526 9.22975 3.28753 8.90039 3.28753V3.30003ZM27.6504 14.925C27.6504 12.6125 24.8629 10.8 21.3129 10.8C21.1866 10.7851 21.0587 10.797 20.9374 10.8351C20.8161 10.8732 20.7043 10.9366 20.6092 11.021C20.5142 11.1054 20.4381 11.209 20.386 11.325C20.3339 11.441 20.307 11.5667 20.307 11.6938C20.307 11.8209 20.3339 11.9466 20.386 12.0626C20.4381 12.1785 20.5142 12.2821 20.6092 12.3666C20.7043 12.451 20.8161 12.5144 20.9374 12.5524C21.0587 12.5905 21.1866 12.6025 21.3129 12.5875C23.9879 12.5875 25.8629 13.8375 25.8629 14.925C25.8629 16.0125 23.9879 17.275 21.3129 17.275C21.0775 17.275 20.8518 17.3685 20.6853 17.535C20.5189 17.7014 20.4254 17.9272 20.4254 18.1625C20.4254 18.3979 20.5189 18.6236 20.6853 18.7901C20.8518 18.9565 21.0775 19.05 21.3129 19.05C24.8754 19.0375 27.6629 17.2375 27.6629 14.9125L27.6504 14.925ZM9.57539 17.9625C9.5754 17.8449 9.55204 17.7285 9.50666 17.62C9.46128 17.5115 9.39479 17.4131 9.31104 17.3305C9.2273 17.2479 9.12799 17.1828 9.01886 17.139C8.90974 17.0951 8.79299 17.0734 8.67539 17.075C6.00039 17.075 4.12539 15.825 4.12539 14.725C4.12539 13.625 6.00039 12.3875 8.67539 12.3875C8.80163 12.4025 8.92961 12.3905 9.0509 12.3524C9.17219 12.3144 9.28403 12.251 9.37906 12.1666C9.4741 12.0821 9.55016 11.9785 9.60225 11.8626C9.65434 11.7466 9.68127 11.6209 9.68127 11.4938C9.68127 11.3667 9.65434 11.241 9.60225 11.125C9.55016 11.009 9.4741 10.9054 9.37906 10.821C9.28403 10.7366 9.17219 10.6732 9.0509 10.6351C8.92961 10.597 8.80163 10.5851 8.67539 10.6C5.12539 10.6 2.33789 12.4125 2.33789 14.725C2.33789 17.0375 5.12539 18.85 8.67539 18.85C8.79299 18.8517 8.90974 18.83 9.01886 18.7861C9.12799 18.7422 9.2273 18.6771 9.31104 18.5945C9.39479 18.512 9.46128 18.4136 9.50666 18.3051C9.55204 18.1966 9.5754 18.0801 9.57539 17.9625V17.9625Z" fill="#F5F5F5"/>
</svg>
