<svg width="14" height="14" viewBox="0 0 14 14" fill="none" xmlns="http://www.w3.org/2000/svg">
<path opacity="0.7" d="M7.00065 1.91683C7.96732 1.91683 8.75065 2.70016 8.75065 3.66683C8.75065 4.6335 7.96732 5.41683 7.00065 5.41683C6.03398 5.41683 5.25065 4.6335 5.25065 3.66683C5.25065 2.70016 6.03398 1.91683 7.00065 1.91683ZM7.00065 9.41683C9.47565 9.41683 12.084 10.6335 12.084 11.1668V12.0835H1.91732V11.1668C1.91732 10.6335 4.52565 9.41683 7.00065 9.41683ZM7.00065 0.333496C5.15898 0.333496 3.66732 1.82516 3.66732 3.66683C3.66732 5.5085 5.15898 7.00016 7.00065 7.00016C8.84232 7.00016 10.334 5.5085 10.334 3.66683C10.334 1.82516 8.84232 0.333496 7.00065 0.333496ZM7.00065 7.8335C4.77565 7.8335 0.333984 8.95016 0.333984 11.1668V13.6668H13.6673V11.1668C13.6673 8.95016 9.22565 7.8335 7.00065 7.8335Z" fill="#4C4E64" fill-opacity="0.87"/>
</svg>
