<svg width="24" height="25" viewBox="0 0 24 25" fill="none" xmlns="http://www.w3.org/2000/svg">
<path d="M22.16 9.81121C22.1519 9.15426 21.9792 8.50982 21.6578 7.93682C21.3364 7.36382 20.8764 6.88055 20.32 6.53121L14 2.50121C13.3455 2.09187 12.5865 1.88068 11.8146 1.8931C11.0428 1.90552 10.291 2.14102 9.64997 2.57121L3.57997 6.69121C3.04004 7.05247 2.59835 7.54226 2.29463 8.11654C1.9909 8.69082 1.83467 9.33158 1.83997 9.98121C1.84499 10.6322 2.00883 11.2722 2.31728 11.8455C2.62574 12.4189 3.06948 12.9083 3.60997 13.2712L4.83997 14.0912V18.5812C4.83645 19.4203 5.08797 20.2407 5.56122 20.9336C6.03447 21.6265 6.7071 22.1592 7.48997 22.4612L10.59 23.6712C11.579 24.0643 12.6809 24.0643 13.67 23.6712L16.54 22.5112C17.313 22.2023 17.9752 21.6681 18.4407 20.9779C18.9061 20.2878 19.1532 19.4736 19.15 18.6412V14.0212L19.82 13.5612V15.7912C19.82 15.9901 19.899 16.1809 20.0396 16.3215C20.1803 16.4622 20.3711 16.5412 20.57 16.5412C20.7689 16.5412 20.9597 16.4622 21.1003 16.3215C21.241 16.1809 21.32 15.9901 21.32 15.7912V12.3012C21.8724 11.5895 22.1684 10.7121 22.16 9.81121ZM17.65 18.6312C17.6552 19.1623 17.5006 19.6828 17.2064 20.125C16.9122 20.5672 16.4919 20.9108 16 21.1112L13.13 22.2712C12.4873 22.5242 11.7726 22.5242 11.13 22.2712L7.99997 21.0612C7.49711 20.8711 7.06458 20.5315 6.76063 20.0881C6.45668 19.6447 6.29591 19.1188 6.29997 18.5812V15.0812L9.77997 17.4012C10.4323 17.8479 11.2044 18.087 11.995 18.087C12.7856 18.087 13.5577 17.8479 14.21 17.4012L17.62 15.0712L17.65 18.6312ZM13.4 16.1312C12.9947 16.4077 12.5155 16.5555 12.025 16.5555C11.5344 16.5555 11.0552 16.4077 10.65 16.1312L4.43997 12.0212C4.10058 11.7985 3.82159 11.4952 3.62788 11.1384C3.43416 10.7817 3.33175 10.3825 3.32977 9.97657C3.32779 9.57062 3.4263 9.17049 3.61653 8.81186C3.80675 8.45323 4.08277 8.14725 4.41997 7.92121L10.48 3.80121C10.8816 3.5346 11.3529 3.3924 11.835 3.3924C12.317 3.3924 12.7884 3.5346 13.19 3.80121L19.52 7.80121C19.8611 8.01369 20.144 8.3078 20.343 8.65697C20.5421 9.00614 20.651 9.39939 20.66 9.80121C20.675 10.2162 20.5848 10.6282 20.3977 10.9989C20.2106 11.3696 19.9328 11.6869 19.59 11.9212L13.4 16.1312Z" fill="#F5F5F5"/>
</svg>
