<svg width="20" height="20" viewBox="0 0 20 20" fill="none" xmlns="http://www.w3.org/2000/svg">
<path d="M9.99996 10.4657C9.21452 10.4657 8.44678 10.2324 7.79411 9.79547C7.14143 9.35852 6.63322 8.73758 6.33394 8.0114C6.03465 7.28522 5.95776 6.48651 6.11303 5.71657C6.26829 4.94664 6.64872 4.24015 7.20605 3.68672C7.76339 3.13329 8.47253 2.75784 9.24354 2.60799C10.0145 2.45814 10.8127 2.54064 11.5367 2.84503C12.2608 3.14942 12.8782 3.66198 13.3105 4.31771C13.7429 4.97344 13.9707 5.7428 13.9652 6.52821C13.9579 7.57505 13.5369 8.57651 12.7941 9.31415C12.0512 10.0518 11.0468 10.4657 9.99996 10.4657V10.4657ZM9.99996 3.57682C9.42291 3.57685 8.85878 3.74764 8.37861 4.06768C7.89845 4.38772 7.52373 4.84269 7.30165 5.3753C7.07958 5.9079 7.02008 6.49431 7.13066 7.06066C7.24123 7.62702 7.51693 8.14799 7.92303 8.55794C8.32913 8.9679 8.84747 9.24852 9.41275 9.36444C9.97803 9.48037 10.565 9.42642 11.0997 9.20939C11.6343 8.99236 12.0928 8.62196 12.4174 8.14485C12.742 7.66773 12.9181 7.10523 12.9236 6.52821C12.9263 6.1422 12.8528 5.75945 12.7072 5.40194C12.5615 5.04444 12.3467 4.71922 12.0751 4.44498C11.8034 4.17073 11.4802 3.95286 11.1241 3.80387C10.768 3.65489 10.386 3.57773 9.99996 3.57682V3.57682ZM15.3472 17.4657H4.65274C4.44979 17.4677 4.24886 17.4253 4.06409 17.3413C3.87932 17.2573 3.7152 17.1338 3.58329 16.9796C3.46855 16.8464 3.38425 16.6898 3.33628 16.5207C3.2883 16.3516 3.2778 16.174 3.30551 16.0004C3.79162 13.1185 6.67357 10.9449 9.99996 10.9449C13.3263 10.9449 16.2083 13.1185 16.6944 16.0004C16.7221 16.174 16.7116 16.3516 16.6636 16.5207C16.6157 16.6898 16.5314 16.8464 16.4166 16.9796C16.2847 17.1338 16.1206 17.2573 15.9358 17.3413C15.7511 17.4253 15.5501 17.4677 15.3472 17.4657V17.4657ZM9.99996 11.9865C7.17357 11.9865 4.73607 13.7852 4.33329 16.1532C4.33038 16.1769 4.3326 16.2009 4.33978 16.2237C4.34697 16.2465 4.35897 16.2674 4.37496 16.2852C4.4097 16.3241 4.45262 16.3548 4.50064 16.3753C4.54866 16.3957 4.6006 16.4052 4.65274 16.4032H15.3472C15.3993 16.4052 15.4513 16.3957 15.4993 16.3753C15.5473 16.3548 15.5902 16.3241 15.625 16.2852C15.6409 16.2674 15.6529 16.2465 15.6601 16.2237C15.6673 16.2009 15.6695 16.1769 15.6666 16.1532C15.2638 13.7852 12.8263 11.9865 9.99996 11.9865Z" fill="#4C4E64" fill-opacity="0.87"/>
</svg>
