<svg width="20" height="20" viewBox="0 0 20 20" fill="none" xmlns="http://www.w3.org/2000/svg">
<path d="M9.99999 10.4657C9.21455 10.4657 8.44681 10.2324 7.79414 9.79547C7.14146 9.35852 6.63326 8.73758 6.33397 8.0114C6.03468 7.28522 5.95779 6.48651 6.11306 5.71657C6.26832 4.94664 6.64875 4.24015 7.20608 3.68672C7.76342 3.13329 8.47256 2.75784 9.24357 2.60799C10.0146 2.45814 10.8127 2.54064 11.5368 2.84503C12.2608 3.14942 12.8782 3.66198 13.3105 4.31771C13.7429 4.97344 13.9708 5.7428 13.9653 6.52821C13.9579 7.57505 13.5369 8.57651 12.7941 9.31415C12.0512 10.0518 11.0468 10.4657 9.99999 10.4657V10.4657ZM9.99999 3.57682C9.42294 3.57685 8.85881 3.74764 8.37864 4.06768C7.89848 4.38772 7.52376 4.84269 7.30168 5.3753C7.07961 5.9079 7.02011 6.49431 7.13069 7.06066C7.24126 7.62702 7.51696 8.14799 7.92306 8.55794C8.32916 8.9679 8.8475 9.24852 9.41278 9.36444C9.97807 9.48037 10.565 9.42642 11.0997 9.20939C11.6344 8.99236 12.0929 8.62196 12.4174 8.14485C12.742 7.66773 12.9181 7.10523 12.9236 6.52821C12.9263 6.1422 12.8528 5.75945 12.7072 5.40194C12.5616 5.04444 12.3468 4.71922 12.0751 4.44498C11.8034 4.17073 11.4803 3.95286 11.1242 3.80387C10.768 3.65489 10.386 3.57773 9.99999 3.57682V3.57682ZM15.3472 17.4657H4.65277C4.44982 17.4677 4.24889 17.4253 4.06412 17.3413C3.87935 17.2573 3.71524 17.1338 3.58332 16.9796C3.46858 16.8464 3.38428 16.6898 3.33631 16.5207C3.28833 16.3516 3.27783 16.174 3.30554 16.0004C3.79165 13.1185 6.6736 10.9449 9.99999 10.9449C13.3264 10.9449 16.2083 13.1185 16.6944 16.0004C16.7221 16.174 16.7116 16.3516 16.6637 16.5207C16.6157 16.6898 16.5314 16.8464 16.4167 16.9796C16.2847 17.1338 16.1206 17.2573 15.9359 17.3413C15.7511 17.4253 15.5502 17.4677 15.3472 17.4657V17.4657ZM9.99999 11.9865C7.1736 11.9865 4.7361 13.7852 4.33332 16.1532C4.33041 16.1769 4.33263 16.2009 4.33982 16.2237C4.347 16.2465 4.359 16.2674 4.37499 16.2852C4.40973 16.3241 4.45265 16.3548 4.50067 16.3753C4.54869 16.3957 4.60063 16.4052 4.65277 16.4032H15.3472C15.3993 16.4052 15.4513 16.3957 15.4993 16.3753C15.5473 16.3548 15.5902 16.3241 15.625 16.2852C15.641 16.2674 15.653 16.2465 15.6602 16.2237C15.6673 16.2009 15.6696 16.1769 15.6667 16.1532C15.2639 13.7852 12.8264 11.9865 9.99999 11.9865Z" fill="#F5F5F5"/>
</svg>
