<svg width="24" height="25" viewBox="0 0 24 25" fill="none" xmlns="http://www.w3.org/2000/svg">
<g clip-path="url(#clip0_1913_50842)">
<path d="M20.8314 24.4219H17.6489C16.9467 24.4208 16.2736 24.1414 15.777 23.6449C15.2805 23.1484 15.0011 22.4752 15 21.773V18.5905C14.998 18.2411 15.0649 17.8948 15.197 17.5714C15.3292 17.2479 15.5239 16.9538 15.77 16.7058C16.0161 16.4579 16.3088 16.261 16.6313 16.1264C16.9537 15.9919 17.2995 15.9224 17.6489 15.9219H20.8512C21.5534 15.9281 22.2245 16.2126 22.7173 16.7128C23.2101 17.213 23.4845 17.8883 23.4803 18.5905V21.7928C23.474 22.4916 23.1923 23.1596 22.6964 23.6519C22.2004 24.1442 21.5302 24.4209 20.8314 24.4219V24.4219ZM17.6489 16.5149C17.3756 16.5123 17.1045 16.5641 16.8515 16.6675C16.5985 16.7709 16.3686 16.9237 16.1753 17.1169C15.9821 17.3102 15.8293 17.5401 15.7259 17.7931C15.6225 18.0461 15.5707 18.3172 15.5733 18.5905V21.7928C15.5759 22.0628 15.6316 22.3296 15.7373 22.578C15.843 22.8265 15.9966 23.0517 16.1894 23.2407C16.3821 23.4298 16.6102 23.579 16.8606 23.68C17.1111 23.7809 17.3789 23.8315 17.6489 23.8289H20.8512C21.3961 23.8278 21.9184 23.6109 22.3037 23.2256C22.689 22.8402 22.906 22.318 22.907 21.773V18.5905C22.906 18.0456 22.689 17.5233 22.3037 17.138C21.9184 16.7526 21.3961 16.5357 20.8512 16.5347L17.6489 16.5149ZM21.8673 18.5589C21.8673 18.4802 21.836 18.4048 21.7804 18.3492C21.7248 18.2936 21.6494 18.2623 21.5707 18.2623H16.8898C16.8112 18.2623 16.7358 18.2936 16.6801 18.3492C16.6245 18.4048 16.5933 18.4802 16.5933 18.5589C16.5933 18.6375 16.6245 18.7129 16.6801 18.7685C16.7358 18.8241 16.8112 18.8554 16.8898 18.8554H21.5707C21.6491 18.8543 21.7239 18.8228 21.7793 18.7674C21.8347 18.712 21.8662 18.6372 21.8673 18.5589V18.5589ZM21.8673 20.1402C21.8673 20.0616 21.836 19.9862 21.7804 19.9306C21.7248 19.875 21.6494 19.8437 21.5707 19.8437H16.8898C16.8112 19.8437 16.7358 19.875 16.6801 19.9306C16.6245 19.9862 16.5933 20.0616 16.5933 20.1402C16.5933 20.2189 16.6245 20.2943 16.6801 20.3499C16.7358 20.4055 16.8112 20.4368 16.8898 20.4368H21.5707C21.6491 20.4357 21.7239 20.4042 21.7793 20.3488C21.8347 20.2934 21.8662 20.2186 21.8673 20.1402V20.1402ZM21.8673 21.7414C21.8673 21.6628 21.836 21.5874 21.7804 21.5317C21.7248 21.4761 21.6494 21.4449 21.5707 21.4449H16.8898C16.8112 21.4449 16.7358 21.4761 16.6801 21.5317C16.6245 21.5874 16.5933 21.6628 16.5933 21.7414C16.5933 21.82 16.6245 21.8955 16.6801 21.9511C16.7358 22.0067 16.8112 22.0379 16.8898 22.0379H21.5707C21.6471 22.037 21.7202 22.0071 21.7753 21.9542C21.8304 21.9014 21.8632 21.8295 21.8673 21.7533V21.7414Z" stroke="#F5F5F5" stroke-width="0.5"/>
<path d="M11.8006 14.211C10.6712 14.211 9.56727 13.8761 8.62827 13.2487C7.68926 12.6213 6.9574 11.7295 6.52522 10.6861C6.09304 9.64277 5.97997 8.49468 6.20029 7.38705C6.42061 6.27942 6.96443 5.262 7.76299 4.46344C8.56155 3.66488 9.57897 3.12106 10.6866 2.90073C11.7942 2.68041 12.9423 2.79349 13.9857 3.22567C15.0291 3.65784 15.9208 4.38971 16.5483 5.32871C17.1757 6.26772 17.5106 7.37169 17.5106 8.50102C17.5106 9.25087 17.3629 9.99337 17.0759 10.6861C16.789 11.3789 16.3684 12.0084 15.8382 12.5386C15.3079 13.0688 14.6785 13.4894 13.9857 13.7764C13.2929 14.0633 12.5504 14.211 11.8006 14.211ZM11.8006 4.29102C10.9675 4.28904 10.1525 4.53427 9.4589 4.99566C8.76526 5.45706 8.2241 6.11388 7.90392 6.88298C7.58374 7.65208 7.49894 8.49888 7.66025 9.3162C7.82156 10.1335 8.22174 10.8846 8.81011 11.4744C9.39849 12.0642 10.1486 12.4661 10.9656 12.6294C11.7825 12.7926 12.6295 12.7098 13.3994 12.3915C14.1692 12.0731 14.8273 11.5336 15.2904 10.841C15.7534 10.1485 16.0006 9.3341 16.0006 8.50102C15.9979 7.38699 15.5549 6.3192 14.7681 5.53053C13.9813 4.74186 12.9146 4.29629 11.8006 4.29102ZM3.64057 22.431C4.22057 18.991 7.73057 16.431 11.8006 16.431C12.524 16.4301 13.2452 16.5106 13.9506 16.671C14.049 16.7001 14.1523 16.7087 14.2541 16.6962C14.3559 16.6838 14.4542 16.6506 14.5426 16.5986C14.6311 16.5467 14.708 16.4772 14.7686 16.3944C14.8291 16.3116 14.872 16.2172 14.8947 16.1171C14.9173 16.017 14.9191 15.9134 14.9001 15.8126C14.881 15.7118 14.8415 15.6159 14.784 15.531C14.7264 15.4461 14.652 15.3739 14.5654 15.3188C14.4789 15.2638 14.3819 15.2271 14.2806 15.211C13.4679 15.0186 12.6357 14.9213 11.8006 14.921C7.00057 14.921 2.87057 18.031 2.16057 22.181C2.13152 22.3769 2.18006 22.5764 2.29585 22.737C2.41165 22.8976 2.58556 23.0067 2.78057 23.041H2.91057C3.08402 23.0394 3.25156 22.9778 3.38466 22.8666C3.51776 22.7553 3.6082 22.6014 3.64057 22.431Z" fill="#F5F5F5"/>
</g>
<defs>
<clipPath id="clip0_1913_50842">
<rect width="24" height="24" fill="white" transform="translate(0 0.921875)"/>
</clipPath>
</defs>
</svg>
