<svg width="24" height="25" viewBox="0 0 24 25" fill="none" xmlns="http://www.w3.org/2000/svg">
<path d="M18.1897 4.53221C17.212 3.65251 16.0575 2.99215 14.8036 2.59545C13.5497 2.19875 12.2254 2.0749 10.9197 2.23221C9.22939 2.43121 7.62612 3.09023 6.28451 4.13748C4.9429 5.18474 3.9144 6.58008 3.31104 8.1715C2.70768 9.76292 2.55261 11.4894 2.8627 13.1629C3.17279 14.8363 3.93617 16.3926 5.06967 17.6622L9.41967 22.5122C9.74336 22.8768 10.1407 23.1687 10.5854 23.3686C11.0301 23.5684 11.5121 23.6718 11.9997 23.6718C12.4872 23.6718 12.9693 23.5684 13.414 23.3686C13.8587 23.1687 14.256 22.8768 14.5797 22.5122L17.9271 16.7282L21.2745 10.9442C21.1357 8.48274 20.0264 6.1768 18.1897 4.53221ZM11.9997 22.1722C11.7223 22.1702 11.4483 22.1104 11.1953 21.9968C10.9422 21.8832 10.7155 21.7182 10.5297 21.5122L6.18967 16.6622C5.23592 15.5991 4.5928 14.2942 4.33061 12.8902C4.06843 11.4863 4.19727 10.0372 4.70306 8.70153C5.20885 7.36584 6.07211 6.19491 7.19847 5.31674C8.32484 4.43857 9.67096 3.88696 11.0897 3.72221C11.3997 3.72221 11.7097 3.72221 12.0197 3.72221C13.9312 3.72583 15.7734 4.43848 17.1897 5.72221C18.7283 7.10004 19.6577 9.03189 19.7739 11.094C20.4996 11.4222 21.2745 10.9442 21.2745 10.9442L14.5797 22.5122C14.5797 22.5122 14.2519 22.1241 13.9996 21.9222C13.7474 21.7203 13.4697 21.5722 13.4697 21.5722C13.2786 21.7673 13.0496 21.9211 12.7968 22.0243C12.5439 22.1275 12.2727 22.1779 11.9997 22.1722ZM11.9997 7.51221C11.2064 7.51227 10.4311 7.74819 9.77228 8.18996C9.11344 8.63174 8.60084 9.25943 8.29961 9.99325C7.99838 10.7271 7.92215 11.5339 8.08058 12.3111C8.23902 13.0884 8.62498 13.801 9.1894 14.3584C9.75382 14.9157 10.4712 15.2927 11.2504 15.4414C12.0296 15.59 12.8354 15.5036 13.5654 15.1932C14.2953 14.8828 14.9165 14.3623 15.35 13.698C15.7834 13.0336 16.0096 12.2554 15.9997 11.4622C15.9865 10.41 15.5593 9.40542 14.8106 8.66605C14.0618 7.92669 13.0519 7.51213 11.9997 7.51221ZM11.9997 13.9222C11.5127 13.9242 11.0361 13.7816 10.6303 13.5125C10.2244 13.2434 9.90754 12.8599 9.71981 12.4106C9.53208 11.9612 9.48194 11.4663 9.57573 10.9885C9.66951 10.5106 9.90301 10.0713 10.2466 9.7263C10.5903 9.38126 11.0286 9.14597 11.5061 9.05024C11.9835 8.9545 12.4787 9.00263 12.9287 9.18853C13.3788 9.37442 13.7636 9.68972 14.0344 10.0945C14.3051 10.4992 14.4497 10.9752 14.4497 11.4622C14.4497 12.1129 14.1919 12.7371 13.7327 13.1982C13.2735 13.6592 12.6504 13.9196 11.9997 13.9222Z" fill="#F5F5F5"/>
<path d="M16.141 21.0733C15.946 21.1069 15.7462 21.1007 15.5536 21.0552C15.3611 21.0098 15.1796 20.9259 15.0203 20.8086C14.837 20.6654 14.6897 20.4814 14.5903 20.2711C14.4909 20.0609 14.4421 19.8303 14.4478 19.5978L14.5039 18.1476C14.5177 17.7817 14.641 17.4284 14.8578 17.1333L17.6889 13.4021C17.8367 13.2123 18.0209 13.0539 18.2307 12.9361C18.4405 12.8183 18.6716 12.7436 18.9106 12.7162C19.3933 12.6644 19.8774 12.7993 20.2637 13.0933L21.0225 13.6736C21.418 13.9572 21.6858 14.3852 21.7679 14.8649C21.85 15.3446 21.7398 15.8373 21.4611 16.2363L18.6284 19.9576C18.4015 20.2583 18.0827 20.4767 17.7204 20.5797L16.3348 21.0198L16.141 21.0733ZM19.0274 14.2281C18.958 14.2378 18.8951 14.274 18.852 14.3292L16.0587 18.0437C16.0263 18.088 16.0071 18.1405 16.0034 18.1952L15.949 19.6553L17.2637 19.1564C17.3181 19.1406 17.3658 19.1075 17.3997 19.0621L20.2226 15.3424C20.2696 15.2674 20.2874 15.1777 20.2724 15.0904C20.2575 15.0031 20.2109 14.9244 20.1416 14.8693L19.3729 14.2907C19.3341 14.2606 19.2897 14.2385 19.2422 14.2257C19.1947 14.2129 19.1451 14.2097 19.0964 14.2163L19.0274 14.2281Z" fill="#F5F5F5"/>
</svg>
