<svg width="34" height="33" viewBox="0 0 34 33" fill="none" xmlns="http://www.w3.org/2000/svg">
<path d="M23.285 32.625H10.715C8.10527 32.625 5.60243 31.5883 3.75707 29.7429C1.91171 27.8976 0.875 25.3947 0.875 22.785V10.215C0.875 7.60527 1.91171 5.10243 3.75707 3.25707C5.60243 1.41171 8.10527 0.375 10.715 0.375H23.285C25.8947 0.375 28.3976 1.41171 30.2429 3.25707C32.0883 5.10243 33.125 7.60527 33.125 10.215V22.785C33.125 25.3947 32.0883 27.8976 30.2429 29.7429C28.3976 31.5883 25.8947 32.625 23.285 32.625V32.625ZM10.715 2.625C8.70322 2.62896 6.77498 3.4299 5.35244 4.85244C3.9299 6.27498 3.12896 8.20322 3.125 10.215V22.785C3.12896 24.7968 3.9299 26.725 5.35244 28.1476C6.77498 29.5701 8.70322 30.371 10.715 30.375H23.285C25.2968 30.371 27.225 29.5701 28.6476 28.1476C30.0701 26.725 30.871 24.7968 30.875 22.785V10.215C30.871 8.20322 30.0701 6.27498 28.6476 4.85244C27.225 3.4299 25.2968 2.62896 23.285 2.625H10.715ZM19.565 22.935C19.8444 22.654 20.0012 22.2738 20.0012 21.8775C20.0012 21.4812 19.8444 21.101 19.565 20.82L15.41 16.5L19.79 12.3C20.0431 12.0185 20.1805 11.6517 20.1745 11.2732C20.1685 10.8947 20.0196 10.5324 19.7577 10.2591C19.4957 9.98579 19.1401 9.82162 18.7622 9.79953C18.3843 9.77743 18.012 9.89906 17.72 10.14L12.245 15.3C12.1023 15.4359 11.9878 15.5986 11.908 15.7787C11.8283 15.9589 11.7847 16.153 11.78 16.35C11.7737 16.7466 11.9247 17.1295 12.2 17.415L17.435 22.89C17.5762 23.0381 17.7461 23.1557 17.9344 23.2357C18.1227 23.3157 18.3254 23.3563 18.53 23.355C18.9162 23.3535 19.2869 23.203 19.565 22.935Z" fill="#9E9FAB"/>
</svg>
