<svg width="34" height="33" viewBox="0 0 34 33" fill="none" xmlns="http://www.w3.org/2000/svg">
<path d="M23.285 32.5952H10.715C8.10649 32.5912 5.60595 31.5533 3.76145 29.7088C1.91695 27.8643 0.878967 25.3637 0.875 22.7552V10.1702C0.878974 7.56308 1.91744 5.06409 3.76237 3.22198C5.60729 1.37986 8.10787 0.345212 10.715 0.345215H23.285C25.8921 0.345212 28.3927 1.37986 30.2376 3.22198C32.0826 5.06409 33.121 7.56308 33.125 10.1702V22.7552C33.121 25.3637 32.083 27.8643 30.2385 29.7088C28.394 31.5533 25.8935 32.5912 23.285 32.5952V32.5952ZM10.715 2.59521C8.7046 2.59521 6.77633 3.39281 5.35336 4.81297C3.93038 6.23313 3.12897 8.15982 3.125 10.1702V22.7552C3.12896 24.767 3.9299 26.6952 5.35244 28.1178C6.77498 29.5403 8.70322 30.3413 10.715 30.3452H23.285C25.2968 30.3413 27.225 29.5403 28.6476 28.1178C30.0701 26.6952 30.871 24.767 30.875 22.7552V10.1702C30.871 8.15982 30.0696 6.23313 28.6466 4.81297C27.2237 3.39281 25.2954 2.59521 23.285 2.59521H10.715ZM16.445 22.8452L21.68 17.3852C21.8206 17.2458 21.9322 17.0799 22.0083 16.8971C22.0845 16.7143 22.1237 16.5182 22.1237 16.3202C22.1237 16.1222 22.0845 15.9261 22.0083 15.7434C21.9322 15.5606 21.8206 15.3947 21.68 15.2552L16.175 10.0202C15.8866 9.74373 15.5001 9.59314 15.1007 9.60158C14.7012 9.61002 14.3215 9.77679 14.045 10.0652C13.7685 10.3536 13.6179 10.7401 13.6264 11.1395C13.6348 11.539 13.8016 11.9187 14.09 12.1952L18.5 16.3952L14.3 20.7752C14.0977 20.9874 13.9621 21.2542 13.9098 21.5426C13.8575 21.831 13.8908 22.1285 14.0057 22.3981C14.1206 22.6678 14.312 22.8979 14.5562 23.06C14.8005 23.2221 15.0869 23.3091 15.38 23.3102C15.5795 23.3074 15.7765 23.2649 15.9594 23.185C16.1422 23.1052 16.3073 22.9897 16.445 22.8452Z" fill="#9E9FAB"/>
</svg>
