<svg width="22" height="16" viewBox="0 0 22 16" fill="none" xmlns="http://www.w3.org/2000/svg">
<path d="M17.74 15.0459H4.26C3.2636 15.0434 2.30876 14.6623 1.60419 13.9859C0.899629 13.3095 0.502639 12.3929 0.5 11.4363V4.56273C0.502639 3.60618 0.899629 2.68953 1.60419 2.01315C2.30876 1.33677 3.2636 0.955659 4.26 0.953125H17.74C18.7364 0.955659 19.6912 1.33677 20.3958 2.01315C21.1004 2.68953 21.4974 3.60618 21.5 4.56273V11.4363C21.4974 12.3929 21.1004 13.3095 20.3958 13.9859C19.6912 14.6623 18.7364 15.0434 17.74 15.0459V15.0459ZM4.26 2.39312C3.66061 2.39312 3.08577 2.62171 2.66194 3.02859C2.23811 3.43546 2 3.98731 2 4.56273V11.4363C2 12.0117 2.23811 12.5636 2.66194 12.9705C3.08577 13.3773 3.66061 13.6059 4.26 13.6059H17.74C18.3394 13.6059 18.9142 13.3773 19.3381 12.9705C19.7619 12.5636 20 12.0117 20 11.4363V4.56273C20 3.98731 19.7619 3.43546 19.3381 3.02859C18.9142 2.62171 18.3394 2.39312 17.74 2.39312H4.26Z" fill="#4C4E64" fill-opacity="0.6"/>
<path d="M4.67914 7.22168C4.51894 7.22168 4.36233 7.26729 4.22913 7.35273C4.09593 7.43817 3.99211 7.55962 3.9308 7.70171C3.86949 7.84379 3.85345 8.00014 3.8847 8.15098C3.91596 8.30182 3.9931 8.44038 4.10638 8.54913C4.21967 8.65788 4.36399 8.73193 4.52112 8.76194C4.67824 8.79194 4.84111 8.77654 4.98911 8.71769C5.13712 8.65883 5.26363 8.55917 5.35263 8.43129C5.44164 8.30342 5.48914 8.15307 5.48914 7.99928C5.48914 7.79305 5.4038 7.59526 5.2519 7.44943C5.09999 7.30361 4.89397 7.22168 4.67914 7.22168V7.22168Z" fill="#4C4E64" fill-opacity="0.6"/>
<path d="M17.1498 7.22168C16.9896 7.22168 16.833 7.26729 16.6998 7.35273C16.5666 7.43817 16.4628 7.55962 16.4015 7.70171C16.3402 7.84379 16.3242 8.00014 16.3554 8.15098C16.3867 8.30182 16.4638 8.44038 16.5771 8.54913C16.6904 8.65788 16.8347 8.73193 16.9918 8.76194C17.1489 8.79194 17.3118 8.77654 17.4598 8.71769C17.6078 8.65883 17.7343 8.55917 17.8233 8.43129C17.9123 8.30342 17.9598 8.15307 17.9598 7.99928C17.9572 7.79382 17.8711 7.59748 17.7197 7.45219C17.5684 7.3069 17.3639 7.22417 17.1498 7.22168Z" fill="#4C4E64" fill-opacity="0.6"/>
<path d="M11.0008 11.7532C9.99351 11.6986 9.04937 11.2647 8.37344 10.5457C7.69751 9.82671 7.34439 8.88073 7.39077 7.91324C7.34439 6.94576 7.69751 5.99977 8.37344 5.28078C9.04937 4.56178 9.99351 4.12785 11.0008 4.07324C12.0098 4.12541 12.9565 4.55829 13.6345 5.27755C14.3126 5.99682 14.6671 6.94418 14.6208 7.91324C14.6644 8.88165 14.3091 9.82761 13.6315 10.5463C12.954 11.265 12.0089 11.6986 11.0008 11.7532ZM11.0008 5.48444C10.3903 5.54055 9.82721 5.82447 9.4326 6.27511C9.03799 6.72575 8.84343 7.30709 8.89077 7.89404C8.84068 8.48258 9.03398 9.06639 9.42887 9.51914C9.82375 9.97189 10.3884 10.2572 11.0008 10.3132C11.6139 10.2571 12.1795 9.97219 12.576 9.51975C12.9725 9.06732 13.1681 8.48354 13.1208 7.89404C13.168 7.30557 12.9721 6.7229 12.5754 6.272C12.1786 5.82109 11.613 5.53819 11.0008 5.48444V5.48444Z" fill="#4C4E64" fill-opacity="0.6"/>
</svg>
