<svg width="24" height="25" viewBox="0 0 24 25" fill="none" xmlns="http://www.w3.org/2000/svg">
<path d="M18.74 19.9678H5.26C4.2636 19.9653 3.30876 19.5842 2.60419 18.9078C1.89963 18.2314 1.50264 17.3147 1.5 16.3582V9.4846C1.50264 8.52805 1.89963 7.61141 2.60419 6.93503C3.30876 6.25864 4.2636 5.87753 5.26 5.875H18.74C19.7364 5.87753 20.6912 6.25864 21.3958 6.93503C22.1004 7.61141 22.4974 8.52805 22.5 9.4846V16.3582C22.4974 17.3147 22.1004 18.2314 21.3958 18.9078C20.6912 19.5842 19.7364 19.9653 18.74 19.9678V19.9678ZM5.26 7.315C4.66061 7.315 4.08577 7.54358 3.66194 7.95046C3.23811 8.35734 3 8.90919 3 9.4846V16.3582C3 16.9336 3.23811 17.4855 3.66194 17.8923C4.08577 18.2992 4.66061 18.5278 5.26 18.5278H18.74C19.3394 18.5278 19.9142 18.2992 20.3381 17.8923C20.7619 17.4855 21 16.9336 21 16.3582V9.4846C21 8.90919 20.7619 8.35734 20.3381 7.95046C19.9142 7.54358 19.3394 7.315 18.74 7.315H5.26Z" fill="#F5F5F5"/>
<path d="M5.67914 12.1445C5.51894 12.1445 5.36233 12.1901 5.22913 12.2756C5.09593 12.361 4.99211 12.4825 4.9308 12.6246C4.86949 12.7666 4.85345 12.923 4.8847 13.0738C4.91596 13.2247 4.9931 13.3632 5.10638 13.472C5.21967 13.5807 5.36399 13.6548 5.52112 13.6848C5.67824 13.7148 5.84111 13.6994 5.98911 13.6405C6.13712 13.5817 6.26363 13.482 6.35263 13.3541C6.44164 13.2263 6.48914 13.0759 6.48914 12.9221C6.48914 12.7159 6.4038 12.5181 6.2519 12.3723C6.09999 12.2265 5.89397 12.1445 5.67914 12.1445V12.1445Z" fill="#F5F5F5"/>
<path d="M18.1498 12.1445C17.9896 12.1445 17.833 12.1901 17.6998 12.2756C17.5666 12.361 17.4628 12.4825 17.4015 12.6246C17.3402 12.7666 17.3242 12.923 17.3554 13.0738C17.3867 13.2247 17.4638 13.3632 17.5771 13.472C17.6904 13.5807 17.8347 13.6548 17.9918 13.6848C18.1489 13.7148 18.3118 13.6994 18.4598 13.6405C18.6078 13.5817 18.7343 13.482 18.8233 13.3541C18.9123 13.2263 18.9598 13.0759 18.9598 12.9221C18.9572 12.7167 18.8711 12.5203 18.7197 12.375C18.5684 12.2297 18.3639 12.147 18.1498 12.1445Z" fill="#F5F5F5"/>
<path d="M12.0008 16.6741C10.9935 16.6195 10.0494 16.1856 9.37344 15.4666C8.69751 14.7476 8.34439 13.8016 8.39077 12.8341C8.34439 11.8667 8.69751 10.9207 9.37344 10.2017C10.0494 9.48268 10.9935 9.04875 12.0008 8.99414C13.0098 9.04631 13.9565 9.47918 14.6345 10.1984C15.3126 10.9177 15.6671 11.8651 15.6208 12.8341C15.6644 13.8026 15.3091 14.7485 14.6315 15.4672C13.954 16.1859 13.0089 16.6195 12.0008 16.6741ZM12.0008 10.4053C11.3903 10.4614 10.8272 10.7454 10.4326 11.196C10.038 11.6466 9.84343 12.228 9.89077 12.8149C9.84068 13.4035 10.034 13.9873 10.4289 14.44C10.8238 14.8928 11.3884 15.1781 12.0008 15.2341C12.6139 15.178 13.1795 14.8931 13.576 14.4407C13.9725 13.9882 14.1681 13.4044 14.1208 12.8149C14.168 12.2265 13.9721 11.6438 13.5754 11.1929C13.1786 10.742 12.613 10.4591 12.0008 10.4053V10.4053Z" fill="#F5F5F5"/>
</svg>
