<svg width="20" height="20" viewBox="0 0 20 20" fill="none" xmlns="http://www.w3.org/2000/svg">
<path d="M7.65835 16.9415C7.46063 16.9408 7.26544 16.897 7.08642 16.813C6.9074 16.7291 6.74887 16.607 6.6219 16.4555C6.49493 16.3039 6.40258 16.1264 6.3513 15.9355C6.30002 15.7445 6.29105 15.5447 6.32502 15.3499L6.52502 14.2082C6.5679 13.9513 6.68693 13.7133 6.86669 13.5249L10.375 9.71654C10.5094 9.57053 10.6714 9.45263 10.8516 9.36967C11.0318 9.2867 11.2267 9.24032 11.425 9.2332C11.8236 9.2162 12.2128 9.35692 12.5084 9.62487L13.2084 10.2749C13.3551 10.4086 13.4735 10.5705 13.5565 10.7509C13.6395 10.9312 13.6855 11.1264 13.6917 11.3249C13.6999 11.5229 13.6688 11.7206 13.6001 11.9066C13.5315 12.0925 13.4266 12.263 13.2917 12.4082L9.78335 16.2165C9.60431 16.4054 9.37644 16.541 9.12502 16.6082L8.00002 16.8999C7.88796 16.926 7.77341 16.94 7.65835 16.9415V16.9415ZM11.4834 10.4749C11.4148 10.482 11.3504 10.5112 11.3 10.5582L7.78335 14.3665L7.55835 15.5665C7.55105 15.5807 7.54723 15.5964 7.54723 15.6124C7.54723 15.6283 7.55105 15.644 7.55835 15.6582C7.55835 15.6582 7.61669 15.6582 7.65835 15.6582L8.77502 15.3749C8.7912 15.3806 8.80884 15.3806 8.82502 15.3749L12.3417 11.5665C12.3645 11.542 12.3822 11.5131 12.3936 11.4816C12.4051 11.4501 12.4101 11.4167 12.4084 11.3832C12.4056 11.3135 12.3757 11.2477 12.325 11.1999L11.6667 10.5499C11.6426 10.5259 11.614 10.507 11.5825 10.4941C11.551 10.4812 11.5173 10.4747 11.4834 10.4749V10.4749ZM14.6167 2.8582V1.61654C14.5997 1.4749 14.5313 1.34441 14.4246 1.24974C14.3179 1.15508 14.1802 1.1028 14.0375 1.1028C13.8949 1.1028 13.7572 1.15508 13.6504 1.24974C13.5437 1.34441 13.4754 1.4749 13.4584 1.61654V2.67487H13.1917H10.7417V1.61654C10.7417 1.46183 10.6802 1.31345 10.5708 1.20406C10.4614 1.09466 10.3131 1.0332 10.1584 1.0332C10.0036 1.0332 9.85527 1.09466 9.74588 1.20406C9.63648 1.31345 9.57502 1.46183 9.57502 1.61654V2.6582H6.80835H6.54169V1.61654C6.52467 1.4749 6.45633 1.34441 6.34961 1.24974C6.24289 1.15508 6.10518 1.1028 5.96252 1.1028C5.81986 1.1028 5.68215 1.15508 5.57543 1.24974C5.46871 1.34441 5.40037 1.4749 5.38335 1.61654V2.8582C4.31306 3.16693 3.37197 3.81489 2.70168 4.70459C2.0314 5.59429 1.66819 6.67761 1.66669 7.79154V13.8249C1.6711 15.1893 2.21678 16.4962 3.18392 17.4586C4.15105 18.4211 5.46059 18.9604 6.82502 18.9582H13.2084C14.567 18.9516 15.868 18.4084 16.8279 17.4469C17.7879 16.4854 18.329 15.1835 18.3334 13.8249V7.79154C18.3319 6.67761 17.9686 5.59429 17.2984 4.70459C16.6281 3.81489 15.687 3.16693 14.6167 2.8582V2.8582ZM5.38335 4.0832V4.7582C5.40037 4.89984 5.46871 5.03033 5.57543 5.125C5.68215 5.21966 5.81986 5.27194 5.96252 5.27194C6.10518 5.27194 6.24289 5.21966 6.34961 5.125C6.45633 5.03033 6.52467 4.89984 6.54169 4.7582V3.84154C6.63335 3.84154 6.71669 3.84154 6.80835 3.84154H9.57502V4.7582C9.57502 4.91291 9.63648 5.06129 9.74588 5.17068C9.85527 5.28008 10.0036 5.34154 10.1584 5.34154C10.3131 5.34154 10.4614 5.28008 10.5708 5.17068C10.6802 5.06129 10.7417 4.91291 10.7417 4.7582V3.81654H13.1917C13.2834 3.81654 13.3667 3.81654 13.4584 3.81654V4.7332C13.4754 4.87484 13.5437 5.00533 13.6504 5.1C13.7572 5.19466 13.8949 5.24694 14.0375 5.24694C14.1802 5.24694 14.3179 5.19466 14.4246 5.1C14.5313 5.00533 14.5997 4.87484 14.6167 4.7332V4.0832C15.2716 4.33794 15.8476 4.76105 16.2866 5.30977C16.7256 5.85849 17.0119 6.51336 17.1167 7.2082H2.86669C2.97297 6.51152 3.2618 5.85539 3.70384 5.30651C4.14587 4.75763 4.72534 4.33556 5.38335 4.0832V4.0832ZM17.1917 13.8249C17.1873 14.8821 16.7636 15.8944 16.0137 16.6396C15.2638 17.3848 14.2489 17.8021 13.1917 17.7999H6.80835C5.75114 17.8021 4.73622 17.3848 3.98631 16.6396C3.23641 15.8944 2.81277 14.8821 2.80835 13.8249V8.3332H17.1917V13.8249Z" fill="#4C4E64" fill-opacity="0.87"/>
</svg>
