<svg width="20" height="20" viewBox="0 0 20 20" fill="none" xmlns="http://www.w3.org/2000/svg">
<path d="M7.65866 16.9415C7.46093 16.9408 7.26574 16.897 7.08673 16.813C6.90771 16.7291 6.74918 16.607 6.6222 16.4555C6.49523 16.3039 6.40288 16.1264 6.35161 15.9355C6.30033 15.7445 6.29136 15.5447 6.32533 15.3499L6.52533 14.2082C6.5682 13.9513 6.68723 13.7133 6.86699 13.5249L10.3753 9.71654C10.5097 9.57053 10.6717 9.45263 10.8519 9.36967C11.0321 9.2867 11.227 9.24032 11.4253 9.2332C11.8239 9.2162 12.2131 9.35692 12.5087 9.62487L13.2087 10.2749C13.3554 10.4086 13.4738 10.5705 13.5568 10.7509C13.6398 10.9312 13.6858 11.1264 13.692 11.3249C13.7002 11.5229 13.6691 11.7206 13.6004 11.9066C13.5318 12.0925 13.4269 12.263 13.292 12.4082L9.78366 16.2165C9.60462 16.4054 9.37674 16.541 9.12533 16.6082L8.00033 16.8999C7.88827 16.926 7.77371 16.94 7.65866 16.9415V16.9415ZM11.4837 10.4749C11.4151 10.482 11.3507 10.5112 11.3003 10.5582L7.78366 14.3665L7.55866 15.5665C7.55135 15.5807 7.54754 15.5964 7.54754 15.6124C7.54754 15.6283 7.55135 15.644 7.55866 15.6582C7.55866 15.6582 7.61699 15.6582 7.65866 15.6582L8.77533 15.3749C8.7915 15.3806 8.80915 15.3806 8.82533 15.3749L12.342 11.5665C12.3648 11.542 12.3825 11.5131 12.3939 11.4816C12.4054 11.4501 12.4104 11.4167 12.4087 11.3832C12.4059 11.3135 12.376 11.2477 12.3253 11.1999L11.667 10.5499C11.6429 10.5259 11.6143 10.507 11.5828 10.4941C11.5513 10.4812 11.5176 10.4747 11.4837 10.4749V10.4749ZM14.617 2.8582V1.61654C14.6 1.4749 14.5316 1.34441 14.4249 1.24974C14.3182 1.15508 14.1805 1.1028 14.0378 1.1028C13.8952 1.1028 13.7575 1.15508 13.6507 1.24974C13.544 1.34441 13.4757 1.4749 13.4587 1.61654V2.67487H13.192H10.742V1.61654C10.742 1.46183 10.6805 1.31345 10.5711 1.20406C10.4617 1.09466 10.3134 1.0332 10.1587 1.0332C10.0039 1.0332 9.85558 1.09466 9.74618 1.20406C9.63678 1.31345 9.57533 1.46183 9.57533 1.61654V2.6582H6.80866H6.54199V1.61654C6.52497 1.4749 6.45664 1.34441 6.34992 1.24974C6.2432 1.15508 6.10548 1.1028 5.96283 1.1028C5.82017 1.1028 5.68246 1.15508 5.57573 1.24974C5.46901 1.34441 5.40068 1.4749 5.38366 1.61654V2.8582C4.31336 3.16693 3.37227 3.81489 2.70199 4.70459C2.03171 5.59429 1.66849 6.67761 1.66699 7.79154V13.8249C1.67141 15.1893 2.21709 16.4962 3.18422 17.4586C4.15136 18.4211 5.4609 18.9604 6.82533 18.9582H13.2087C14.5673 18.9516 15.8683 18.4084 16.8282 17.4469C17.7882 16.4854 18.3293 15.1835 18.3337 13.8249V7.79154C18.3322 6.67761 17.9689 5.59429 17.2987 4.70459C16.6284 3.81489 15.6873 3.16693 14.617 2.8582V2.8582ZM5.38366 4.0832V4.7582C5.40068 4.89984 5.46901 5.03033 5.57573 5.125C5.68246 5.21966 5.82017 5.27194 5.96283 5.27194C6.10548 5.27194 6.2432 5.21966 6.34992 5.125C6.45664 5.03033 6.52497 4.89984 6.54199 4.7582V3.84154C6.63366 3.84154 6.71699 3.84154 6.80866 3.84154H9.57533V4.7582C9.57533 4.91291 9.63678 5.06129 9.74618 5.17068C9.85558 5.28008 10.0039 5.34154 10.1587 5.34154C10.3134 5.34154 10.4617 5.28008 10.5711 5.17068C10.6805 5.06129 10.742 4.91291 10.742 4.7582V3.81654H13.192C13.2837 3.81654 13.367 3.81654 13.4587 3.81654V4.7332C13.4757 4.87484 13.544 5.00533 13.6507 5.1C13.7575 5.19466 13.8952 5.24694 14.0378 5.24694C14.1805 5.24694 14.3182 5.19466 14.4249 5.1C14.5316 5.00533 14.6 4.87484 14.617 4.7332V4.0832C15.2719 4.33794 15.8479 4.76105 16.2869 5.30977C16.7259 5.85849 17.0122 6.51336 17.117 7.2082H2.86699C2.97327 6.51152 3.26211 5.85539 3.70414 5.30651C4.14618 4.75763 4.72565 4.33556 5.38366 4.0832V4.0832ZM17.192 13.8249C17.1876 14.8821 16.7639 15.8944 16.014 16.6396C15.2641 17.3848 14.2492 17.8021 13.192 17.7999H6.80866C5.75144 17.8021 4.73653 17.3848 3.98662 16.6396C3.23671 15.8944 2.81307 14.8821 2.80866 13.8249V8.3332H17.192V13.8249Z" fill="#F5F5F5"/>
</svg>
