<svg width="20" height="22" viewBox="0 0 20 22" fill="none" xmlns="http://www.w3.org/2000/svg">
<path d="M15.54 2.35211V0.862109C15.5196 0.692143 15.4376 0.535554 15.3095 0.421955C15.1814 0.308357 15.0162 0.245626 14.845 0.245626C14.6738 0.245626 14.5086 0.308357 14.3805 0.421955C14.2524 0.535554 14.1704 0.692143 14.15 0.862109V2.13211H13.83H10.89V0.862109C10.89 0.676458 10.8162 0.49841 10.685 0.367135C10.5537 0.235859 10.3757 0.162109 10.19 0.162109C10.0043 0.162109 9.8263 0.235859 9.69503 0.367135C9.56375 0.49841 9.49 0.676458 9.49 0.862109V2.11211H6.17H5.85V0.862109C5.82958 0.692143 5.74758 0.535554 5.61951 0.421955C5.49144 0.308357 5.32619 0.245626 5.155 0.245626C4.98381 0.245626 4.81856 0.308357 4.69049 0.421955C4.56242 0.535554 4.48042 0.692143 4.46 0.862109V2.35211C3.17564 2.72258 2.04634 3.50013 1.242 4.56777C0.437659 5.63541 0.00179961 6.93539 0 8.27211V15.5121C0.00529659 17.1494 0.660112 18.7177 1.82068 19.8726C2.98124 21.0276 4.55269 21.6748 6.19 21.6721H13.85C15.4804 21.6642 17.0416 21.0124 18.1935 19.8586C19.3454 18.7048 19.9947 17.1425 20 15.5121V8.27211C19.9982 6.93539 19.5623 5.63541 18.758 4.56777C17.9537 3.50013 16.8244 2.72258 15.54 2.35211ZM4.46 3.82211V4.63211C4.48042 4.80208 4.56242 4.95867 4.69049 5.07226C4.81856 5.18586 4.98381 5.24859 5.155 5.24859C5.32619 5.24859 5.49144 5.18586 5.61951 5.07226C5.74758 4.95867 5.82958 4.80208 5.85 4.63211V3.53211C5.96 3.53211 6.06 3.53211 6.17 3.53211H9.49V4.63211C9.49 4.81776 9.56375 4.99581 9.69503 5.12708C9.8263 5.25836 10.0043 5.33211 10.19 5.33211C10.3757 5.33211 10.5537 5.25836 10.685 5.12708C10.8162 4.99581 10.89 4.81776 10.89 4.63211V3.50211H13.83C13.94 3.50211 14.04 3.50211 14.15 3.50211V4.60211C14.1704 4.77208 14.2524 4.92866 14.3805 5.04226C14.5086 5.15586 14.6738 5.21859 14.845 5.21859C15.0162 5.21859 15.1814 5.15586 15.3095 5.04226C15.4376 4.92866 15.5196 4.77208 15.54 4.60211V3.82211C16.3259 4.1278 17.0171 4.63553 17.5439 5.29399C18.0707 5.95245 18.4143 6.7383 18.54 7.57211H1.44C1.56754 6.73609 1.91414 5.94874 2.44458 5.29008C2.97502 4.63142 3.67039 4.12494 4.46 3.82211ZM13.83 20.2821H6.17C4.90134 20.2848 3.68344 19.784 2.78355 18.8898C1.88366 17.9955 1.37529 16.7808 1.37 15.5121V8.92211H18.63V15.4721C18.6326 16.1037 18.5104 16.7295 18.2702 17.3136C18.03 17.8977 17.6767 18.4286 17.2306 18.8756C16.7845 19.3227 16.2544 19.6771 15.6708 19.9185C15.0871 20.1598 14.4616 20.2834 13.83 20.2821ZM7.59 12.7621C7.59598 12.9353 7.55008 13.1064 7.45819 13.2534C7.36629 13.4003 7.2326 13.5165 7.07425 13.587C6.91589 13.6574 6.7401 13.679 6.56941 13.6489C6.39872 13.6188 6.24091 13.5384 6.11622 13.418C5.99153 13.2976 5.90564 13.1427 5.86957 12.9732C5.8335 12.8036 5.84888 12.6272 5.91376 12.4665C5.97863 12.3058 6.09003 12.1681 6.23368 12.0711C6.37733 11.9741 6.54667 11.9222 6.72 11.9221C6.94563 11.922 7.16249 12.0095 7.32481 12.1662C7.48714 12.323 7.58222 12.5366 7.59 12.7621ZM10.85 12.7621C10.8579 12.9389 10.8124 13.114 10.7193 13.2645C10.6262 13.415 10.4899 13.534 10.3282 13.6058C10.1665 13.6777 9.98684 13.6991 9.81275 13.6673C9.63866 13.6355 9.4782 13.5519 9.35233 13.4276C9.22645 13.3032 9.141 13.1437 9.10714 12.97C9.07328 12.7963 9.09258 12.6164 9.16252 12.4539C9.23246 12.2913 9.34979 12.1536 9.49919 12.0587C9.64859 11.9639 9.82312 11.9163 10 11.9221C10.2222 11.9271 10.434 12.0169 10.592 12.1731C10.7501 12.3293 10.8424 12.54 10.85 12.7621ZM14.13 12.7621C14.134 12.9374 14.0855 13.1098 13.9908 13.2574C13.8961 13.4049 13.7595 13.5208 13.5985 13.5902C13.4375 13.6596 13.2595 13.6793 13.0872 13.6468C12.9149 13.6143 12.7563 13.5311 12.6316 13.4079C12.5069 13.2846 12.4219 13.127 12.3874 12.9551C12.3529 12.7832 12.3706 12.6049 12.4381 12.4431C12.5056 12.2813 12.6199 12.1434 12.7664 12.047C12.9128 11.9506 13.0847 11.9002 13.26 11.9021C13.489 11.9021 13.7088 11.9924 13.8717 12.1534C14.0345 12.3144 14.1274 12.5331 14.13 12.7621ZM7.58 15.9921C7.57869 16.105 7.55515 16.2166 7.51073 16.3205C7.4663 16.4243 7.40185 16.5184 7.32106 16.5973C7.24027 16.6762 7.14472 16.7385 7.03988 16.7805C6.93503 16.8225 6.82294 16.8434 6.71 16.8421C6.53992 16.8401 6.37426 16.7877 6.23395 16.6916C6.09364 16.5955 5.98499 16.4599 5.92174 16.302C5.85848 16.1441 5.84347 15.971 5.87859 15.8046C5.91372 15.6382 5.9974 15.4859 6.11906 15.367C6.24072 15.2482 6.39489 15.168 6.56208 15.1368C6.72928 15.1056 6.90198 15.1246 7.05835 15.1915C7.21473 15.2584 7.34775 15.3702 7.4406 15.5127C7.53346 15.6552 7.58197 15.822 7.58 15.9921ZM10.84 15.9921C10.844 16.167 10.7958 16.339 10.7015 16.4863C10.6073 16.6337 10.4713 16.7496 10.3109 16.8192C10.1504 16.8889 9.97291 16.9092 9.80091 16.8776C9.62891 16.8459 9.47025 16.7637 9.34517 16.6415C9.22009 16.5192 9.13427 16.3625 9.09866 16.1913C9.06305 16.0201 9.07927 15.8421 9.14525 15.6801C9.21123 15.5182 9.32397 15.3795 9.46908 15.2819C9.6142 15.1843 9.78511 15.1322 9.96 15.1321C10.0746 15.1294 10.1886 15.1497 10.2953 15.1917C10.4019 15.2338 10.4991 15.2967 10.5811 15.3768C10.6631 15.4569 10.7282 15.5527 10.7727 15.6583C10.8171 15.764 10.84 15.8775 10.84 15.9921ZM14.12 15.9921C14.124 16.167 14.0758 16.339 13.9815 16.4863C13.8873 16.6337 13.7513 16.7496 13.5909 16.8192C13.4304 16.8889 13.2529 16.9092 13.0809 16.8776C12.9089 16.8459 12.7502 16.7637 12.6252 16.6415C12.5001 16.5192 12.4143 16.3625 12.3787 16.1913C12.3431 16.0201 12.3593 15.8421 12.4252 15.6801C12.4912 15.5182 12.604 15.3795 12.7491 15.2819C12.8942 15.1843 13.0651 15.1322 13.24 15.1321C13.3546 15.1294 13.4686 15.1497 13.5753 15.1917C13.6819 15.2338 13.7791 15.2967 13.8611 15.3768C13.9431 15.4569 14.0082 15.5527 14.0527 15.6583C14.0971 15.764 14.12 15.8775 14.12 15.9921Z" fill="#F5F5F5"/>
</svg>
