<svg width="24" height="25" viewBox="0 0 24 25" fill="none" xmlns="http://www.w3.org/2000/svg">
<path d="M17.54 4.35211V2.86211C17.5196 2.69214 17.4376 2.53555 17.3095 2.42196C17.1814 2.30836 17.0162 2.24563 16.845 2.24563C16.6738 2.24563 16.5086 2.30836 16.3805 2.42196C16.2524 2.53555 16.1704 2.69214 16.15 2.86211V4.13211H15.83H12.89V2.86211C12.89 2.67646 12.8162 2.49841 12.685 2.36713C12.5537 2.23586 12.3757 2.16211 12.19 2.16211C12.0043 2.16211 11.8263 2.23586 11.695 2.36713C11.5638 2.49841 11.49 2.67646 11.49 2.86211V4.11211H8.17H7.85V2.86211C7.82958 2.69214 7.74758 2.53555 7.61951 2.42196C7.49144 2.30836 7.32619 2.24563 7.155 2.24563C6.98381 2.24563 6.81856 2.30836 6.69049 2.42196C6.56242 2.53555 6.48042 2.69214 6.46 2.86211V4.35211C5.17564 4.72258 4.04634 5.50013 3.242 6.56777C2.43766 7.63541 2.0018 8.93539 2 10.2721V17.5121C2.0053 19.1494 2.66011 20.7177 3.82068 21.8726C4.98124 23.0276 6.55269 23.6748 8.19 23.6721H15.85C17.4804 23.6642 19.0416 23.0124 20.1935 21.8586C21.3454 20.7048 21.9947 19.1425 22 17.5121V10.2721C21.9982 8.93539 21.5623 7.63541 20.758 6.56777C19.9537 5.50013 18.8244 4.72258 17.54 4.35211ZM6.46 5.82211V6.63211C6.48042 6.80208 6.56242 6.95867 6.69049 7.07226C6.81856 7.18586 6.98381 7.24859 7.155 7.24859C7.32619 7.24859 7.49144 7.18586 7.61951 7.07226C7.74758 6.95867 7.82958 6.80208 7.85 6.63211V5.53211C7.96 5.53211 8.06 5.53211 8.17 5.53211H11.49V6.63211C11.49 6.81776 11.5638 6.99581 11.695 7.12708C11.8263 7.25836 12.0043 7.33211 12.19 7.33211C12.3757 7.33211 12.5537 7.25836 12.685 7.12708C12.8162 6.99581 12.89 6.81776 12.89 6.63211V5.50211H15.83C15.94 5.50211 16.04 5.50211 16.15 5.50211V6.60211C16.1704 6.77208 16.2524 6.92866 16.3805 7.04226C16.5086 7.15586 16.6738 7.21859 16.845 7.21859C17.0162 7.21859 17.1814 7.15586 17.3095 7.04226C17.4376 6.92866 17.5196 6.77208 17.54 6.60211V5.82211C18.3259 6.1278 19.0171 6.63553 19.5439 7.29399C20.0707 7.95245 20.4143 8.7383 20.54 9.57211H3.44C3.56754 8.73609 3.91414 7.94874 4.44458 7.29008C4.97502 6.63142 5.67039 6.12494 6.46 5.82211ZM15.83 22.2821H8.17C6.90134 22.2848 5.68344 21.784 4.78355 20.8898C3.88366 19.9955 3.37529 18.7808 3.37 17.5121V10.9221H20.63V17.4721C20.6326 18.1037 20.5104 18.7295 20.2702 19.3136C20.03 19.8977 19.6767 20.4286 19.2306 20.8756C18.7845 21.3227 18.2544 21.6771 17.6708 21.9185C17.0871 22.1598 16.4616 22.2834 15.83 22.2821ZM9.59 14.7621C9.59598 14.9353 9.55008 15.1064 9.45819 15.2534C9.36629 15.4003 9.2326 15.5165 9.07425 15.587C8.91589 15.6574 8.7401 15.679 8.56941 15.6489C8.39872 15.6188 8.24091 15.5384 8.11622 15.418C7.99153 15.2976 7.90564 15.1427 7.86957 14.9732C7.8335 14.8036 7.84888 14.6272 7.91376 14.4665C7.97863 14.3058 8.09003 14.1681 8.23368 14.0711C8.37733 13.9741 8.54667 13.9222 8.72 13.9221C8.94563 13.922 9.16249 14.0095 9.32481 14.1662C9.48714 14.323 9.58222 14.5366 9.59 14.7621ZM12.85 14.7621C12.8579 14.9389 12.8124 15.114 12.7193 15.2645C12.6262 15.415 12.4899 15.534 12.3282 15.6058C12.1665 15.6777 11.9868 15.6991 11.8128 15.6673C11.6387 15.6355 11.4782 15.5519 11.3523 15.4276C11.2264 15.3032 11.141 15.1437 11.1071 14.97C11.0733 14.7963 11.0926 14.6164 11.1625 14.4539C11.2325 14.2913 11.3498 14.1536 11.4992 14.0587C11.6486 13.9639 11.8231 13.9163 12 13.9221C12.2222 13.9271 12.434 14.0169 12.592 14.1731C12.7501 14.3293 12.8424 14.54 12.85 14.7621ZM16.13 14.7621C16.134 14.9374 16.0855 15.1098 15.9908 15.2574C15.8961 15.4049 15.7595 15.5208 15.5985 15.5902C15.4375 15.6596 15.2595 15.6793 15.0872 15.6468C14.9149 15.6143 14.7563 15.5311 14.6316 15.4079C14.5069 15.2846 14.4219 15.127 14.3874 14.9551C14.3529 14.7832 14.3706 14.6049 14.4381 14.4431C14.5056 14.2813 14.6199 14.1434 14.7664 14.047C14.9128 13.9506 15.0847 13.9002 15.26 13.9021C15.489 13.9021 15.7088 13.9924 15.8717 14.1534C16.0345 14.3144 16.1274 14.5331 16.13 14.7621ZM9.58 17.9921C9.57869 18.105 9.55515 18.2166 9.51073 18.3205C9.4663 18.4243 9.40185 18.5184 9.32106 18.5973C9.24027 18.6762 9.14472 18.7385 9.03988 18.7805C8.93503 18.8225 8.82294 18.8434 8.71 18.8421C8.53992 18.8401 8.37426 18.7877 8.23395 18.6916C8.09364 18.5955 7.98499 18.4599 7.92174 18.302C7.85848 18.1441 7.84347 17.971 7.87859 17.8046C7.91372 17.6382 7.9974 17.4859 8.11906 17.367C8.24072 17.2482 8.39489 17.168 8.56208 17.1368C8.72928 17.1056 8.90198 17.1246 9.05835 17.1915C9.21473 17.2584 9.34775 17.3702 9.4406 17.5127C9.53346 17.6552 9.58197 17.822 9.58 17.9921ZM12.84 17.9921C12.844 18.167 12.7958 18.339 12.7015 18.4863C12.6073 18.6337 12.4713 18.7496 12.3109 18.8192C12.1504 18.8889 11.9729 18.9092 11.8009 18.8776C11.6289 18.8459 11.4702 18.7637 11.3452 18.6415C11.2201 18.5192 11.1343 18.3625 11.0987 18.1913C11.0631 18.0201 11.0793 17.8421 11.1452 17.6801C11.2112 17.5182 11.324 17.3795 11.4691 17.2819C11.6142 17.1843 11.7851 17.1322 11.96 17.1321C12.0746 17.1294 12.1886 17.1497 12.2953 17.1917C12.4019 17.2338 12.4991 17.2967 12.5811 17.3768C12.6631 17.4569 12.7282 17.5527 12.7727 17.6583C12.8171 17.764 12.84 17.8775 12.84 17.9921ZM16.12 17.9921C16.124 18.167 16.0758 18.339 15.9815 18.4863C15.8873 18.6337 15.7513 18.7496 15.5909 18.8192C15.4304 18.8889 15.2529 18.9092 15.0809 18.8776C14.9089 18.8459 14.7502 18.7637 14.6252 18.6415C14.5001 18.5192 14.4143 18.3625 14.3787 18.1913C14.3431 18.0201 14.3593 17.8421 14.4252 17.6801C14.4912 17.5182 14.604 17.3795 14.7491 17.2819C14.8942 17.1843 15.0651 17.1322 15.24 17.1321C15.3546 17.1294 15.4686 17.1497 15.5753 17.1917C15.6819 17.2338 15.7791 17.2967 15.8611 17.3768C15.9431 17.4569 16.0082 17.5527 16.0527 17.6583C16.0971 17.764 16.12 17.8775 16.12 17.9921Z" fill="#F5F5F5"/>
</svg>
