<svg width="24" height="25" viewBox="0 0 24 25" fill="none" xmlns="http://www.w3.org/2000/svg">
<path d="M5 9.17188C4.35721 9.17188 3.72886 8.98127 3.1944 8.62415C2.65994 8.26704 2.24338 7.75946 1.99739 7.1656C1.75141 6.57174 1.68705 5.91827 1.81245 5.28783C1.93785 4.65739 2.24738 4.0783 2.7019 3.62378C3.15642 3.16926 3.73552 2.85973 4.36596 2.73432C4.9964 2.60892 5.64986 2.67328 6.24372 2.91927C6.83758 3.16525 7.34516 3.58181 7.70228 4.11627C8.05939 4.65073 8.25 5.27909 8.25 5.92188C8.24736 6.78302 7.90411 7.60814 7.29518 8.21706C6.68626 8.82598 5.86114 9.16924 5 9.17188ZM5 4.17188C4.65388 4.17188 4.31554 4.27451 4.02775 4.4668C3.73997 4.6591 3.51567 4.93241 3.38321 5.25218C3.25076 5.57195 3.2161 5.92382 3.28363 6.26328C3.35115 6.60275 3.51782 6.91457 3.76256 7.15931C4.00731 7.40406 4.31913 7.57073 4.65859 7.63825C4.99806 7.70577 5.34993 7.67112 5.6697 7.53867C5.98947 7.40621 6.26278 7.18191 6.45507 6.89412C6.64737 6.60634 6.75 6.26799 6.75 5.92188C6.74738 5.45856 6.56216 5.01496 6.23454 4.68734C5.90692 4.35972 5.46332 4.1745 5 4.17188ZM19 23.1719C18.3572 23.1719 17.7289 22.9813 17.1944 22.6242C16.6599 22.267 16.2434 21.7595 15.9974 21.1656C15.7514 20.5717 15.687 19.9183 15.8124 19.2878C15.9379 18.6574 16.2474 18.0783 16.7019 17.6238C17.1564 17.1693 17.7355 16.8597 18.366 16.7343C18.9964 16.6089 19.6499 16.6733 20.2437 16.9193C20.8376 17.1653 21.3452 17.5818 21.7023 18.1163C22.0594 18.6507 22.25 19.2791 22.25 19.9219C22.2474 20.783 21.9041 21.6081 21.2952 22.2171C20.6863 22.826 19.8611 23.1692 19 23.1719ZM19 18.1719C18.6539 18.1719 18.3155 18.2745 18.0278 18.4668C17.74 18.6591 17.5157 18.9324 17.3832 19.2522C17.2508 19.572 17.2161 19.9238 17.2836 20.2633C17.3512 20.6028 17.5178 20.9146 17.7626 21.1593C18.0073 21.4041 18.3191 21.5707 18.6586 21.6383C18.9981 21.7058 19.3499 21.6711 19.6697 21.5387C19.9895 21.4062 20.2628 21.1819 20.4551 20.8941C20.6474 20.6063 20.75 20.268 20.75 19.9219C20.7474 19.4586 20.5622 19.015 20.2345 18.6873C19.9069 18.3597 19.4633 18.1745 19 18.1719ZM12 23.1719C11.3572 23.1719 10.7289 22.9813 10.1944 22.6242C9.65994 22.267 9.24338 21.7595 8.99739 21.1656C8.75141 20.5717 8.68705 19.9183 8.81245 19.2878C8.93785 18.6574 9.24738 18.0783 9.7019 17.6238C10.1564 17.1693 10.7355 16.8597 11.366 16.7343C11.9964 16.6089 12.6499 16.6733 13.2437 16.9193C13.8376 17.1653 14.3452 17.5818 14.7023 18.1163C15.0594 18.6507 15.25 19.2791 15.25 19.9219C15.2474 20.783 14.9041 21.6081 14.2952 22.2171C13.6863 22.826 12.8611 23.1692 12 23.1719ZM12 18.1719C11.6539 18.1719 11.3155 18.2745 11.0278 18.4668C10.74 18.6591 10.5157 18.9324 10.3832 19.2522C10.2508 19.572 10.2161 19.9238 10.2836 20.2633C10.3512 20.6028 10.5178 20.9146 10.7626 21.1593C11.0073 21.4041 11.3191 21.5707 11.6586 21.6383C11.9981 21.7058 12.3499 21.6711 12.6697 21.5387C12.9895 21.4062 13.2628 21.1819 13.4551 20.8941C13.6474 20.6063 13.75 20.268 13.75 19.9219C13.7474 19.4586 13.5622 19.015 13.2345 18.6873C12.9069 18.3597 12.4633 18.1745 12 18.1719ZM5 23.1719C4.35721 23.1719 3.72886 22.9813 3.1944 22.6242C2.65994 22.267 2.24338 21.7595 1.99739 21.1656C1.75141 20.5717 1.68705 19.9183 1.81245 19.2878C1.93785 18.6574 2.24738 18.0783 2.7019 17.6238C3.15642 17.1693 3.73552 16.8597 4.36596 16.7343C4.9964 16.6089 5.64986 16.6733 6.24372 16.9193C6.83758 17.1653 7.34516 17.5818 7.70228 18.1163C8.05939 18.6507 8.25 19.2791 8.25 19.9219C8.24736 20.783 7.90411 21.6081 7.29518 22.2171C6.68626 22.826 5.86114 23.1692 5 23.1719ZM5 18.1719C4.65388 18.1719 4.31554 18.2745 4.02775 18.4668C3.73997 18.6591 3.51567 18.9324 3.38321 19.2522C3.25076 19.572 3.2161 19.9238 3.28363 20.2633C3.35115 20.6028 3.51782 20.9146 3.76256 21.1593C4.00731 21.4041 4.31913 21.5707 4.65859 21.6383C4.99806 21.7058 5.34993 21.6711 5.6697 21.5387C5.98947 21.4062 6.26278 21.1819 6.45507 20.8941C6.64737 20.6063 6.75 20.268 6.75 19.9219C6.74738 19.4586 6.56216 19.015 6.23454 18.6873C5.90692 18.3597 5.46332 18.1745 5 18.1719ZM19 16.1719C18.3572 16.1719 17.7289 15.9813 17.1944 15.6242C16.6599 15.267 16.2434 14.7595 15.9974 14.1656C15.7514 13.5717 15.687 12.9183 15.8124 12.2878C15.9379 11.6574 16.2474 11.0783 16.7019 10.6238C17.1564 10.1693 17.7355 9.85973 18.366 9.73432C18.9964 9.60892 19.6499 9.67328 20.2437 9.91927C20.8376 10.1653 21.3452 10.5818 21.7023 11.1163C22.0594 11.6507 22.25 12.2791 22.25 12.9219C22.2474 13.783 21.9041 14.6081 21.2952 15.2171C20.6863 15.826 19.8611 16.1692 19 16.1719ZM19 11.1719C18.6539 11.1719 18.3155 11.2745 18.0278 11.4668C17.74 11.6591 17.5157 11.9324 17.3832 12.2522C17.2508 12.572 17.2161 12.9238 17.2836 13.2633C17.3512 13.6028 17.5178 13.9146 17.7626 14.1593C18.0073 14.4041 18.3191 14.5707 18.6586 14.6383C18.9981 14.7058 19.3499 14.6711 19.6697 14.5387C19.9895 14.4062 20.2628 14.1819 20.4551 13.8941C20.6474 13.6063 20.75 13.268 20.75 12.9219C20.7474 12.4586 20.5622 12.015 20.2345 11.6873C19.9069 11.3597 19.4633 11.1745 19 11.1719ZM12 16.1719C11.3572 16.1719 10.7289 15.9813 10.1944 15.6242C9.65994 15.267 9.24338 14.7595 8.99739 14.1656C8.75141 13.5717 8.68705 12.9183 8.81245 12.2878C8.93785 11.6574 9.24738 11.0783 9.7019 10.6238C10.1564 10.1693 10.7355 9.85973 11.366 9.73432C11.9964 9.60892 12.6499 9.67328 13.2437 9.91927C13.8376 10.1653 14.3452 10.5818 14.7023 11.1163C15.0594 11.6507 15.25 12.2791 15.25 12.9219C15.2474 13.783 14.9041 14.6081 14.2952 15.2171C13.6863 15.826 12.8611 16.1692 12 16.1719ZM12 11.1719C11.6539 11.1719 11.3155 11.2745 11.0278 11.4668C10.74 11.6591 10.5157 11.9324 10.3832 12.2522C10.2508 12.572 10.2161 12.9238 10.2836 13.2633C10.3512 13.6028 10.5178 13.9146 10.7626 14.1593C11.0073 14.4041 11.3191 14.5707 11.6586 14.6383C11.9981 14.7058 12.3499 14.6711 12.6697 14.5387C12.9895 14.4062 13.2628 14.1819 13.4551 13.8941C13.6474 13.6063 13.75 13.268 13.75 12.9219C13.7474 12.4586 13.5622 12.015 13.2345 11.6873C12.9069 11.3597 12.4633 11.1745 12 11.1719ZM5 16.1719C4.35721 16.1719 3.72886 15.9813 3.1944 15.6242C2.65994 15.267 2.24338 14.7595 1.99739 14.1656C1.75141 13.5717 1.68705 12.9183 1.81245 12.2878C1.93785 11.6574 2.24738 11.0783 2.7019 10.6238C3.15642 10.1693 3.73552 9.85973 4.36596 9.73432C4.9964 9.60892 5.64986 9.67328 6.24372 9.91927C6.83758 10.1653 7.34516 10.5818 7.70228 11.1163C8.05939 11.6507 8.25 12.2791 8.25 12.9219C8.24736 13.783 7.90411 14.6081 7.29518 15.2171C6.68626 15.826 5.86114 16.1692 5 16.1719ZM5 11.1719C4.65388 11.1719 4.31554 11.2745 4.02775 11.4668C3.73997 11.6591 3.51567 11.9324 3.38321 12.2522C3.25076 12.572 3.2161 12.9238 3.28363 13.2633C3.35115 13.6028 3.51782 13.9146 3.76256 14.1593C4.00731 14.4041 4.31913 14.5707 4.65859 14.6383C4.99806 14.7058 5.34993 14.6711 5.6697 14.5387C5.98947 14.4062 6.26278 14.1819 6.45507 13.8941C6.64737 13.6063 6.75 13.268 6.75 12.9219C6.74738 12.4586 6.56216 12.015 6.23454 11.6873C5.90692 11.3597 5.46332 11.1745 5 11.1719ZM19 9.17188C18.3572 9.17188 17.7289 8.98127 17.1944 8.62415C16.6599 8.26704 16.2434 7.75946 15.9974 7.1656C15.7514 6.57174 15.687 5.91827 15.8124 5.28783C15.9379 4.65739 16.2474 4.0783 16.7019 3.62378C17.1564 3.16926 17.7355 2.85973 18.366 2.73432C18.9964 2.60892 19.6499 2.67328 20.2437 2.91927C20.8376 3.16525 21.3452 3.58181 21.7023 4.11627C22.0594 4.65073 22.25 5.27909 22.25 5.92188C22.2474 6.78302 21.9041 7.60814 21.2952 8.21706C20.6863 8.82598 19.8611 9.16924 19 9.17188ZM19 4.17188C18.6539 4.17188 18.3155 4.27451 18.0278 4.4668C17.74 4.6591 17.5157 4.93241 17.3832 5.25218C17.2508 5.57195 17.2161 5.92382 17.2836 6.26328C17.3512 6.60275 17.5178 6.91457 17.7626 7.15931C18.0073 7.40406 18.3191 7.57073 18.6586 7.63825C18.9981 7.70577 19.3499 7.67112 19.6697 7.53867C19.9895 7.40621 20.2628 7.18191 20.4551 6.89412C20.6474 6.60634 20.75 6.26799 20.75 5.92188C20.7474 5.45856 20.5622 5.01496 20.2345 4.68734C19.9069 4.35972 19.4633 4.1745 19 4.17188ZM12 9.17188C11.3572 9.17188 10.7289 8.98127 10.1944 8.62415C9.65994 8.26704 9.24338 7.75946 8.99739 7.1656C8.75141 6.57174 8.68705 5.91827 8.81245 5.28783C8.93785 4.65739 9.24738 4.0783 9.7019 3.62378C10.1564 3.16926 10.7355 2.85973 11.366 2.73432C11.9964 2.60892 12.6499 2.67328 13.2437 2.91927C13.8376 3.16525 14.3452 3.58181 14.7023 4.11627C15.0594 4.65073 15.25 5.27909 15.25 5.92188C15.2474 6.78302 14.9041 7.60814 14.2952 8.21706C13.6863 8.82598 12.8611 9.16924 12 9.17188ZM12 4.17188C11.6539 4.17188 11.3155 4.27451 11.0278 4.4668C10.74 4.6591 10.5157 4.93241 10.3832 5.25218C10.2508 5.57195 10.2161 5.92382 10.2836 6.26328C10.3512 6.60275 10.5178 6.91457 10.7626 7.15931C11.0073 7.40406 11.3191 7.57073 11.6586 7.63825C11.9981 7.70577 12.3499 7.67112 12.6697 7.53867C12.9895 7.40621 13.2628 7.18191 13.4551 6.89412C13.6474 6.60634 13.75 6.26799 13.75 5.92188C13.7474 5.45856 13.5622 5.01496 13.2345 4.68734C12.9069 4.35972 12.4633 4.1745 12 4.17188Z" fill="#F5F5F5"/>
</svg>
