<svg width="16" height="19" viewBox="0 0 16 19" fill="none" xmlns="http://www.w3.org/2000/svg">
<path opacity="0.7" d="M13.8333 1.66667H10.35C10 0.7 9.08333 0 8 0C6.91667 0 6 0.7 5.65 1.66667H2.16667C1.25 1.66667 0.5 2.41667 0.5 3.33333V16.6667C0.5 17.5833 1.25 18.3333 2.16667 18.3333H13.8333C14.75 18.3333 15.5 17.5833 15.5 16.6667V3.33333C15.5 2.41667 14.75 1.66667 13.8333 1.66667ZM8 1.66667C8.45833 1.66667 8.83333 2.04167 8.83333 2.5C8.83333 2.95833 8.45833 3.33333 8 3.33333C7.54167 3.33333 7.16667 2.95833 7.16667 2.5C7.16667 2.04167 7.54167 1.66667 8 1.66667ZM13.8333 16.6667H2.16667V3.33333H3.83333V5.83333H12.1667V3.33333H13.8333V16.6667Z" fill="#4C4E64" fill-opacity="0.87"/>
</svg>
