<svg width="24" height="25" viewBox="0 0 24 25" fill="none" xmlns="http://www.w3.org/2000/svg">
<path d="M9 9.64188H4.07C3.76533 9.64188 3.46365 9.58187 3.18217 9.46528C2.9007 9.34868 2.64494 9.17779 2.42951 8.96236C1.99443 8.52728 1.75 7.93718 1.75 7.32188V4.49187C1.75 3.87657 1.99443 3.28647 2.42951 2.85139C2.8646 2.4163 3.4547 2.17188 4.07 2.17188H9C9.6153 2.17188 10.2054 2.4163 10.6405 2.85139C11.0756 3.28647 11.32 3.87657 11.32 4.49187V7.32188C11.32 7.93718 11.0756 8.52728 10.6405 8.96236C10.2054 9.39745 9.6153 9.64188 9 9.64188V9.64188ZM4.06 3.64188C3.84252 3.64188 3.63395 3.72827 3.48017 3.88205C3.32639 4.03583 3.24 4.2444 3.24 4.46187V7.32188C3.24 7.53935 3.32639 7.74792 3.48017 7.9017C3.63395 8.05548 3.84252 8.14187 4.06 8.14187H9C9.10768 8.14187 9.21431 8.12067 9.3138 8.07946C9.41329 8.03825 9.50368 7.97785 9.57983 7.9017C9.65597 7.82556 9.71637 7.73516 9.75758 7.63568C9.79879 7.53619 9.82 7.42956 9.82 7.32188V4.49187C9.82 4.38419 9.79879 4.27756 9.75758 4.17807C9.71637 4.07859 9.65597 3.98819 9.57983 3.91205C9.50368 3.8359 9.41329 3.7755 9.3138 3.73429C9.21431 3.69308 9.10768 3.67187 9 3.67188L4.06 3.64188ZM8.87 23.6419H4.2C3.55538 23.6419 2.93672 23.3879 2.47811 22.9349C2.0195 22.4819 1.75789 21.8664 1.75 21.2219V13.6219C1.75 12.9721 2.00812 12.3489 2.46759 11.8895C2.92705 11.43 3.55022 11.1719 4.2 11.1719H8.88C9.52978 11.1719 10.1529 11.43 10.6124 11.8895C11.0719 12.3489 11.33 12.9721 11.33 13.6219V21.2219C11.33 21.5436 11.2666 21.8622 11.1435 22.1594C11.0204 22.4567 10.8399 22.7268 10.6124 22.9543C10.3849 23.1818 10.1148 23.3623 9.81757 23.4854C9.52033 23.6085 9.20174 23.6719 8.88 23.6719L8.87 23.6419ZM4.19 12.6419C3.93322 12.6416 3.68616 12.74 3.5 12.9169C3.31384 13.0937 3.20284 13.3354 3.19 13.5919V21.1919C3.20284 21.4483 3.31384 21.69 3.5 21.8669C3.68616 22.0437 3.93322 22.1422 4.19 22.1419H8.88C9.12804 22.1298 9.3627 22.0258 9.5383 21.8502C9.7139 21.6746 9.81788 21.4399 9.83 21.1919V13.6219C9.81788 13.3738 9.7139 13.1392 9.5383 12.9636C9.3627 12.788 9.12804 12.684 8.88 12.6719L4.19 12.6419ZM19.8 14.6419H15.26C14.6129 14.6419 13.9922 14.3848 13.5347 13.9272C13.0771 13.4696 12.82 12.849 12.82 12.2019V4.61188C12.82 3.96475 13.0771 3.34412 13.5347 2.88653C13.9922 2.42895 14.6129 2.17188 15.26 2.17188H19.81C20.4571 2.17188 21.0778 2.42895 21.5353 2.88653C21.9929 3.34412 22.25 3.96475 22.25 4.61188V12.2319C22.25 12.879 21.9929 13.4996 21.5353 13.9572C21.0778 14.4148 20.4571 14.6719 19.81 14.6719L19.8 14.6419ZM15.25 3.64188C15.0007 3.64188 14.7616 3.74091 14.5853 3.91719C14.409 4.09348 14.31 4.33257 14.31 4.58188V12.2019C14.31 12.4512 14.409 12.6903 14.5853 12.8666C14.7616 13.0428 15.0007 13.1419 15.25 13.1419H19.8C19.9234 13.1419 20.0457 13.1176 20.1597 13.0703C20.2738 13.0231 20.3774 12.9538 20.4647 12.8666C20.552 12.7793 20.6212 12.6756 20.6684 12.5616C20.7157 12.4476 20.74 12.3253 20.74 12.2019V4.61188C20.74 4.48843 20.7157 4.3662 20.6684 4.25215C20.6212 4.13811 20.552 4.03448 20.4647 3.94719C20.3774 3.85991 20.2738 3.79067 20.1597 3.74343C20.0457 3.69619 19.9234 3.67188 19.8 3.67188L15.25 3.64188ZM19.93 23.6419H15.13C14.5164 23.6419 13.9278 23.3988 13.493 22.9659C13.0582 22.533 12.8126 21.9454 12.81 21.3319V18.4519C12.8126 17.8383 13.0582 17.2508 13.493 16.8178C13.9278 16.3849 14.5164 16.1419 15.13 16.1419H19.93C20.5418 16.1445 21.1279 16.3887 21.5605 16.8214C21.9931 17.254 22.2374 17.84 22.24 18.4519V21.3619C22.2374 21.972 21.9946 22.5565 21.5641 22.9889C21.1336 23.4212 20.5501 23.6666 19.94 23.6719L19.93 23.6419ZM15.13 17.6419C14.9142 17.6419 14.7072 17.7269 14.5537 17.8785C14.4002 18.0301 14.3126 18.2361 14.31 18.4519V21.3619C14.3126 21.5776 14.4002 21.7836 14.5537 21.9352C14.7072 22.0869 14.9142 22.1719 15.13 22.1719H19.93C20.1448 22.1719 20.3509 22.0865 20.5028 21.9346C20.6547 21.7827 20.74 21.5767 20.74 21.3619V18.4519C20.74 18.2371 20.6547 18.031 20.5028 17.8791C20.3509 17.7272 20.1448 17.6419 19.93 17.6419H15.13Z" fill="white"/>
</svg>
