<svg width="22" height="22" viewBox="0 0 22 22" fill="none" xmlns="http://www.w3.org/2000/svg">
<path d="M8 7.64188H3.07C2.76533 7.64188 2.46365 7.58187 2.18217 7.46528C1.9007 7.34868 1.64494 7.17779 1.42951 6.96236C0.994428 6.52728 0.75 5.93718 0.75 5.32188V2.49187C0.75 1.87657 0.994428 1.28647 1.42951 0.851387C1.8646 0.416303 2.4547 0.171875 3.07 0.171875H8C8.6153 0.171875 9.2054 0.416303 9.64049 0.851387C10.0756 1.28647 10.32 1.87657 10.32 2.49187V5.32188C10.32 5.93718 10.0756 6.52728 9.64049 6.96236C9.2054 7.39745 8.6153 7.64188 8 7.64188ZM3.06 1.64188C2.84252 1.64188 2.63395 1.72827 2.48017 1.88205C2.32639 2.03583 2.24 2.2444 2.24 2.46187V5.32188C2.24 5.53935 2.32639 5.74792 2.48017 5.9017C2.63395 6.05548 2.84252 6.14187 3.06 6.14187H8C8.10768 6.14187 8.21431 6.12067 8.3138 6.07946C8.41329 6.03825 8.50368 5.97785 8.57983 5.9017C8.65597 5.82556 8.71637 5.73516 8.75758 5.63568C8.79879 5.53619 8.82 5.42956 8.82 5.32188V2.49187C8.82 2.38419 8.79879 2.27756 8.75758 2.17807C8.71637 2.07859 8.65597 1.98819 8.57983 1.91205C8.50368 1.8359 8.41329 1.7755 8.3138 1.73429C8.21431 1.69308 8.10768 1.67188 8 1.67188L3.06 1.64188ZM7.87 21.6419H3.2C2.55538 21.6419 1.93672 21.3879 1.47811 20.9349C1.0195 20.4819 0.757893 19.8664 0.75 19.2219V11.6219C0.75 10.9721 1.00812 10.3489 1.46759 9.88946C1.92705 9.43 2.55022 9.17188 3.2 9.17188H7.88C8.52978 9.17188 9.15295 9.43 9.61241 9.88946C10.0719 10.3489 10.33 10.9721 10.33 11.6219V19.2219C10.33 19.5436 10.2666 19.8622 10.1435 20.1594C10.0204 20.4567 9.83992 20.7268 9.61241 20.9543C9.38491 21.1818 9.11482 21.3623 8.81757 21.4854C8.52033 21.6085 8.20174 21.6719 7.88 21.6719L7.87 21.6419ZM3.19 10.6419C2.93322 10.6416 2.68616 10.74 2.5 10.9169C2.31384 11.0937 2.20284 11.3354 2.19 11.5919V19.1919C2.20284 19.4483 2.31384 19.69 2.5 19.8669C2.68616 20.0437 2.93322 20.1422 3.19 20.1419H7.88C8.12804 20.1298 8.3627 20.0258 8.5383 19.8502C8.7139 19.6746 8.81788 19.4399 8.83 19.1919V11.6219C8.81788 11.3738 8.7139 11.1392 8.5383 10.9636C8.3627 10.788 8.12804 10.684 7.88 10.6719L3.19 10.6419ZM18.8 12.6419H14.26C13.6129 12.6419 12.9922 12.3848 12.5347 11.9272C12.0771 11.4696 11.82 10.849 11.82 10.2019V2.61188C11.82 1.96475 12.0771 1.34412 12.5347 0.886534C12.9922 0.428946 13.6129 0.171875 14.26 0.171875H18.81C19.4571 0.171875 20.0778 0.428946 20.5353 0.886534C20.9929 1.34412 21.25 1.96475 21.25 2.61188V10.2319C21.25 10.879 20.9929 11.4996 20.5353 11.9572C20.0778 12.4148 19.4571 12.6719 18.81 12.6719L18.8 12.6419ZM14.25 1.64188C14.0007 1.64188 13.7616 1.74091 13.5853 1.91719C13.409 2.09348 13.31 2.33257 13.31 2.58188V10.2019C13.31 10.4512 13.409 10.6903 13.5853 10.8666C13.7616 11.0428 14.0007 11.1419 14.25 11.1419H18.8C18.9234 11.1419 19.0457 11.1176 19.1597 11.0703C19.2738 11.0231 19.3774 10.9538 19.4647 10.8666C19.552 10.7793 19.6212 10.6756 19.6684 10.5616C19.7157 10.4476 19.74 10.3253 19.74 10.2019V2.61188C19.74 2.48843 19.7157 2.3662 19.6684 2.25215C19.6212 2.13811 19.552 2.03448 19.4647 1.94719C19.3774 1.85991 19.2738 1.79067 19.1597 1.74343C19.0457 1.69619 18.9234 1.67188 18.8 1.67188L14.25 1.64188ZM18.93 21.6419H14.13C13.5164 21.6419 12.9278 21.3988 12.493 20.9659C12.0582 20.533 11.8126 19.9454 11.81 19.3319V16.4519C11.8126 15.8383 12.0582 15.2508 12.493 14.8178C12.9278 14.3849 13.5164 14.1419 14.13 14.1419H18.93C19.5418 14.1445 20.1279 14.3887 20.5605 14.8214C20.9931 15.254 21.2374 15.84 21.24 16.4519V19.3619C21.2374 19.972 20.9946 20.5565 20.5641 20.9889C20.1336 21.4212 19.5501 21.6666 18.94 21.6719L18.93 21.6419ZM14.13 15.6419C13.9142 15.6419 13.7072 15.7269 13.5537 15.8785C13.4002 16.0301 13.3126 16.2361 13.31 16.4519V19.3619C13.3126 19.5776 13.4002 19.7836 13.5537 19.9352C13.7072 20.0869 13.9142 20.1719 14.13 20.1719H18.93C19.1448 20.1719 19.3509 20.0865 19.5028 19.9346C19.6547 19.7827 19.74 19.5767 19.74 19.3619V16.4519C19.74 16.2371 19.6547 16.031 19.5028 15.8791C19.3509 15.7272 19.1448 15.6419 18.93 15.6419H14.13Z" fill="white"/>
</svg>
