<svg width="20" height="20" viewBox="0 0 20 20" fill="none" xmlns="http://www.w3.org/2000/svg">
<path d="M15.8333 1.66667H13.0515C12.6304 1.66667 12.2694 1.39009 12.024 1.04801C11.5701 0.415358 10.8345 0 10 0C9.1655 0 8.4299 0.415358 7.97603 1.04801C7.73061 1.39009 7.36955 1.66667 6.94854 1.66667H4.16667C3.25 1.66667 2.5 2.41667 2.5 3.33333V16.6667C2.5 17.5833 3.25 18.3333 4.16667 18.3333H15.8333C16.75 18.3333 17.5 17.5833 17.5 16.6667V3.33333C17.5 2.41667 16.75 1.66667 15.8333 1.66667ZM10 1.66667C10.4583 1.66667 10.8333 2.04167 10.8333 2.5C10.8333 2.95833 10.4583 3.33333 10 3.33333C9.54167 3.33333 9.16667 2.95833 9.16667 2.5C9.16667 2.04167 9.54167 1.66667 10 1.66667ZM15.8333 15.6667C15.8333 16.219 15.3856 16.6667 14.8333 16.6667H5.16667C4.61438 16.6667 4.16667 16.219 4.16667 15.6667V4.16667C4.16667 3.70643 4.53976 3.33333 5 3.33333V3.33333C5.46024 3.33333 5.83333 3.70643 5.83333 4.16667V4.83333C5.83333 5.38562 6.28105 5.83333 6.83333 5.83333H13.1667C13.719 5.83333 14.1667 5.38562 14.1667 4.83333V4.16667C14.1667 3.70643 14.5398 3.33333 15 3.33333V3.33333C15.4602 3.33333 15.8333 3.70643 15.8333 4.16667V15.6667Z" fill="#4C4E64" fill-opacity="0.87"/>
</svg>
