<svg width="20" height="20" viewBox="0 0 20 20" fill="none" xmlns="http://www.w3.org/2000/svg">
<path d="M15.0923 18.067H4.90895C3.85087 18.0321 2.84974 17.5793 2.12495 16.8076C1.40016 16.036 1.01084 15.0085 1.04229 13.9503V10.2503C1.0211 9.72247 1.10447 9.19566 1.28758 8.70015C1.47069 8.20464 1.74994 7.75022 2.10928 7.36301C2.46861 6.97579 2.90094 6.66343 3.38141 6.44387C3.86188 6.22431 4.38101 6.10188 4.90895 6.08364C5.0777 6.08362 5.23966 6.15008 5.35976 6.26862C5.47986 6.38716 5.54843 6.54824 5.55062 6.71697C5.54846 6.88648 5.48016 7.04844 5.36029 7.16831C5.24042 7.28818 5.07846 7.35648 4.90895 7.35864C4.54764 7.37565 4.1933 7.46421 3.86647 7.61918C3.53964 7.77415 3.24682 7.99244 3.00498 8.26141C2.76313 8.53039 2.57708 8.84468 2.4576 9.18609C2.33813 9.5275 2.2876 9.88923 2.30895 10.2503V13.9503C2.27948 14.6721 2.53604 15.3763 3.02289 15.91C3.50973 16.4436 4.18752 16.7636 4.90895 16.8003H15.0923C15.8137 16.7636 16.4915 16.4436 16.9784 15.91C17.4652 15.3763 17.7218 14.6721 17.6923 13.9503V10.2503C17.724 9.52797 17.4682 8.8225 16.9809 8.28835C16.4936 7.7542 15.8145 7.43488 15.0923 7.40031C14.9228 7.39815 14.7608 7.32985 14.6409 7.20998C14.5211 7.09011 14.4528 6.92815 14.4506 6.75864C14.4528 6.58991 14.5214 6.42883 14.6415 6.31029C14.7616 6.19175 14.9235 6.12529 15.0923 6.12531C15.6202 6.14355 16.1394 6.26597 16.6198 6.48553C17.1003 6.70509 17.5326 7.01746 17.892 7.40467C18.2513 7.79189 18.5305 8.24631 18.7137 8.74182C18.8968 9.23732 18.9801 9.76414 18.959 10.292V13.992C18.9792 15.043 18.5849 16.0599 17.8613 16.8225C17.1377 17.585 16.143 18.0321 15.0923 18.067V18.067ZM10.0006 13.117C10.1686 13.117 10.3297 13.0502 10.4485 12.9315C10.5672 12.8127 10.634 12.6516 10.634 12.4836V4.10031L12.0256 5.49197C12.0845 5.55143 12.1546 5.59864 12.2318 5.63085C12.3091 5.66306 12.3919 5.67965 12.4756 5.67965C12.5593 5.67965 12.6422 5.66306 12.7194 5.63085C12.7966 5.59864 12.8667 5.55143 12.9256 5.49197C13.0437 5.37195 13.1099 5.21033 13.1099 5.04197C13.1099 4.87361 13.0437 4.71199 12.9256 4.59197L10.4256 2.09197C10.3667 2.03251 10.2966 1.98531 10.2194 1.9531C10.1422 1.92088 10.0593 1.9043 9.97562 1.9043C9.89193 1.9043 9.80907 1.92088 9.73184 1.9531C9.6546 1.98531 9.58451 2.03251 9.52562 2.09197L7.02562 4.59197C6.90627 4.71795 6.84186 4.88618 6.84655 5.05965C6.85123 5.23312 6.92464 5.39762 7.05062 5.51697C7.1766 5.63632 7.34483 5.70073 7.5183 5.69605C7.69177 5.69136 7.85627 5.61795 7.97562 5.49197L9.36729 4.10031V12.5003C9.37163 12.6654 9.44027 12.8222 9.55858 12.9374C9.67688 13.0526 9.8355 13.117 10.0006 13.117V13.117Z" fill="#5E6278"/>
</svg>
