<svg width="43" height="43" viewBox="0 0 43 43" fill="none" xmlns="http://www.w3.org/2000/svg">
<g clip-path="url(#clip0_1700_34206)">
<path fill-rule="evenodd" clip-rule="evenodd" d="M27.4724 11.6496C25.7045 10.4684 23.6261 9.83789 21.5 9.83789V-0.912109C25.7523 -0.912109 29.9091 0.348844 33.4448 2.7113C36.9804 5.07374 39.7361 8.43159 41.3634 12.3602C42.9907 16.2888 43.4165 20.6118 42.5869 24.7823C41.7573 28.9529 39.7096 32.7839 36.7028 35.7906C33.696 38.7975 29.865 40.8452 25.6944 41.6748C21.5239 42.5043 17.2009 42.0785 13.2723 40.4513C9.34369 38.824 5.98585 36.0683 3.62341 32.5326C1.26095 28.997 0 24.8402 0 20.5879H10.75C10.75 22.714 11.3805 24.7924 12.5617 26.5603C13.7429 28.3281 15.4218 29.7059 17.3862 30.5196C19.3504 31.3333 21.5119 31.5461 23.5972 31.1313C25.6825 30.7165 27.5979 29.6927 29.1014 28.1893C30.6048 26.6858 31.6287 24.7704 32.0434 22.6851C32.4582 20.5998 32.2454 18.4383 31.4317 16.4741C30.618 14.5097 29.2402 12.8308 27.4724 11.6496Z" fill="url(#paint0_linear_1700_34206)"/>
<path fill-rule="evenodd" clip-rule="evenodd" d="M10.75 -0.912104C10.75 0.499606 10.4719 1.89749 9.9317 3.20175C9.39146 4.50599 8.59963 5.69106 7.60139 6.6893C6.60317 7.68753 5.4181 8.47936 4.11385 9.01961C2.80959 9.55984 1.41171 9.8379 4.69894e-07 9.8379L0 20.5879C2.82342 20.5879 5.61919 20.0318 8.2277 18.9513C10.8362 17.8708 13.2064 16.2871 15.2028 14.2907C17.1992 12.2943 18.7829 9.92411 19.8634 7.31559C20.9439 4.70708 21.5 1.91131 21.5 -0.912109L10.75 -0.912104Z" fill="url(#paint1_linear_1700_34206)"/>
</g>
<defs>
<linearGradient id="paint0_linear_1700_34206" x1="0" y1="-0.912109" x2="43" y2="42.0879" gradientUnits="userSpaceOnUse">
<stop stop-color="white"/>
<stop offset="1" stop-color="#8A8A8A"/>
</linearGradient>
<linearGradient id="paint1_linear_1700_34206" x1="0" y1="-0.912109" x2="43" y2="42.0879" gradientUnits="userSpaceOnUse">
<stop stop-color="white"/>
<stop offset="1" stop-color="#8A8A8A"/>
</linearGradient>
<clipPath id="clip0_1700_34206">
<rect width="43" height="42.9211" fill="white"/>
</clipPath>
</defs>
</svg>
