<svg width="24" height="24" viewBox="0 0 24 24" fill="none" xmlns="http://www.w3.org/2000/svg">
<path d="M11.3295 22.7502H6.88945C5.61865 22.788 4.38457 22.3211 3.457 21.4516C2.52943 20.5821 1.98383 19.3808 1.93945 18.1102V5.89017C1.98383 4.61958 2.52943 3.41823 3.457 2.54875C4.38457 1.67928 5.61865 1.21239 6.88945 1.25017H11.3295C12.5993 1.21243 13.8323 1.67963 14.7583 2.54937C15.6842 3.41911 16.2277 4.62047 16.2695 5.89017C16.2695 6.09174 16.1894 6.28505 16.0469 6.42757C15.9043 6.5701 15.711 6.65017 15.5095 6.65017C15.3079 6.65017 15.1146 6.5701 14.9721 6.42757C14.8295 6.28505 14.7495 6.09174 14.7495 5.89017C14.7054 5.02446 14.3214 4.21111 13.681 3.62689C13.0407 3.04268 12.1956 2.7348 11.3295 2.77017H6.88945C6.02265 2.73215 5.17609 3.03911 4.53511 3.62387C3.89412 4.20862 3.51094 5.02353 3.46945 5.89017V18.1102C3.51094 18.9768 3.89412 19.7917 4.53511 20.3765C5.17609 20.9612 6.02265 21.2682 6.88945 21.2302H11.3295C12.1956 21.2655 13.0407 20.9577 13.681 20.3735C14.3214 19.7892 14.7054 18.9759 14.7495 18.1102C14.7495 17.9086 14.8295 17.7153 14.9721 17.5728C15.1146 17.4302 15.3079 17.3502 15.5095 17.3502C15.711 17.3502 15.9043 17.4302 16.0469 17.5728C16.1894 17.7153 16.2695 17.9086 16.2695 18.1102C16.2277 19.3799 15.6842 20.5812 14.7583 21.451C13.8323 22.3207 12.5993 22.7879 11.3295 22.7502ZM7.87945 12.0002C7.87945 12.1 7.89911 12.1988 7.9373 12.291C7.9755 12.3832 8.03148 12.467 8.10205 12.5376C8.17262 12.6081 8.25641 12.6641 8.34861 12.7023C8.44082 12.7405 8.53965 12.7602 8.63945 12.7602H18.7095L16.9995 14.4302C16.9281 14.5008 16.8715 14.5849 16.8328 14.6776C16.7941 14.7703 16.7742 14.8697 16.7742 14.9702C16.7742 15.0706 16.7941 15.17 16.8328 15.2627C16.8715 15.3554 16.9281 15.4395 16.9995 15.5102C17.0702 15.581 17.1545 15.637 17.2472 15.6748C17.3399 15.7126 17.4393 15.7314 17.5395 15.7302C17.6381 15.7312 17.7359 15.7122 17.827 15.6744C17.9181 15.6366 18.0006 15.5807 18.0695 15.5102L21.0695 12.5102C21.1408 12.4395 21.1974 12.3554 21.2361 12.2627C21.2748 12.17 21.2947 12.0706 21.2947 11.9702C21.2947 11.8697 21.2748 11.7703 21.2361 11.6776C21.1974 11.5849 21.1408 11.5008 21.0695 11.4302L18.0695 8.43017C17.9996 8.35912 17.9164 8.30268 17.8245 8.26416C17.7327 8.22563 17.6341 8.20579 17.5345 8.20579C17.4348 8.20579 17.3362 8.22563 17.2444 8.26416C17.1525 8.30268 17.0693 8.35912 16.9995 8.43017C16.9281 8.50084 16.8715 8.58495 16.8328 8.67763C16.7941 8.77032 16.7742 8.86975 16.7742 8.97017C16.7742 9.0706 16.7941 9.17003 16.8328 9.26271C16.8715 9.3554 16.9281 9.43951 16.9995 9.51017L18.6695 11.1802H8.63945C8.53439 11.1798 8.43041 11.2013 8.33406 11.2432C8.23771 11.2851 8.15109 11.3465 8.07967 11.4235C8.00826 11.5006 7.95359 11.5916 7.91913 11.6909C7.88467 11.7901 7.87116 11.8954 7.87945 12.0002Z" fill="#F5F5F5"/>
</svg>
