<svg width="24" height="25" viewBox="0 0 24 25" fill="none" xmlns="http://www.w3.org/2000/svg">
<path d="M19 4.42188C19.2967 4.42188 19.5867 4.50985 19.8334 4.67467C20.08 4.83949 20.2723 5.07376 20.3858 5.34785C20.4994 5.62194 20.5291 5.92354 20.4712 6.21451C20.4133 6.50548 20.2704 6.77276 20.0607 6.98254C19.8509 7.19231 19.5836 7.33518 19.2926 7.39305C19.0017 7.45093 18.7001 7.42123 18.426 7.30769C18.1519 7.19416 17.9176 7.0019 17.7528 6.75523C17.588 6.50856 17.5 6.21855 17.5 5.92188C17.5 5.52405 17.658 5.14252 17.9393 4.86121C18.2206 4.57991 18.6022 4.42188 19 4.42188ZM19 2.92188C18.4067 2.92188 17.8266 3.09782 17.3333 3.42747C16.8399 3.75711 16.4554 4.22565 16.2284 4.77382C16.0013 5.322 15.9419 5.9252 16.0576 6.50715C16.1734 7.08909 16.4591 7.62364 16.8787 8.0432C17.2982 8.46275 17.8328 8.74848 18.4147 8.86423C18.9967 8.97999 19.5999 8.92058 20.1481 8.69351C20.6962 8.46645 21.1648 8.08193 21.4944 7.58859C21.8241 7.09524 22 6.51522 22 5.92188C22 5.12623 21.6839 4.36316 21.1213 3.80055C20.5587 3.23795 19.7957 2.92188 19 2.92188Z" fill="#F5F5F5"/>
<path d="M16 23.6719H7C5.47905 23.6588 4.02408 23.0488 2.94857 21.9733C1.87305 20.8978 1.26306 19.4428 1.25 17.9219V8.92188C1.26306 7.40092 1.87305 5.94596 2.94857 4.87044C4.02408 3.79492 5.47905 3.18493 7 3.17188H13.39C13.5889 3.17188 13.7797 3.25089 13.9203 3.39154C14.061 3.5322 14.14 3.72296 14.14 3.92188C14.14 4.12079 14.061 4.31155 13.9203 4.45221C13.7797 4.59286 13.5889 4.67188 13.39 4.67188H7C5.87686 4.68486 4.80339 5.1368 4.00915 5.93103C3.21492 6.72526 2.76299 7.79874 2.75 8.92188V17.9219C2.76299 19.045 3.21492 20.1185 4.00915 20.9127C4.80339 21.707 5.87686 22.1589 7 22.1719H16C17.1231 22.1589 18.1966 21.707 18.9908 20.9127C19.7851 20.1185 20.237 19.045 20.25 17.9219V11.9219C20.25 11.723 20.329 11.5322 20.4697 11.3915C20.6103 11.2509 20.8011 11.1719 21 11.1719C21.1989 11.1719 21.3897 11.2509 21.5303 11.3915C21.671 11.5322 21.75 11.723 21.75 11.9219V17.9219C21.7369 19.4428 21.127 20.8978 20.0514 21.9733C18.9759 23.0488 17.521 23.6588 16 23.6719Z" fill="white"/>
<path d="M11.5005 14.9219H6.81055C6.61163 14.9219 6.42087 14.8429 6.28022 14.7022C6.13956 14.5616 6.06055 14.3708 6.06055 14.1719C6.06055 13.973 6.13956 13.7822 6.28022 13.6415C6.42087 13.5009 6.61163 13.4219 6.81055 13.4219H11.5005C11.6995 13.4219 11.8902 13.5009 12.0309 13.6415C12.1715 13.7822 12.2505 13.973 12.2505 14.1719C12.2505 14.3708 12.1715 14.5616 12.0309 14.7022C11.8902 14.8429 11.6995 14.9219 11.5005 14.9219Z" fill="white"/>
<path d="M15.5005 18.9219H6.81055C6.61163 18.9219 6.42087 18.8429 6.28022 18.7022C6.13956 18.5616 6.06055 18.3708 6.06055 18.1719C6.06055 17.973 6.13956 17.7822 6.28022 17.6415C6.42087 17.5009 6.61163 17.4219 6.81055 17.4219H15.5005C15.6995 17.4219 15.8902 17.5009 16.0309 17.6415C16.1715 17.7822 16.2505 17.973 16.2505 18.1719C16.2505 18.3708 16.1715 18.5616 16.0309 18.7022C15.8902 18.8429 15.6995 18.9219 15.5005 18.9219Z" fill="#F5F5F5"/>
</svg>
