<svg width="21" height="22" viewBox="0 0 21 22" fill="none" xmlns="http://www.w3.org/2000/svg">
<path d="M18 2.42188C18.2967 2.42188 18.5867 2.50985 18.8334 2.67467C19.08 2.83949 19.2723 3.07376 19.3858 3.34785C19.4994 3.62194 19.5291 3.92354 19.4712 4.21451C19.4133 4.50548 19.2704 4.77276 19.0607 4.98254C18.8509 5.19231 18.5836 5.33518 18.2926 5.39305C18.0017 5.45093 17.7001 5.42123 17.426 5.30769C17.1519 5.19416 16.9176 5.0019 16.7528 4.75523C16.588 4.50856 16.5 4.21855 16.5 3.92188C16.5 3.52405 16.658 3.14252 16.9393 2.86121C17.2206 2.57991 17.6022 2.42188 18 2.42188ZM18 0.921875C17.4067 0.921875 16.8266 1.09782 16.3333 1.42747C15.8399 1.75711 15.4554 2.22565 15.2284 2.77382C15.0013 3.322 14.9419 3.9252 15.0576 4.50715C15.1734 5.08909 15.4591 5.62364 15.8787 6.0432C16.2982 6.46275 16.8328 6.74848 17.4147 6.86423C17.9967 6.97999 18.5999 6.92058 19.1481 6.69351C19.6962 6.46645 20.1648 6.08193 20.4944 5.58859C20.8241 5.09524 21 4.51522 21 3.92188C21 3.12623 20.6839 2.36316 20.1213 1.80055C19.5587 1.23795 18.7957 0.921875 18 0.921875Z" fill="#F5F5F5"/>
<path d="M15 21.6719H6C4.47905 21.6588 3.02408 21.0488 1.94857 19.9733C0.87305 18.8978 0.263056 17.4428 0.25 15.9219V6.92188C0.263056 5.40092 0.87305 3.94596 1.94857 2.87044C3.02408 1.79492 4.47905 1.18493 6 1.17188H12.39C12.5889 1.17188 12.7797 1.25089 12.9203 1.39154C13.061 1.5322 13.14 1.72296 13.14 1.92188C13.14 2.12079 13.061 2.31155 12.9203 2.45221C12.7797 2.59286 12.5889 2.67188 12.39 2.67188H6C4.87686 2.68486 3.80339 3.1368 3.00915 3.93103C2.21492 4.72526 1.76299 5.79874 1.75 6.92188V15.9219C1.76299 17.045 2.21492 18.1185 3.00915 18.9127C3.80339 19.707 4.87686 20.1589 6 20.1719H15C16.1231 20.1589 17.1966 19.707 17.9908 18.9127C18.7851 18.1185 19.237 17.045 19.25 15.9219V9.92188C19.25 9.72296 19.329 9.5322 19.4697 9.39155C19.6103 9.25089 19.8011 9.17188 20 9.17188C20.1989 9.17188 20.3897 9.25089 20.5303 9.39155C20.671 9.5322 20.75 9.72296 20.75 9.92188V15.9219C20.7369 17.4428 20.127 18.8978 19.0514 19.9733C17.9759 21.0488 16.521 21.6588 15 21.6719Z" fill="white"/>
<path d="M10.5005 12.9219H5.81055C5.61163 12.9219 5.42087 12.8429 5.28022 12.7022C5.13956 12.5616 5.06055 12.3708 5.06055 12.1719C5.06055 11.973 5.13956 11.7822 5.28022 11.6415C5.42087 11.5009 5.61163 11.4219 5.81055 11.4219H10.5005C10.6995 11.4219 10.8902 11.5009 11.0309 11.6415C11.1715 11.7822 11.2505 11.973 11.2505 12.1719C11.2505 12.3708 11.1715 12.5616 11.0309 12.7022C10.8902 12.8429 10.6995 12.9219 10.5005 12.9219Z" fill="white"/>
<path d="M14.5005 16.9219H5.81055C5.61163 16.9219 5.42087 16.8429 5.28022 16.7022C5.13956 16.5616 5.06055 16.3708 5.06055 16.1719C5.06055 15.973 5.13956 15.7822 5.28022 15.6415C5.42087 15.5009 5.61163 15.4219 5.81055 15.4219H14.5005C14.6995 15.4219 14.8902 15.5009 15.0309 15.6415C15.1715 15.7822 15.2505 15.973 15.2505 16.1719C15.2505 16.3708 15.1715 16.5616 15.0309 16.7022C14.8902 16.8429 14.6995 16.9219 14.5005 16.9219Z" fill="#F5F5F5"/>
</svg>
