<svg width="24" height="25" viewBox="0 0 24 25" fill="none" xmlns="http://www.w3.org/2000/svg">
<path d="M8.39 14.4619H3.32C2.771 14.4619 2.24449 14.68 1.85629 15.0682C1.46809 15.4564 1.25 15.9829 1.25 16.5319V21.6019C1.25 22.1509 1.46809 22.6774 1.85629 23.0656C2.24449 23.4538 2.771 23.6719 3.32 23.6719H8.39C8.66184 23.6719 8.93101 23.6184 9.18215 23.5143C9.4333 23.4103 9.66149 23.2578 9.85371 23.0656C10.0459 22.8734 10.1984 22.6452 10.3024 22.3941C10.4065 22.1429 10.46 21.8737 10.46 21.6019V16.5319C10.4613 16.2597 10.4087 15.9899 10.3051 15.7382C10.2016 15.4864 10.0491 15.2577 9.85666 15.0652C9.66418 14.8728 9.43546 14.7203 9.18372 14.6168C8.93198 14.5132 8.66221 14.4606 8.39 14.4619ZM9 21.6019C9 21.7531 8.93995 21.8981 8.83305 22.0049C8.72615 22.1118 8.58117 22.1719 8.43 22.1719H3.32C3.16963 22.1693 3.02614 22.1084 2.91979 22.0021C2.81345 21.8958 2.75257 21.7523 2.75 21.6019V16.5319C2.7445 16.4537 2.75517 16.3753 2.78135 16.3015C2.80752 16.2276 2.84863 16.16 2.90212 16.1027C2.95561 16.0455 3.02032 15.9999 3.09222 15.9688C3.16412 15.9377 3.24166 15.9217 3.32 15.9219H4.32V16.4619C4.32 16.7271 4.42536 16.9815 4.61289 17.169C4.80043 17.3565 5.05478 17.4619 5.32 17.4619H6.32C6.58522 17.4619 6.83957 17.3565 7.02711 17.169C7.21464 16.9815 7.32 16.7271 7.32 16.4619V15.9219H8.32C8.39523 15.9205 8.46995 15.9344 8.53972 15.9625C8.60949 15.9907 8.67287 16.0326 8.72607 16.0858C8.77927 16.139 8.82121 16.2024 8.84937 16.2722C8.87754 16.3419 8.89136 16.4167 8.89 16.4919L9 21.6019ZM20.72 14.4619H15.61C15.3378 14.4606 15.068 14.5132 14.8163 14.6168C14.5645 14.7203 14.3358 14.8728 14.1433 15.0652C13.9509 15.2577 13.7984 15.4864 13.6949 15.7382C13.5913 15.9899 13.5387 16.2597 13.54 16.5319V21.6019C13.54 22.1509 13.7581 22.6774 14.1463 23.0656C14.5345 23.4538 15.061 23.6719 15.61 23.6719H20.68C21.229 23.6719 21.7555 23.4538 22.1437 23.0656C22.5319 22.6774 22.75 22.1509 22.75 21.6019V16.5319C22.75 15.9829 22.5319 15.4564 22.1437 15.0682C21.7555 14.68 21.229 14.4619 20.68 14.4619H20.72ZM21.29 21.6019C21.2874 21.7523 21.2266 21.8958 21.1202 22.0021C21.0139 22.1084 20.8704 22.1693 20.72 22.1719H15.61C15.4588 22.1719 15.3138 22.1118 15.2069 22.0049C15.1001 21.8981 15.04 21.7531 15.04 21.6019V16.5319C15.0386 16.4567 15.0525 16.3819 15.0806 16.3122C15.1088 16.2424 15.1507 16.179 15.2039 16.1258C15.2571 16.0726 15.3205 16.0307 15.3903 16.0025C15.46 15.9744 15.5348 15.9605 15.61 15.9619H16.61V16.5019C16.61 16.7671 16.7154 17.0215 16.9029 17.209C17.0904 17.3965 17.3448 17.5019 17.61 17.5019H18.61C18.8752 17.5019 19.1296 17.3965 19.3171 17.209C19.5046 17.0215 19.61 16.7671 19.61 16.5019V15.9219H20.61C20.7612 15.9219 20.9062 15.982 21.0131 16.0888C21.1199 16.1957 21.18 16.3407 21.18 16.4919L21.29 21.6019ZM8.39 2.1719H3.39C3.10944 2.17058 2.83139 2.2247 2.57181 2.33116C2.31223 2.43761 2.07624 2.59429 1.87739 2.79221C1.67854 2.99013 1.52076 3.22539 1.41309 3.48447C1.30542 3.74354 1.25 4.02134 1.25 4.3019V9.3019C1.25 9.8509 1.46809 10.3774 1.85629 10.7656C2.24449 11.1538 2.771 11.3719 3.32 11.3719H8.39C8.66221 11.3732 8.93198 11.3206 9.18372 11.217C9.43546 11.1135 9.66418 10.961 9.85666 10.7686C10.0491 10.5761 10.2016 10.3474 10.3051 10.0956C10.4087 9.84388 10.4613 9.57411 10.46 9.3019V4.2419C10.46 3.97006 10.4065 3.70089 10.3024 3.44974C10.1984 3.1986 10.0459 2.9704 9.85371 2.77819C9.66149 2.58597 9.4333 2.4335 9.18215 2.32947C8.93101 2.22544 8.66184 2.1719 8.39 2.1719ZM9 9.3119C9.00772 9.39393 8.99724 9.47665 8.96932 9.55417C8.94139 9.63168 8.8967 9.70208 8.83844 9.76034C8.78018 9.8186 8.70978 9.86329 8.63227 9.89121C8.55475 9.91914 8.47203 9.92962 8.39 9.9219H3.32C3.16883 9.9219 3.02384 9.86185 2.91695 9.75495C2.81005 9.64805 2.75 9.50307 2.75 9.3519V4.3519C2.75 4.18481 2.81637 4.02457 2.93452 3.90642C3.05267 3.78827 3.21291 3.7219 3.38 3.7219H4.32V4.2219C4.32 4.48711 4.42536 4.74147 4.61289 4.92901C4.80043 5.11654 5.05478 5.2219 5.32 5.2219H6.32C6.58522 5.2219 6.83957 5.11654 7.02711 4.92901C7.21464 4.74147 7.32 4.48711 7.32 4.2219V3.6719H8.32C8.40349 3.65546 8.4896 3.65793 8.57202 3.67911C8.65443 3.7003 8.73106 3.73967 8.79627 3.79433C8.86148 3.849 8.91363 3.91757 8.94888 3.99502C8.98414 4.07246 9.0016 4.15682 9 4.2419V9.3119ZM20.68 2.1719H15.61C15.061 2.1719 14.5345 2.38999 14.1463 2.77819C13.7581 3.16639 13.54 3.6929 13.54 4.2419V9.3119C13.5387 9.58411 13.5913 9.85388 13.6949 10.1056C13.7984 10.3574 13.9509 10.5861 14.1433 10.7786C14.3358 10.971 14.5645 11.1235 14.8163 11.227C15.068 11.3306 15.3378 11.3832 15.61 11.3819H20.68C20.9518 11.3819 21.221 11.3284 21.4722 11.2243C21.7233 11.1203 21.9515 10.9678 22.1437 10.7756C22.3359 10.5834 22.4884 10.3552 22.5924 10.1041C22.6965 9.85291 22.75 9.58373 22.75 9.3119V4.2419C22.75 3.6929 22.5319 3.16639 22.1437 2.77819C21.7555 2.38999 21.229 2.1719 20.68 2.1719ZM21.25 9.3119C21.25 9.46307 21.1899 9.60805 21.0831 9.71495C20.9762 9.82185 20.8312 9.8819 20.68 9.8819H15.61C15.5315 9.88895 15.4524 9.87936 15.3779 9.85376C15.3034 9.82816 15.2351 9.78711 15.1775 9.73331C15.12 9.67952 15.0744 9.61417 15.0438 9.54155C15.0132 9.46894 14.9983 9.39068 15 9.3119V4.2419C15 4.09072 15.0601 3.94574 15.1669 3.83885C15.2738 3.73195 15.4188 3.6719 15.57 3.6719H16.57V4.2219C16.57 4.48711 16.6754 4.74147 16.8629 4.92901C17.0504 5.11654 17.3048 5.2219 17.57 5.2219H18.57C18.8352 5.2219 19.0896 5.11654 19.2771 4.92901C19.4646 4.74147 19.57 4.48711 19.57 4.2219V3.6719H20.57C20.7204 3.67447 20.8639 3.73535 20.9702 3.84169C21.0766 3.94804 21.1374 4.09153 21.14 4.2419L21.25 9.3119Z" fill="#F5F5F5"/>
</svg>
