<svg width="24" height="25" viewBox="0 0 24 25" fill="none" xmlns="http://www.w3.org/2000/svg">
<path d="M12.1791 16.4127C11.4375 16.4127 10.7124 16.1927 10.0958 15.7807C9.47907 15.3686 8.99842 14.783 8.71459 14.0977C8.43076 13.4125 8.3565 12.6585 8.5012 11.9311C8.64589 11.2037 9.00304 10.5355 9.52749 10.011C10.0519 9.48658 10.7201 9.12943 11.4476 8.98474C12.175 8.84004 12.929 8.9143 13.6142 9.19813C14.2994 9.48196 14.8851 9.96261 15.2972 10.5793C15.7092 11.196 15.9291 11.921 15.9291 12.6627C15.9291 13.1551 15.8321 13.6428 15.6437 14.0977C15.4552 14.5527 15.179 14.9661 14.8308 15.3143C14.4826 15.6626 14.0692 15.9388 13.6142 16.1272C13.1592 16.3157 12.6716 16.4127 12.1791 16.4127ZM12.1791 10.2827C11.7084 10.2827 11.2483 10.4223 10.8569 10.6838C10.4655 10.9453 10.1604 11.317 9.98031 11.7519C9.80017 12.1868 9.75304 12.6653 9.84487 13.127C9.9367 13.5887 10.1634 14.0127 10.4962 14.3456C10.8291 14.6784 11.2532 14.9051 11.7148 14.997C12.1765 15.0888 12.655 15.0417 13.0899 14.8615C13.5248 14.6814 13.8965 14.3763 14.158 13.9849C14.4196 13.5935 14.5591 13.1334 14.5591 12.6627C14.5591 12.0315 14.3084 11.4261 13.8621 10.9798C13.4157 10.5334 12.8104 10.2827 12.1791 10.2827ZM12.1791 23.7127C9.56914 23.7127 7.51914 22.3027 7.51914 20.5027C7.51914 18.7027 9.56914 17.2927 12.1791 17.2927C14.7891 17.2927 16.8391 18.7027 16.8391 20.5027C16.8391 22.3027 14.7891 23.7127 12.1791 23.7127ZM12.1791 18.7127C10.2691 18.7127 8.93914 19.6527 8.93914 20.5027C8.93914 21.3527 10.2691 22.2927 12.1791 22.2927C14.0891 22.2927 15.4191 21.3427 15.4191 20.5027C15.4191 19.6627 14.0891 18.7127 12.1791 18.7127ZM17.1791 8.91268C16.51 8.90676 15.8575 8.70292 15.304 8.32684C14.7505 7.95076 14.3206 7.41927 14.0687 6.79933C13.8167 6.17939 13.7538 5.49873 13.888 4.84313C14.0222 4.18752 14.3474 3.58629 14.8226 3.11519C15.2979 2.64408 15.902 2.32418 16.5587 2.19579C17.2155 2.0674 17.8956 2.13626 18.5133 2.3937C19.131 2.65114 19.6586 3.08564 20.0298 3.64245C20.401 4.19927 20.5991 4.85349 20.5991 5.52268C20.6005 5.9687 20.5137 6.4106 20.344 6.82305C20.1742 7.2355 19.9247 7.61039 19.6098 7.92624C19.2949 8.24209 18.9207 8.49269 18.5088 8.66368C18.0968 8.83467 17.6552 8.92268 17.2091 8.92268L17.1791 8.91268ZM17.1791 3.55268C16.7836 3.55268 16.3969 3.66998 16.068 3.88974C15.7391 4.1095 15.4828 4.42186 15.3314 4.78731C15.18 5.15277 15.1404 5.5549 15.2176 5.94286C15.2947 6.33082 15.4852 6.68719 15.7649 6.9669C16.0446 7.2466 16.401 7.43708 16.789 7.51425C17.1769 7.59142 17.5791 7.55182 17.9445 7.40044C18.31 7.24906 18.6223 6.99272 18.8421 6.66382C19.0618 6.33492 19.1791 5.94824 19.1791 5.55268C19.1792 5.02741 18.9726 4.52319 18.604 4.14897C18.2354 3.77475 17.7344 3.56056 17.2091 3.55268H17.1791ZM7.11914 8.92268C6.44909 8.92268 5.79406 8.72411 5.2368 8.35205C4.67954 7.97999 4.24503 7.45114 3.98816 6.83228C3.73128 6.21342 3.66357 5.53232 3.79357 4.87499C3.92356 4.21767 4.24544 3.61362 4.71854 3.13912C5.19164 2.66463 5.79474 2.34097 6.45168 2.20904C7.10861 2.07711 7.78991 2.14282 8.40952 2.39787C9.02914 2.65292 9.55927 3.08587 9.93297 3.64203C10.3067 4.1982 10.5072 4.85263 10.5091 5.52268C10.5105 5.9687 10.4237 6.4106 10.254 6.82305C10.0842 7.2355 9.8347 7.61039 9.51978 7.92624C9.20485 8.24209 8.8307 8.49269 8.41875 8.66368C8.0068 8.83467 7.56516 8.92268 7.11914 8.92268ZM7.11914 3.56268C6.72358 3.56268 6.3369 3.67998 6.008 3.89974C5.6791 4.1195 5.42276 4.43186 5.27138 4.79731C5.12001 5.16277 5.0804 5.5649 5.15757 5.95286C5.23474 6.34082 5.42522 6.69719 5.70493 6.97689C5.98463 7.2566 6.341 7.44708 6.72896 7.52425C7.11692 7.60142 7.51906 7.56182 7.88451 7.41044C8.24996 7.25907 8.56232 7.00272 8.78208 6.67382C9.00184 6.34492 9.11914 5.95824 9.11914 5.56268C9.12046 5.2992 9.0697 5.03805 8.96978 4.79424C8.86986 4.55044 8.72275 4.32878 8.5369 4.142C8.35105 3.95522 8.13013 3.80701 7.88682 3.70587C7.64352 3.60474 7.38263 3.55268 7.11914 3.55268V3.56268ZM22.1191 12.8627C22.1191 11.0127 19.8891 9.56268 17.0491 9.56268C16.9481 9.55072 16.8458 9.56028 16.7487 9.59075C16.6517 9.62122 16.5622 9.6719 16.4862 9.73945C16.4102 9.807 16.3493 9.88989 16.3077 9.98266C16.266 10.0754 16.2444 10.176 16.2444 10.2777C16.2444 10.3794 16.266 10.4799 16.3077 10.5727C16.3493 10.6655 16.4102 10.7484 16.4862 10.8159C16.5622 10.8835 16.6517 10.9341 16.7487 10.9646C16.8458 10.9951 16.9481 11.0046 17.0491 10.9927C19.1891 10.9927 20.6891 11.9927 20.6891 12.8627C20.6891 13.7327 19.1891 14.7427 17.0491 14.7427C16.8608 14.7427 16.6802 14.8175 16.5471 14.9506C16.4139 15.0838 16.3391 15.2644 16.3391 15.4527C16.3391 15.641 16.4139 15.8216 16.5471 15.9547C16.6802 16.0879 16.8608 16.1627 17.0491 16.1627C19.8991 16.1527 22.1291 14.7127 22.1291 12.8527L22.1191 12.8627ZM7.65914 15.2927C7.65915 15.1986 7.64046 15.1054 7.60415 15.0186C7.56785 14.9318 7.51466 14.8531 7.44766 14.7871C7.38067 14.721 7.30122 14.6689 7.21392 14.6338C7.12662 14.5987 7.03322 14.5814 6.93914 14.5827C4.79914 14.5827 3.29914 13.5827 3.29914 12.7027C3.29914 11.8227 4.79914 10.8327 6.93914 10.8327C7.04014 10.8446 7.14252 10.8351 7.23955 10.8046C7.33658 10.7741 7.42605 10.7235 7.50208 10.6559C7.5781 10.5884 7.63896 10.5055 7.68063 10.4127C7.7223 10.3199 7.74385 10.2194 7.74385 10.1177C7.74385 10.016 7.7223 9.91543 7.68063 9.82266C7.63896 9.72989 7.5781 9.647 7.50208 9.57945C7.42605 9.5119 7.33658 9.46122 7.23955 9.43075C7.14252 9.40028 7.04014 9.39072 6.93914 9.40268C4.09914 9.40268 1.86914 10.8527 1.86914 12.7027C1.86914 14.5527 4.09914 16.0027 6.93914 16.0027C7.03322 16.004 7.12662 15.9866 7.21392 15.9515C7.30122 15.9164 7.38067 15.8644 7.44766 15.7983C7.51466 15.7322 7.56785 15.6535 7.60415 15.5667C7.64046 15.4799 7.65915 15.3868 7.65914 15.2927Z" fill="#F5F5F5"/>
</svg>
