<svg width="16" height="16" viewBox="0 0 16 16" fill="none" xmlns="http://www.w3.org/2000/svg">
<path opacity="0.7" d="M13.8333 0.5H2.16667C1.24167 0.5 0.5 1.25 0.5 2.16667V13.8333C0.5 14.75 1.24167 15.5 2.16667 15.5H13.8333C14.75 15.5 15.5 14.75 15.5 13.8333V2.16667C15.5 1.25 14.7583 0.5 13.8333 0.5ZM13.8333 13.8333H2.16667V3.83333H13.8333V13.8333ZM9.25 8.83333C9.25 9.525 8.69167 10.0833 8 10.0833C7.30833 10.0833 6.75 9.525 6.75 8.83333C6.75 8.14167 7.30833 7.58333 8 7.58333C8.69167 7.58333 9.25 8.14167 9.25 8.83333ZM8 5.5C5.725 5.5 3.78333 6.88333 3 8.83333C3.78333 10.7833 5.725 12.1667 8 12.1667C10.275 12.1667 12.2167 10.7833 13 8.83333C12.2167 6.88333 10.275 5.5 8 5.5ZM8 10.9167C6.85 10.9167 5.91667 9.98333 5.91667 8.83333C5.91667 7.68333 6.85 6.75 8 6.75C9.15 6.75 10.0833 7.68333 10.0833 8.83333C10.0833 9.98333 9.15 10.9167 8 10.9167Z" fill="#4C4E64" fill-opacity="0.87"/>
</svg>
