<svg width="20" height="20" viewBox="0 0 20 20" fill="none" xmlns="http://www.w3.org/2000/svg">
<path d="M12.7667 2.29199C12.8164 2.28405 12.867 2.28405 12.9167 2.29199C14.2812 2.64102 15.4939 3.42704 16.3696 4.53002C17.2454 5.63299 17.7361 6.99229 17.7667 8.40033C17.7351 9.80905 17.2442 11.1689 16.3688 12.273C15.4933 13.3771 14.2812 14.1651 12.9167 14.517H12.7667C12.646 14.5242 12.5271 14.4852 12.4342 14.4078C12.3412 14.3303 12.2814 14.2204 12.2667 14.1003V2.70866C12.2814 2.58861 12.3412 2.47866 12.4342 2.40123C12.5271 2.32381 12.646 2.28474 12.7667 2.29199ZM7.24173 5.44199C7.36154 5.43489 7.47948 5.47423 7.57104 5.55182C7.6626 5.62942 7.72075 5.73931 7.7334 5.85866V17.292C7.72142 17.3631 7.69422 17.4307 7.65366 17.4903C7.6131 17.5499 7.56014 17.6 7.4984 17.6372C7.43666 17.6744 7.36761 17.6978 7.29598 17.7058C7.22435 17.7138 7.15183 17.7063 7.0834 17.6837C5.71896 17.3346 4.50627 16.5486 3.63051 15.4456C2.75475 14.3427 2.26407 12.9834 2.2334 11.5753C2.26501 10.1666 2.75589 8.80675 3.63136 7.70263C4.50682 6.59852 5.71897 5.81058 7.0834 5.45866H7.24173M12.7667 1.05866C12.3142 1.04968 11.8765 1.21976 11.5488 1.53188C11.221 1.84401 11.0298 2.27293 11.0167 2.72533V14.167C11.0298 14.6194 11.221 15.0483 11.5488 15.3604C11.8765 15.6726 12.3142 15.8426 12.7667 15.8337C12.9302 15.8353 13.0931 15.8128 13.2501 15.767C14.88 15.3474 16.327 14.4042 17.3688 13.0823C18.4106 11.7605 18.9896 10.1331 19.0167 8.45033C18.995 6.76319 18.4185 5.13012 17.3763 3.80323C16.3341 2.47634 14.884 1.52942 13.2501 1.10866C13.0923 1.06663 12.93 1.04424 12.7667 1.04199V1.05866ZM7.2334 4.16699C7.06989 4.16538 6.90703 4.18785 6.75007 4.23366C5.12018 4.65329 3.67316 5.59648 2.63135 6.91832C1.58953 8.24015 1.01057 9.8675 0.983398 11.5503C1.00512 13.2375 1.5816 14.8705 2.62384 16.1974C3.66607 17.5243 5.1161 18.4712 6.75007 18.892C6.90782 18.934 7.07016 18.9564 7.2334 18.9587C7.68589 18.9676 8.12363 18.7976 8.45136 18.4854C8.77909 18.1733 8.9703 17.7444 8.9834 17.292V5.83366C8.9703 5.38127 8.77909 4.95234 8.45136 4.64022C8.12363 4.32809 7.68589 4.15801 7.2334 4.16699V4.16699Z" fill="#F5F5F5"/>
</svg>
