<svg width="20" height="20" viewBox="0 0 20 20" fill="none" xmlns="http://www.w3.org/2000/svg">
<path d="M12.625 9.88039C12.3074 9.66783 11.9593 9.50074 11.5917 9.38439C11.3 9.28839 10.975 9.20039 10.6333 9.11239V6.93639C10.7414 6.97071 10.8428 7.02208 10.9333 7.08839C11.1787 7.29863 11.3772 7.55445 11.5167 7.84039C11.6073 8.017 11.7222 8.18113 11.8583 8.32839C11.9918 8.43277 12.1617 8.48428 12.3333 8.47239C12.4403 8.47449 12.5465 8.4541 12.6444 8.41264C12.7422 8.37118 12.8295 8.30966 12.9 8.23239C13.0479 8.08083 13.1285 7.88002 13.125 7.67239C13.1226 7.43221 13.0597 7.19616 12.9417 6.98439C12.8038 6.72029 12.6075 6.48824 12.3667 6.30439C12.0749 6.07014 11.738 5.89343 11.375 5.78439C11.1432 5.6999 10.9031 5.63825 10.6583 5.60039V5.20039C10.6594 5.12093 10.6441 5.04204 10.6132 4.96832C10.5823 4.8946 10.5364 4.82751 10.4782 4.77095C10.4201 4.71438 10.3508 4.66947 10.2745 4.63882C10.1981 4.60816 10.1161 4.59238 10.0333 4.59239V4.59239C9.95165 4.59133 9.87057 4.60586 9.79479 4.63514C9.719 4.66441 9.65004 4.70785 9.59189 4.76293C9.53374 4.81801 9.48757 4.88363 9.45606 4.95598C9.42455 5.02833 9.40833 5.10597 9.40833 5.18439V5.60039C8.99535 5.62766 8.5885 5.71116 8.2 5.84839C7.73037 6.02302 7.32663 6.32975 7.04167 6.72839C6.77701 7.10246 6.64547 7.54866 6.66667 8.00039C6.65033 8.43909 6.78184 8.87115 7.04167 9.23239C7.30244 9.58246 7.65646 9.85877 8.06667 10.0324C8.49646 10.2131 8.94282 10.355 9.4 10.4564V13.1044C9.28553 13.0806 9.17385 13.0457 9.06667 13.0004C8.84414 12.8951 8.6523 12.7384 8.50833 12.5444C8.36426 12.3292 8.2415 12.1016 8.14167 11.8644C8.07358 11.6688 7.95953 11.4909 7.80833 11.3444C7.67525 11.2316 7.50247 11.1715 7.325 11.1764C7.21806 11.1722 7.11141 11.19 7.01224 11.2286C6.91306 11.2673 6.82364 11.3258 6.75 11.4004C6.67405 11.469 6.61401 11.5521 6.5738 11.6445C6.5336 11.7369 6.51413 11.8363 6.51667 11.9364C6.53268 12.3343 6.66557 12.7198 6.9 13.0484C7.13693 13.4085 7.45609 13.7122 7.83333 13.9364C8.2993 14.1809 8.81275 14.3307 9.34167 14.3764V14.7684C9.34056 14.8479 9.35591 14.9267 9.38683 15.0005C9.41774 15.0742 9.46361 15.1413 9.52175 15.1978C9.5799 15.2544 9.64917 15.2993 9.72555 15.33C9.80193 15.3606 9.88388 15.3764 9.96667 15.3764C10.0483 15.3775 10.1294 15.3629 10.2052 15.3336C10.281 15.3044 10.35 15.2609 10.4081 15.2059C10.4663 15.1508 10.5124 15.0852 10.5439 15.0128C10.5755 14.9405 10.5917 14.8628 10.5917 14.7844V14.4004C11.0409 14.3661 11.4821 14.2663 11.9 14.1044C12.3947 13.9017 12.8174 13.5654 13.1167 13.1364C13.394 12.7213 13.5388 12.2375 13.5333 11.7444C13.5644 11.3583 13.4957 10.9709 13.3333 10.6164C13.1652 10.3179 12.9216 10.0649 12.625 9.88039ZM9.36667 8.80039C9.18879 8.74479 9.01598 8.67522 8.85 8.59239C8.69785 8.50948 8.56239 8.40111 8.45 8.27239C8.36447 8.13502 8.32383 7.97617 8.33333 7.81639C8.33701 7.67425 8.37787 7.53528 8.45213 7.41226C8.5264 7.28924 8.63169 7.18612 8.75833 7.11239C8.95995 6.98722 9.18736 6.90536 9.425 6.87239V8.79239L9.36667 8.80039ZM11.2583 12.8004C11.0596 12.9333 10.8361 13.0284 10.6 13.0804V10.7684L10.775 10.8164C11.0362 10.8933 11.2738 11.0306 11.4667 11.2164C11.5586 11.3072 11.6304 11.4151 11.6777 11.5333C11.7249 11.6516 11.7467 11.7778 11.7417 11.9044C11.7432 12.0802 11.6999 12.2538 11.6157 12.4099C11.5315 12.5661 11.4088 12.7001 11.2583 12.8004V12.8004ZM10 1.40039C8.22821 1.40039 6.49621 1.90477 5.02302 2.84975C3.54983 3.79473 2.40161 5.13787 1.72358 6.70931C1.04554 8.28076 0.868139 10.0099 1.2138 11.6782C1.55946 13.3464 2.41266 14.8788 3.6655 16.0815C4.91835 17.2842 6.51457 18.1033 8.25232 18.4351C9.99006 18.767 11.7913 18.5967 13.4282 17.9458C15.0651 17.2948 16.4642 16.1926 17.4486 14.7783C18.4329 13.364 18.9583 11.7013 18.9583 10.0004C18.9561 7.72018 18.0116 5.53397 16.3321 3.92161C14.6525 2.30926 12.3752 1.40251 10 1.40039V1.40039ZM10 17.4004C8.47544 17.4004 6.98511 16.9664 5.71748 16.1533C4.44985 15.3401 3.46185 14.1844 2.87843 12.8322C2.295 11.4801 2.14235 9.99218 2.43978 8.55672C2.73721 7.12126 3.47136 5.80271 4.54938 4.7678C5.62741 3.73289 7.00091 3.02811 8.49618 2.74258C9.99145 2.45705 11.5413 2.60359 12.9499 3.16368C14.3584 3.72377 15.5622 4.67225 16.4092 5.88917C17.2562 7.10609 17.7083 8.53681 17.7083 10.0004C17.7061 11.9623 16.8933 13.8433 15.4482 15.2306C14.0031 16.618 12.0437 17.3983 10 17.4004V17.4004Z" fill="#4C4E64" fill-opacity="0.87"/>
</svg>
