<svg width="20" height="20" viewBox="0 0 20 20" fill="none" xmlns="http://www.w3.org/2000/svg">
<path d="M12.625 9.88039C12.3074 9.66783 11.9593 9.50074 11.5916 9.38439C11.3 9.28839 10.975 9.20039 10.6333 9.11239V6.93639C10.7414 6.97071 10.8428 7.02208 10.9333 7.08839C11.1787 7.29863 11.3771 7.55445 11.5166 7.84039C11.6073 8.017 11.7222 8.18113 11.8583 8.32839C11.9917 8.43277 12.1616 8.48428 12.3333 8.47239C12.4403 8.47449 12.5464 8.4541 12.6443 8.41264C12.7422 8.37118 12.8295 8.30966 12.9 8.23239C13.0478 8.08083 13.1285 7.88002 13.125 7.67239C13.1226 7.43221 13.0597 7.19616 12.9416 6.98439C12.8037 6.72029 12.6075 6.48824 12.3666 6.30439C12.0749 6.07014 11.7379 5.89343 11.375 5.78439C11.1432 5.6999 10.9031 5.63825 10.6583 5.60039V5.20039C10.6594 5.12093 10.644 5.04204 10.6131 4.96832C10.5822 4.8946 10.5364 4.82751 10.4782 4.77095C10.4201 4.71438 10.3508 4.66947 10.2744 4.63882C10.198 4.60816 10.1161 4.59238 10.0333 4.59239V4.59239C9.95162 4.59133 9.87053 4.60586 9.79475 4.63514C9.71897 4.66441 9.65 4.70785 9.59185 4.76293C9.5337 4.81801 9.48753 4.88363 9.45602 4.95598C9.42451 5.02833 9.40829 5.10597 9.4083 5.18439V5.60039C8.99531 5.62766 8.58846 5.71116 8.19996 5.84839C7.73033 6.02302 7.3266 6.32975 7.04163 6.72839C6.77698 7.10246 6.64543 7.54866 6.66663 8.00039C6.6503 8.43909 6.78181 8.87115 7.04163 9.23239C7.3024 9.58246 7.65643 9.85877 8.06663 10.0324C8.49642 10.2131 8.94279 10.355 9.39996 10.4564V13.1044C9.28549 13.0806 9.17382 13.0457 9.06663 13.0004C8.8441 12.8951 8.65226 12.7384 8.5083 12.5444C8.36423 12.3292 8.24147 12.1016 8.14163 11.8644C8.07355 11.6688 7.95949 11.4909 7.8083 11.3444C7.67521 11.2316 7.50244 11.1715 7.32496 11.1764C7.21802 11.1722 7.11138 11.19 7.0122 11.2286C6.91302 11.2673 6.82361 11.3258 6.74996 11.4004C6.67401 11.469 6.61397 11.5521 6.57376 11.6445C6.53356 11.7369 6.51409 11.8363 6.51663 11.9364C6.53264 12.3343 6.66553 12.7198 6.89996 13.0484C7.13689 13.4085 7.45606 13.7122 7.8333 13.9364C8.29927 14.1809 8.81271 14.3307 9.34163 14.3764V14.7684C9.34053 14.8479 9.35588 14.9267 9.38679 15.0005C9.41771 15.0742 9.46357 15.1413 9.52172 15.1978C9.57986 15.2544 9.64914 15.2993 9.72551 15.33C9.80189 15.3606 9.88385 15.3764 9.96663 15.3764C10.0483 15.3775 10.1294 15.3629 10.2052 15.3336C10.281 15.3044 10.3499 15.2609 10.4081 15.2059C10.4662 15.1508 10.5124 15.0852 10.5439 15.0128C10.5754 14.9405 10.5916 14.8628 10.5916 14.7844V14.4004C11.0409 14.3661 11.4821 14.2663 11.9 14.1044C12.3947 13.9017 12.8174 13.5654 13.1166 13.1364C13.394 12.7213 13.5388 12.2375 13.5333 11.7444C13.5644 11.3583 13.4957 10.9709 13.3333 10.6164C13.1652 10.3179 12.9216 10.0649 12.625 9.88039ZM9.36663 8.80039C9.18875 8.74479 9.01595 8.67522 8.84996 8.59239C8.69782 8.50948 8.56235 8.40111 8.44996 8.27239C8.36444 8.13502 8.3238 7.97617 8.3333 7.81639C8.33698 7.67425 8.37783 7.53528 8.4521 7.41226C8.52636 7.28924 8.63166 7.18612 8.7583 7.11239C8.95992 6.98722 9.18733 6.90536 9.42496 6.87239V8.79239L9.36663 8.80039ZM11.2583 12.8004C11.0596 12.9333 10.8361 13.0284 10.6 13.0804V10.7684L10.775 10.8164C11.0362 10.8933 11.2737 11.0306 11.4666 11.2164C11.5586 11.3072 11.6304 11.4151 11.6776 11.5333C11.7249 11.6516 11.7467 11.7778 11.7416 11.9044C11.7431 12.0802 11.6999 12.2538 11.6157 12.4099C11.5314 12.5661 11.4088 12.7001 11.2583 12.8004V12.8004ZM9.99996 1.40039C8.22817 1.40039 6.49617 1.90477 5.02298 2.84975C3.54979 3.79473 2.40158 5.13787 1.72354 6.70931C1.04551 8.28076 0.868103 10.0099 1.21376 11.6782C1.55942 13.3464 2.41262 14.8788 3.66547 16.0815C4.91831 17.2842 6.51453 18.1033 8.25228 18.4351C9.99003 18.767 11.7912 18.5967 13.4282 17.9458C15.0651 17.2948 16.4642 16.1926 17.4485 14.7783C18.4329 13.364 18.9583 11.7013 18.9583 10.0004C18.9561 7.72018 18.0116 5.53397 16.332 3.92161C14.6525 2.30926 12.3752 1.40251 9.99996 1.40039V1.40039ZM9.99996 17.4004C8.4754 17.4004 6.98507 16.9664 5.71744 16.1533C4.44981 15.3401 3.46182 14.1844 2.87839 12.8322C2.29497 11.4801 2.14232 9.99218 2.43974 8.55672C2.73717 7.12126 3.47132 5.80271 4.54935 4.7678C5.62738 3.73289 7.00087 3.02811 8.49614 2.74258C9.99141 2.45705 11.5413 2.60359 12.9498 3.16368C14.3583 3.72377 15.5622 4.67225 16.4092 5.88917C17.2562 7.10609 17.7083 8.53681 17.7083 10.0004C17.7061 11.9623 16.8933 13.8433 15.4481 15.2306C14.003 16.618 12.0437 17.3983 9.99996 17.4004V17.4004Z" fill="#F5F5F5"/>
</svg>
