<svg width="20" height="20" viewBox="0 0 20 20" fill="none" xmlns="http://www.w3.org/2000/svg">
<path d="M12.7667 2.29199C12.8164 2.28405 12.867 2.28405 12.9167 2.29199C14.2811 2.64102 15.4938 3.42704 16.3696 4.53002C17.2453 5.63299 17.736 6.99229 17.7667 8.40033C17.7351 9.80905 17.2442 11.1689 16.3687 12.273C15.4932 13.3771 14.2811 14.1651 12.9167 14.517H12.7667C12.6459 14.5242 12.527 14.4852 12.4341 14.4078C12.3412 14.3303 12.2813 14.2204 12.2667 14.1003V2.70866C12.2813 2.58861 12.3412 2.47866 12.4341 2.40123C12.527 2.32381 12.6459 2.28474 12.7667 2.29199ZM7.24167 5.44199C7.36148 5.43489 7.47942 5.47423 7.57098 5.55182C7.66254 5.62942 7.72069 5.73931 7.73334 5.85866V17.292C7.72136 17.3631 7.69416 17.4307 7.6536 17.4903C7.61304 17.5499 7.56008 17.6 7.49834 17.6372C7.4366 17.6744 7.36755 17.6978 7.29592 17.7058C7.22429 17.7138 7.15177 17.7063 7.08334 17.6837C5.7189 17.3346 4.5062 16.5486 3.63045 15.4456C2.75469 14.3427 2.26401 12.9834 2.23334 11.5753C2.26495 10.1666 2.75583 8.80675 3.63129 7.70263C4.50676 6.59852 5.71891 5.81058 7.08334 5.45866H7.24167M12.7667 1.05866C12.3142 1.04968 11.8764 1.21976 11.5487 1.53188C11.221 1.84401 11.0298 2.27293 11.0167 2.72533V14.167C11.0298 14.6194 11.221 15.0483 11.5487 15.3604C11.8764 15.6726 12.3142 15.8426 12.7667 15.8337C12.9302 15.8353 13.093 15.8128 13.25 15.767C14.8799 15.3474 16.3269 14.4042 17.3687 13.0823C18.4105 11.7605 18.9895 10.1331 19.0167 8.45033C18.9949 6.76319 18.4185 5.13012 17.3762 3.80323C16.334 2.47634 14.884 1.52942 13.25 1.10866C13.0922 1.06663 12.9299 1.04424 12.7667 1.04199V1.05866ZM7.23334 4.16699C7.06983 4.16538 6.90697 4.18785 6.75 4.23366C5.12012 4.65329 3.6731 5.59648 2.63129 6.91832C1.58947 8.24015 1.0105 9.8675 0.983337 11.5503C1.00506 13.2375 1.58154 14.8705 2.62377 16.1974C3.66601 17.5243 5.11604 18.4712 6.75 18.892C6.90776 18.934 7.0701 18.9564 7.23334 18.9587C7.68583 18.9676 8.12356 18.7976 8.4513 18.4854C8.77903 18.1733 8.97024 17.7444 8.98334 17.292V5.83366C8.97024 5.38127 8.77903 4.95234 8.4513 4.64022C8.12356 4.32809 7.68583 4.15801 7.23334 4.16699V4.16699Z" fill="#4C4E64" fill-opacity="0.87"/>
</svg>
