<svg width="24" height="25" viewBox="0 0 24 25" fill="none" xmlns="http://www.w3.org/2000/svg">
<path d="M12.0003 23.6712C11.5517 23.6726 11.1069 23.5878 10.6903 23.4212L2.48033 20.1312C2.11881 19.9863 1.80897 19.7365 1.59073 19.4139C1.37249 19.0913 1.25586 18.7107 1.25586 18.3212C1.25586 17.9317 1.37249 17.5512 1.59073 17.2286C1.80897 16.906 2.11881 16.6561 2.48033 16.5112C2.57327 16.4708 2.67346 16.4496 2.77484 16.4489C2.87621 16.4482 2.97667 16.4681 3.07013 16.5074C3.1636 16.5467 3.24814 16.6045 3.31864 16.6773C3.38914 16.7501 3.44415 16.8365 3.48033 16.9312C3.51945 17.0273 3.53793 17.1306 3.53457 17.2343C3.53122 17.338 3.50609 17.4398 3.46082 17.5331C3.41556 17.6265 3.35117 17.7093 3.27184 17.7761C3.19251 17.843 3.1 17.8924 3.00033 17.9212C2.91701 17.9552 2.8458 18.0134 2.79589 18.0883C2.74598 18.1631 2.71966 18.2513 2.72033 18.3412C2.71826 18.4315 2.74402 18.5202 2.79411 18.5954C2.8442 18.6705 2.9162 18.7284 3.00033 18.7612L11.2203 22.0412C11.7014 22.2358 12.2393 22.2358 12.7203 22.0412L21.0003 18.7412C21.0845 18.7084 21.1565 18.6505 21.2065 18.5754C21.2566 18.5002 21.2824 18.4115 21.2803 18.3212C21.2771 18.2347 21.249 18.1509 21.1993 18.08C21.1496 18.009 21.0805 17.9539 21.0003 17.9212C20.9047 17.8863 20.8174 17.8319 20.7437 17.7617C20.67 17.6914 20.6117 17.6067 20.5723 17.5128C20.5328 17.419 20.5132 17.318 20.5146 17.2162C20.516 17.1144 20.5384 17.014 20.5803 16.9212C20.6165 16.8265 20.6715 16.7401 20.742 16.6673C20.8125 16.5945 20.897 16.5367 20.9905 16.4974C21.084 16.4581 21.1844 16.4382 21.2858 16.4389C21.3872 16.4396 21.4874 16.4608 21.5803 16.5012C21.9418 16.6461 22.2517 16.896 22.4699 17.2186C22.6882 17.5412 22.8048 17.9217 22.8048 18.3112C22.8048 18.7007 22.6882 19.0813 22.4699 19.4039C22.2517 19.7265 21.9418 19.9763 21.5803 20.1212L13.3103 23.4212C12.8937 23.5878 12.449 23.6726 12.0003 23.6712ZM12.0003 18.2712C11.5511 18.269 11.1064 18.1807 10.6903 18.0112L2.48033 14.7312C2.11881 14.5863 1.80897 14.3365 1.59073 14.0139C1.37249 13.6913 1.25586 13.3107 1.25586 12.9212C1.25586 12.5317 1.37249 12.1512 1.59073 11.8286C1.80897 11.506 2.11881 11.2561 2.48033 11.1112L3.48033 10.7212C3.57265 10.6805 3.67225 10.6588 3.77315 10.6575C3.87405 10.6562 3.97418 10.6752 4.06755 10.7135C4.16092 10.7518 4.2456 10.8085 4.31652 10.8803C4.38745 10.9521 4.44316 11.0374 4.48033 11.1312C4.51936 11.2244 4.53945 11.3243 4.53942 11.4253C4.53938 11.5263 4.51923 11.6262 4.48012 11.7193C4.44102 11.8124 4.38376 11.8968 4.31168 11.9675C4.2396 12.0383 4.15415 12.0939 4.06033 12.1312L3.06033 12.5212C2.97619 12.554 2.9042 12.6119 2.85411 12.6871C2.80402 12.7622 2.77826 12.851 2.78033 12.9412C2.77966 13.0312 2.80598 13.1193 2.85589 13.1942C2.9058 13.2691 2.97701 13.3272 3.06033 13.3612L11.2803 16.6412C11.7614 16.8358 12.2993 16.8358 12.7803 16.6412L21.0003 13.3412C21.0836 13.3072 21.1548 13.2491 21.2048 13.1742C21.2547 13.0993 21.281 13.0112 21.2803 12.9212C21.2824 12.8309 21.2566 12.7422 21.2065 12.6671C21.1565 12.5919 21.0845 12.534 21.0003 12.5012L20.0003 12.1112C19.9084 12.0751 19.8245 12.0212 19.7534 11.9527C19.6823 11.8842 19.6254 11.8023 19.5859 11.7118C19.5464 11.6212 19.5252 11.5238 19.5234 11.425C19.5216 11.3263 19.5392 11.2282 19.5753 11.1362C19.6114 11.0443 19.6653 10.9604 19.7338 10.8893C19.8024 10.8182 19.8843 10.7613 19.9748 10.7218C20.0653 10.6823 20.1628 10.6611 20.2615 10.6593C20.3603 10.6575 20.4584 10.6751 20.5503 10.7112L21.5503 11.1112C21.9118 11.2561 22.2217 11.506 22.4399 11.8286C22.6582 12.1512 22.7748 12.5317 22.7748 12.9212C22.7748 13.3107 22.6582 13.6913 22.4399 14.0139C22.2217 14.3365 21.9118 14.5863 21.5503 14.7312L13.3403 18.0112C12.9149 18.1845 12.4597 18.2728 12.0003 18.2712ZM12.0003 12.9212C11.5511 12.919 11.1064 12.8307 10.6903 12.6612L2.48033 9.33123C2.11881 9.18632 1.80897 8.93646 1.59073 8.61387C1.37249 8.29127 1.25586 7.91071 1.25586 7.52123C1.25586 7.13175 1.37249 6.75119 1.59073 6.42859C1.80897 6.106 2.11881 5.85614 2.48033 5.71123L10.6903 2.42123C11.5315 2.08615 12.4691 2.08615 13.3103 2.42123L21.5203 5.71123C21.8818 5.85614 22.1917 6.106 22.4099 6.42859C22.6282 6.75119 22.7448 7.13175 22.7448 7.52123C22.7448 7.91071 22.6282 8.29127 22.4099 8.61387C22.1917 8.93646 21.8818 9.18632 21.5203 9.33123L13.3103 12.6112C12.8977 12.7979 12.4529 12.9031 12.0003 12.9212ZM11.2503 11.2712C11.7314 11.4658 12.2693 11.4658 12.7503 11.2712L21.0003 7.92123C21.0836 7.88724 21.1548 7.82905 21.2048 7.75419C21.2547 7.67932 21.281 7.59121 21.2803 7.50123C21.2784 7.41436 21.2507 7.33001 21.2009 7.25883C21.1511 7.18764 21.0813 7.1328 21.0003 7.10123L12.7503 3.81123C12.2693 3.61663 11.7314 3.61663 11.2503 3.81123L3.00033 7.10123C2.9162 7.13404 2.8442 7.19195 2.79411 7.26708C2.74402 7.34222 2.71826 7.43095 2.72033 7.52123C2.72355 7.60778 2.75169 7.69155 2.80136 7.76251C2.85102 7.83346 2.92011 7.88857 3.00033 7.92123L11.2503 11.2712Z" fill="#F5F5F5"/>
</svg>
