<svg width="24" height="25" viewBox="0 0 24 25" fill="none" xmlns="http://www.w3.org/2000/svg">
<path d="M16.0509 23.6719H8.0009C6.22476 23.6692 4.52213 22.9625 3.26621 21.7066C2.01029 20.4506 1.30355 18.748 1.3009 16.9719V8.92188C1.29563 8.03819 1.46497 7.16216 1.79919 6.3441C2.13342 5.52603 2.62594 4.78204 3.24849 4.15485C3.87104 3.52766 4.61134 3.02962 5.4269 2.68932C6.24245 2.34902 7.1172 2.17318 8.0009 2.17188H16.1009C17.877 2.18773 19.5744 2.90716 20.821 4.17246C22.0675 5.43776 22.7616 7.1457 22.7509 8.92188V17.0219C22.7351 18.7893 22.0226 20.4792 20.7681 21.7243C19.5135 22.9694 17.8184 23.6693 16.0509 23.6719ZM8.0009 3.67188C7.3096 3.6652 6.62391 3.79643 5.98394 4.0579C5.34396 4.31937 4.76255 4.70583 4.2737 5.19468C3.78486 5.68352 3.3984 6.26494 3.13693 6.90491C2.87546 7.54489 2.74422 8.23058 2.7509 8.92188V17.0219C2.75744 17.7048 2.89842 18.3797 3.1658 19.0081C3.43318 19.6365 3.82172 20.206 4.30923 20.6843C4.79675 21.1625 5.37368 21.54 6.0071 21.7952C6.64052 22.0505 7.31802 22.1785 8.0009 22.1719H16.1009C17.4792 22.1692 18.8003 21.6205 19.7749 20.6459C20.7496 19.6713 21.2983 18.3502 21.3009 16.9719V8.92188C21.2983 7.54356 20.7496 6.22246 19.7749 5.24784C18.8003 4.27322 17.4792 3.72452 16.1009 3.72187L8.0009 3.67188ZM18.6709 8.84188C18.6709 8.64296 18.5919 8.4522 18.4512 8.31154C18.3106 8.17089 18.1198 8.09188 17.9209 8.09188H6.0809C5.88199 8.09188 5.69122 8.17089 5.55057 8.31154C5.40992 8.4522 5.3309 8.64296 5.3309 8.84188C5.3309 9.04079 5.40992 9.23155 5.55057 9.3722C5.69122 9.51286 5.88199 9.59188 6.0809 9.59188H17.9209C18.119 9.58928 18.3083 9.50944 18.4484 9.36934C18.5885 9.22925 18.6683 9.03998 18.6709 8.84188ZM18.6709 12.8419C18.6709 12.643 18.5919 12.4522 18.4512 12.3115C18.3106 12.1709 18.1198 12.0919 17.9209 12.0919H6.0809C5.88199 12.0919 5.69122 12.1709 5.55057 12.3115C5.40992 12.4522 5.3309 12.643 5.3309 12.8419C5.3309 13.0408 5.40992 13.2316 5.55057 13.3722C5.69122 13.5129 5.88199 13.5919 6.0809 13.5919H17.9209C18.119 13.5893 18.3083 13.5094 18.4484 13.3693C18.5885 13.2292 18.6683 13.04 18.6709 12.8419ZM18.6709 16.8919C18.6709 16.693 18.5919 16.5022 18.4512 16.3615C18.3106 16.2209 18.1198 16.1419 17.9209 16.1419H6.0809C5.88199 16.1419 5.69122 16.2209 5.55057 16.3615C5.40992 16.5022 5.3309 16.693 5.3309 16.8919C5.3309 17.0908 5.40992 17.2816 5.55057 17.4222C5.69122 17.5629 5.88199 17.6419 6.0809 17.6419H17.9209C18.114 17.6396 18.299 17.5639 18.4383 17.4302C18.5776 17.2965 18.6608 17.1147 18.6709 16.9219V16.8919Z" fill="#F5F5F5"/>
</svg>
