<svg width="22" height="22" viewBox="0 0 22 22" fill="none" xmlns="http://www.w3.org/2000/svg">
<path d="M15.0509 21.6719H7.0009C5.22476 21.6692 3.52213 20.9625 2.26621 19.7066C1.01029 18.4506 0.303546 16.748 0.300901 14.9719V6.92188C0.295632 6.03819 0.464971 5.16216 0.799194 4.3441C1.13342 3.52603 1.62594 2.78204 2.24849 2.15485C2.87104 1.52766 3.61134 1.02962 4.4269 0.68932C5.24245 0.349024 6.1172 0.173176 7.0009 0.171875H15.1009C16.877 0.187726 18.5744 0.907156 19.821 2.17246C21.0675 3.43776 21.7616 5.1457 21.7509 6.92188V15.0219C21.7351 16.7893 21.0226 18.4792 19.7681 19.7243C18.5135 20.9694 16.8184 21.6693 15.0509 21.6719ZM7.0009 1.67188C6.3096 1.6652 5.62391 1.79643 4.98394 2.0579C4.34396 2.31937 3.76255 2.70583 3.2737 3.19468C2.78486 3.68352 2.3984 4.26494 2.13693 4.90491C1.87546 5.54489 1.74422 6.23058 1.7509 6.92188V15.0219C1.75744 15.7048 1.89842 16.3797 2.1658 17.0081C2.43318 17.6365 2.82172 18.206 3.30923 18.6843C3.79675 19.1625 4.37368 19.54 5.0071 19.7952C5.64052 20.0505 6.31802 20.1785 7.0009 20.1719H15.1009C16.4792 20.1692 17.8003 19.6205 18.7749 18.6459C19.7496 17.6713 20.2983 16.3502 20.3009 14.9719V6.92188C20.2983 5.54356 19.7496 4.22246 18.7749 3.24784C17.8003 2.27322 16.4792 1.72452 15.1009 1.72187L7.0009 1.67188ZM17.6709 6.84188C17.6709 6.64296 17.5919 6.4522 17.4512 6.31154C17.3106 6.17089 17.1198 6.09188 16.9209 6.09188H5.0809C4.88199 6.09188 4.69122 6.17089 4.55057 6.31154C4.40992 6.4522 4.3309 6.64296 4.3309 6.84188C4.3309 7.04079 4.40992 7.23155 4.55057 7.3722C4.69122 7.51286 4.88199 7.59188 5.0809 7.59188H16.9209C17.119 7.58928 17.3083 7.50944 17.4484 7.36934C17.5885 7.22925 17.6683 7.03998 17.6709 6.84188ZM17.6709 10.8419C17.6709 10.643 17.5919 10.4522 17.4512 10.3115C17.3106 10.1709 17.1198 10.0919 16.9209 10.0919H5.0809C4.88199 10.0919 4.69122 10.1709 4.55057 10.3115C4.40992 10.4522 4.3309 10.643 4.3309 10.8419C4.3309 11.0408 4.40992 11.2316 4.55057 11.3722C4.69122 11.5129 4.88199 11.5919 5.0809 11.5919H16.9209C17.119 11.5893 17.3083 11.5094 17.4484 11.3693C17.5885 11.2292 17.6683 11.04 17.6709 10.8419ZM17.6709 14.8919C17.6709 14.693 17.5919 14.5022 17.4512 14.3615C17.3106 14.2209 17.1198 14.1419 16.9209 14.1419H5.0809C4.88199 14.1419 4.69122 14.2209 4.55057 14.3615C4.40992 14.5022 4.3309 14.693 4.3309 14.8919C4.3309 15.0908 4.40992 15.2816 4.55057 15.4222C4.69122 15.5629 4.88199 15.6419 5.0809 15.6419H16.9209C17.114 15.6396 17.299 15.5639 17.4383 15.4302C17.5776 15.2965 17.6608 15.1147 17.6709 14.9219V14.8919Z" fill="#F5F5F5"/>
</svg>
