<svg width="24" height="24" viewBox="0 0 24 24" fill="none" xmlns="http://www.w3.org/2000/svg">
<path d="M8.75025 22.1504C8.29414 22.1467 7.84658 22.0262 7.45025 21.8004L5.82025 20.8504C5.52366 20.6807 5.26388 20.4535 5.05611 20.1822C4.84835 19.9109 4.69677 19.6009 4.61025 19.2704C4.51876 18.9364 4.49463 18.5876 4.53927 18.2442C4.5839 17.9009 4.69642 17.5698 4.87025 17.2704L5.31025 16.5204C5.09442 16.2006 4.90064 15.8665 4.73025 15.5204H3.83025C3.48882 15.5191 3.15098 15.4505 2.83604 15.3186C2.52109 15.1868 2.2352 14.9941 1.9947 14.7518C1.7542 14.5094 1.56378 14.2221 1.43433 13.9061C1.30489 13.5902 1.23894 13.2518 1.24025 12.9104V11.0004C1.24315 10.6667 1.31176 10.3369 1.44216 10.0298C1.57257 9.72262 1.76221 9.44419 2.00025 9.21037C2.24031 8.97024 2.52573 8.78027 2.8399 8.65151C3.15408 8.52275 3.49073 8.45777 3.83025 8.46037H4.71025C4.8819 8.11289 5.07911 7.77864 5.30025 7.46037L4.86025 6.67037C4.69064 6.37295 4.58191 6.04476 4.54042 5.7049C4.49892 5.36505 4.52549 5.02033 4.61856 4.69085C4.71164 4.36136 4.86936 4.0537 5.08254 3.78579C5.29572 3.51787 5.5601 3.29507 5.86025 3.13037L7.50025 2.19037C7.79832 2.02344 8.12636 1.91689 8.46562 1.87681C8.80489 1.83672 9.14873 1.86389 9.47749 1.95676C9.80624 2.04963 10.1135 2.20638 10.3816 2.41805C10.6498 2.62972 10.8736 2.89216 11.0403 3.19037L11.4703 3.94037C11.8233 3.92036 12.1772 3.92036 12.5303 3.94037L13.0003 3.15037C13.1713 2.85481 13.3988 2.59583 13.6699 2.38821C13.941 2.1806 14.2503 2.02842 14.5803 1.94037C14.9139 1.84602 15.2631 1.82042 15.6069 1.86511C15.9507 1.9098 16.2819 2.02386 16.5803 2.20037L18.2103 3.14037C18.8067 3.48542 19.2418 4.05313 19.4199 4.71877C19.598 5.38441 19.5046 6.09354 19.1603 6.69037L18.7303 7.45037C18.9554 7.76797 19.156 8.10227 19.3303 8.45037H20.2303C20.919 8.45828 21.5767 8.73812 22.06 9.2289C22.5432 9.71967 22.8129 10.3816 22.8103 11.0704V13.0004C22.8024 13.6856 22.5253 14.3403 22.0388 14.823C21.5524 15.3058 20.8956 15.5778 20.2103 15.5804H19.3203C19.1563 15.9047 18.9727 16.2186 18.7703 16.5204L19.2203 17.3104C19.3872 17.6084 19.4937 17.9365 19.5338 18.2757C19.5739 18.615 19.5467 18.9588 19.4539 19.2876C19.361 19.6164 19.2042 19.9236 18.9926 20.1917C18.7809 20.4599 18.5185 20.6837 18.2203 20.8504L16.5803 21.7904C16.2825 21.9586 15.9544 22.0663 15.6148 22.107C15.2753 22.1478 14.931 22.121 14.6019 22.028C14.2728 21.935 13.9653 21.7778 13.6973 21.5654C13.4293 21.3529 13.2059 21.0895 13.0403 20.7904L12.6003 20.0404C12.2275 20.0703 11.853 20.0703 11.4803 20.0404L11.0203 20.8204C10.7944 21.2239 10.4649 21.5599 10.0659 21.7937C9.66687 22.0275 9.21272 22.1506 8.75025 22.1504ZM3.85025 10.0004C3.5601 9.99972 3.28081 10.1107 3.07025 10.3104C2.96824 10.4129 2.88747 10.5346 2.83256 10.6685C2.77765 10.8023 2.74968 10.9457 2.75025 11.0904V12.9704C2.76782 13.2464 2.88871 13.5057 3.08886 13.6965C3.28901 13.8874 3.55371 13.9959 3.83025 14.0004H5.21025C5.35835 13.998 5.50367 14.0407 5.62691 14.1229C5.75016 14.205 5.84549 14.3227 5.90025 14.4604C6.13336 15.01 6.43581 15.5275 6.80025 16.0004C6.88959 16.12 6.94272 16.2627 6.95336 16.4116C6.96399 16.5605 6.93168 16.7093 6.86025 16.8404L6.17025 18.0104C6.02994 18.2668 5.9907 18.5665 6.06025 18.8504C6.13603 19.1293 6.31947 19.3667 6.57025 19.5104L8.20025 20.4604C8.32541 20.5349 8.46446 20.5831 8.6089 20.602C8.75334 20.621 8.90013 20.6102 9.04025 20.5704C9.32049 20.4921 9.56019 20.3096 9.71025 20.0604L10.4003 18.8604C10.4763 18.733 10.5876 18.6303 10.7206 18.5647C10.8537 18.499 11.0029 18.4732 11.1503 18.4904C11.7281 18.5604 12.3124 18.5604 12.8903 18.4904C13.0371 18.4669 13.1875 18.4887 13.3216 18.5531C13.4556 18.6174 13.5668 18.7211 13.6403 18.8504L14.3203 20.0304C14.4649 20.2836 14.7041 20.469 14.9854 20.5459C15.2667 20.6227 15.5669 20.5848 15.8203 20.4404L17.4503 19.5004C17.577 19.4311 17.6884 19.337 17.7777 19.2235C17.8671 19.1101 17.9326 18.9798 17.9703 18.8404C18.0398 18.5565 18.0006 18.2568 17.8603 18.0004L17.1703 16.8004C17.0898 16.6769 17.0469 16.5327 17.0469 16.3854C17.0469 16.238 17.0898 16.0938 17.1703 15.9704C17.5221 15.5161 17.8144 15.0187 18.0403 14.4904C18.0895 14.3483 18.1832 14.2259 18.3075 14.1412C18.4318 14.0566 18.58 14.0142 18.7303 14.0204H20.0903C20.3776 14.0318 20.6583 13.9322 20.8742 13.7423C21.0902 13.5525 21.2248 13.2868 21.2503 13.0004V11.1004C21.2508 10.9557 21.2229 10.8123 21.1679 10.6785C21.113 10.5446 21.0323 10.4229 20.9303 10.3204C20.8307 10.2164 20.7112 10.1336 20.5789 10.0769C20.4466 10.0202 20.3042 9.99075 20.1603 9.99037H18.7903C18.6419 9.98792 18.4975 9.94211 18.3749 9.85859C18.2523 9.77508 18.1568 9.6575 18.1003 9.52037C17.8669 8.97494 17.5608 8.46362 17.1903 8.00037C17.1001 7.88084 17.0473 7.73736 17.0384 7.58792C17.0295 7.43848 17.0649 7.28974 17.1403 7.16037L17.8203 5.98037C17.9647 5.72706 18.0026 5.42677 17.9257 5.1455C17.8489 4.86423 17.6634 4.62499 17.4103 4.48037L15.7803 3.50037C15.5444 3.36387 15.2647 3.32442 15.0003 3.39037C14.7191 3.46675 14.4787 3.64969 14.3303 3.90037L13.6403 5.10037C13.5661 5.22954 13.4552 5.33371 13.3216 5.3996C13.188 5.4655 13.0379 5.49013 12.8903 5.47037C12.3291 5.4004 11.7614 5.4004 11.2003 5.47037C11.0541 5.48941 10.9056 5.46436 10.7737 5.39844C10.6419 5.33252 10.5327 5.22873 10.4603 5.10037L9.74025 3.91037C9.59377 3.65916 9.35455 3.47548 9.07405 3.39881C8.79354 3.32214 8.49415 3.3586 8.24025 3.50037L6.60025 4.42037C6.34734 4.56519 6.16154 4.80368 6.08296 5.08432C6.00438 5.36497 6.03932 5.66526 6.18025 5.92037L6.86025 7.13037C6.94367 7.26305 6.98281 7.41879 6.97202 7.57514C6.96124 7.7315 6.9011 7.88039 6.80025 8.00037C6.43871 8.46077 6.13635 8.9647 5.90025 9.50037C5.84433 9.63718 5.74872 9.75411 5.62574 9.8361C5.50276 9.91809 5.35805 9.96137 5.21025 9.96037H3.85025V10.0004ZM12.0003 16.0004C11.2091 16.0004 10.4358 15.7658 9.77797 15.3262C9.12018 14.8867 8.60749 14.262 8.30474 13.5311C8.00198 12.8002 7.92277 11.9959 8.07711 11.22C8.23145 10.4441 8.61242 9.73135 9.17183 9.17194C9.73124 8.61253 10.444 8.23156 11.2199 8.07722C11.9958 7.92288 12.8001 8.0021 13.531 8.30485C14.2619 8.6076 14.8866 9.12029 15.3261 9.77808C15.7657 10.4359 16.0003 11.2092 16.0003 12.0004C16.0003 13.0612 15.5788 14.0786 14.8287 14.8288C14.0785 15.5789 13.0611 16.0004 12.0003 16.0004ZM12.0003 9.50037C11.5058 9.50037 11.0225 9.64699 10.6113 9.92169C10.2002 10.1964 9.87977 10.5868 9.69055 11.0437C9.50134 11.5005 9.45183 12.0031 9.54829 12.4881C9.64475 12.973 9.88286 13.4185 10.2325 13.7681C10.5821 14.1178 11.0276 14.3559 11.5125 14.4523C11.9975 14.5488 12.5001 14.4993 12.957 14.3101C13.4138 14.1208 13.8042 13.8004 14.0789 13.3893C14.3536 12.9782 14.5003 12.4948 14.5003 12.0004C14.5003 11.3373 14.2369 10.7014 13.768 10.2326C13.2992 9.76376 12.6633 9.50037 12.0003 9.50037Z" fill="#F5F5F5"/>
</svg>
