<svg width="20" height="20" viewBox="0 0 20 20" fill="none" xmlns="http://www.w3.org/2000/svg">
<path d="M12.3583 18.9587C11.9446 18.9581 11.544 18.8138 11.225 18.5503C11.0125 18.3771 10.8415 18.1584 10.7247 17.9103C10.6078 17.6623 10.5482 17.3912 10.55 17.117V13.0003C10.5456 12.6534 10.6096 12.309 10.7383 11.9868C10.867 11.6646 11.0579 11.371 11.3001 11.1226C11.5423 10.8742 11.8311 10.6759 12.1499 10.5391C12.4687 10.4023 12.8114 10.3297 13.1583 10.3253H17.15C17.4149 10.326 17.6764 10.3853 17.9156 10.4992C18.1548 10.613 18.3657 10.7785 18.5333 10.9837C18.7041 11.1933 18.8275 11.4373 18.8951 11.6991C18.9627 11.9609 18.9729 12.2342 18.925 12.5003C18.6263 14.0696 17.8762 15.5177 16.7667 16.667C15.6693 17.8027 14.2549 18.5811 12.7083 18.9003C12.5941 18.9322 12.4767 18.9517 12.3583 18.9587V18.9587ZM13.1917 11.5753C13.0089 11.5797 12.8287 11.6199 12.6616 11.6939C12.4944 11.7679 12.3434 11.8741 12.2172 12.0064C12.0911 12.1387 11.9923 12.2946 11.9264 12.4652C11.8605 12.6357 11.8289 12.8176 11.8333 13.0003V17.117C11.8314 17.2062 11.8499 17.2946 11.8874 17.3755C11.925 17.4564 11.9806 17.5276 12.05 17.5837C12.1107 17.6341 12.1816 17.6707 12.2579 17.6908C12.3342 17.711 12.414 17.7142 12.4917 17.7003C13.7666 17.4247 14.9301 16.7747 15.8333 15.8337C16.7768 14.8638 17.4144 13.638 17.6667 12.3087C17.6832 12.2193 17.6799 12.1275 17.6568 12.0396C17.6338 11.9517 17.5916 11.87 17.5333 11.8003C17.4842 11.7363 17.4211 11.6843 17.3489 11.6483C17.2768 11.6122 17.1973 11.5929 17.1167 11.592L13.1917 11.5753ZM7.66665 18.9587C7.54755 18.9715 7.42742 18.9715 7.30832 18.9587C5.75156 18.6253 4.33315 17.826 3.24165 16.667C2.12664 15.5205 1.3732 14.0716 1.07499 12.5003C1.0209 12.2304 1.02802 11.9518 1.0958 11.685C1.16358 11.4182 1.2903 11.17 1.46665 10.9587C1.63589 10.7533 1.84837 10.5878 2.08893 10.474C2.32949 10.3602 2.5922 10.3009 2.85832 10.3003H6.85832C7.5597 10.3091 8.22899 10.5956 8.71948 11.0971C9.20997 11.5985 9.48166 12.2739 9.47498 12.9753V17.092C9.47522 17.3667 9.41397 17.6381 9.29573 17.8861C9.17749 18.1341 9.00526 18.3525 8.79165 18.5253C8.47906 18.7972 8.08086 18.9506 7.66665 18.9587V18.9587ZM2.85832 11.5753C2.77633 11.5756 2.69548 11.5945 2.62186 11.6306C2.54824 11.6667 2.48377 11.719 2.43332 11.7837C2.37502 11.8533 2.33284 11.935 2.30979 12.0229C2.28674 12.1108 2.28339 12.2027 2.29999 12.292C2.55852 13.6311 3.20809 14.8635 4.16665 15.8337C5.09451 16.7895 6.28746 17.4455 7.59165 17.717C7.66932 17.7309 7.7491 17.7276 7.82538 17.7075C7.90167 17.6873 7.97264 17.6508 8.03332 17.6003C8.10331 17.5443 8.15984 17.4733 8.19878 17.3925C8.23772 17.3118 8.25806 17.2233 8.25832 17.1337V13.0003C8.26503 12.6304 8.12505 12.2729 7.86896 12.0059C7.61288 11.7389 7.26152 11.5841 6.89165 11.5753H2.85832ZM16.8833 9.21699H3.11665C2.81692 9.21971 2.52029 9.15612 2.248 9.03078C1.97572 8.90545 1.73451 8.72146 1.54165 8.49199C1.39045 8.30543 1.28342 8.08708 1.22858 7.85329C1.17374 7.6195 1.17251 7.37633 1.22499 7.14199C2.05832 3.60866 5.72498 1.04199 9.99998 1.04199C14.275 1.04199 17.9667 3.60866 18.775 7.14199C18.8275 7.37633 18.8262 7.6195 18.7714 7.85329C18.7165 8.08708 18.6095 8.30543 18.4583 8.49199C18.2658 8.72191 18.0247 8.90621 17.7523 9.03159C17.48 9.15697 17.1831 9.22029 16.8833 9.21699V9.21699ZM9.99998 2.29199C6.29998 2.29199 3.12499 4.45033 2.44165 7.42533C2.43346 7.47578 2.4367 7.52743 2.45112 7.57646C2.46555 7.6255 2.49079 7.67067 2.52499 7.70866C2.59815 7.79306 2.68923 7.86005 2.7916 7.90475C2.89396 7.94944 3.00502 7.97071 3.11665 7.96699H16.8833C16.9989 7.97269 17.1142 7.95245 17.2209 7.90775C17.3276 7.86304 17.423 7.79502 17.5 7.70866C17.5317 7.66939 17.5549 7.62384 17.5678 7.57501C17.5807 7.52618 17.5832 7.47517 17.575 7.42533C16.875 4.45033 13.7 2.29199 9.99998 2.29199Z" fill="#4C4E64" fill-opacity="0.87"/>
</svg>
