<svg width="20" height="20" viewBox="0 0 20 20" fill="none" xmlns="http://www.w3.org/2000/svg">
<path d="M12.3583 18.9587C11.9446 18.9581 11.5439 18.8138 11.225 18.5503C11.0124 18.3771 10.8414 18.1584 10.7246 17.9103C10.6078 17.6623 10.5481 17.3912 10.55 17.117V13.0003C10.5455 12.6534 10.6095 12.309 10.7382 11.9868C10.8669 11.6646 11.0578 11.371 11.3 11.1226C11.5423 10.8742 11.831 10.6759 12.1499 10.5391C12.4687 10.4023 12.8114 10.3297 13.1583 10.3253H17.15C17.4149 10.326 17.6763 10.3853 17.9155 10.4992C18.1547 10.613 18.3657 10.7785 18.5333 10.9837C18.7041 11.1933 18.8275 11.4373 18.8951 11.6991C18.9627 11.9609 18.9729 12.2342 18.925 12.5003C18.6263 14.0696 17.8762 15.5177 16.7666 16.667C15.6693 17.8027 14.2549 18.5811 12.7083 18.9003C12.594 18.9322 12.4767 18.9517 12.3583 18.9587V18.9587ZM13.1916 11.5753C13.0088 11.5797 12.8287 11.6199 12.6615 11.6939C12.4943 11.7679 12.3433 11.8741 12.2172 12.0064C12.0911 12.1387 11.9922 12.2946 11.9264 12.4652C11.8605 12.6357 11.8289 12.8176 11.8333 13.0003V17.117C11.8313 17.2062 11.8498 17.2946 11.8874 17.3755C11.925 17.4564 11.9806 17.5276 12.05 17.5837C12.1106 17.6341 12.1816 17.6707 12.2579 17.6908C12.3342 17.711 12.4139 17.7142 12.4916 17.7003C13.7665 17.4247 14.9301 16.7747 15.8333 15.8337C16.7768 14.8638 17.4143 13.638 17.6666 12.3087C17.6832 12.2193 17.6799 12.1275 17.6568 12.0396C17.6338 11.9517 17.5916 11.87 17.5333 11.8003C17.4841 11.7363 17.4211 11.6843 17.3489 11.6483C17.2767 11.6122 17.1973 11.5929 17.1166 11.592L13.1916 11.5753ZM7.66662 18.9587C7.54752 18.9715 7.42739 18.9715 7.30829 18.9587C5.75153 18.6253 4.33311 17.826 3.24162 16.667C2.12661 15.5205 1.37317 14.0716 1.07495 12.5003C1.02087 12.2304 1.02799 11.9518 1.09577 11.685C1.16355 11.4182 1.29027 11.17 1.46662 10.9587C1.63586 10.7533 1.84834 10.5878 2.0889 10.474C2.32946 10.3602 2.59217 10.3009 2.85829 10.3003H6.85829C7.55967 10.3091 8.22896 10.5956 8.71945 11.0971C9.20994 11.5985 9.48163 12.2739 9.47495 12.9753V17.092C9.47519 17.3667 9.41394 17.6381 9.2957 17.8861C9.17746 18.1341 9.00523 18.3525 8.79162 18.5253C8.47903 18.7972 8.08083 18.9506 7.66662 18.9587V18.9587ZM2.85829 11.5753C2.7763 11.5756 2.69545 11.5945 2.62183 11.6306C2.54821 11.6667 2.48374 11.719 2.43329 11.7837C2.37499 11.8533 2.33281 11.935 2.30976 12.0229C2.28671 12.1108 2.28336 12.2027 2.29995 12.292C2.55849 13.6311 3.20806 14.8635 4.16662 15.8337C5.09448 16.7895 6.28743 17.4455 7.59162 17.717C7.66929 17.7309 7.74906 17.7276 7.82535 17.7075C7.90164 17.6873 7.97261 17.6508 8.03329 17.6003C8.10327 17.5443 8.15981 17.4733 8.19875 17.3925C8.23769 17.3118 8.25803 17.2233 8.25829 17.1337V13.0003C8.265 12.6304 8.12502 12.2729 7.86893 12.0059C7.61285 11.7389 7.26148 11.5841 6.89162 11.5753H2.85829ZM16.8833 9.21699H3.11662C2.81689 9.21971 2.52026 9.15612 2.24797 9.03078C1.97569 8.90545 1.73448 8.72146 1.54162 8.49199C1.39042 8.30543 1.28339 8.08708 1.22855 7.85329C1.17371 7.6195 1.17248 7.37633 1.22495 7.14199C2.05829 3.60866 5.72495 1.04199 9.99995 1.04199C14.275 1.04199 17.9666 3.60866 18.775 7.14199C18.8274 7.37633 18.8262 7.6195 18.7714 7.85329C18.7165 8.08708 18.6095 8.30543 18.4583 8.49199C18.2658 8.72191 18.0247 8.90621 17.7523 9.03159C17.4799 9.15697 17.1831 9.22029 16.8833 9.21699V9.21699ZM9.99995 2.29199C6.29995 2.29199 3.12495 4.45033 2.44162 7.42533C2.43343 7.47578 2.43667 7.52743 2.45109 7.57646C2.46552 7.6255 2.49076 7.67067 2.52495 7.70866C2.59812 7.79306 2.6892 7.86005 2.79157 7.90475C2.89393 7.94944 3.00499 7.97071 3.11662 7.96699H16.8833C16.9988 7.97269 17.1142 7.95245 17.2209 7.90775C17.3276 7.86304 17.423 7.79502 17.5 7.70866C17.5317 7.66939 17.5548 7.62384 17.5677 7.57501C17.5807 7.52618 17.5831 7.47517 17.575 7.42533C16.875 4.45033 13.7 2.29199 9.99995 2.29199Z" fill="#F5F5F5"/>
</svg>
