<svg width="24" height="25" viewBox="0 0 24 25" fill="none" xmlns="http://www.w3.org/2000/svg">
<path d="M6.5 12.6719C5.46165 12.6719 4.44662 12.364 3.58326 11.7871C2.7199 11.2102 2.04699 10.3903 1.64963 9.43096C1.25227 8.47165 1.14831 7.41605 1.35088 6.39765C1.55345 5.37925 2.05347 4.44379 2.78769 3.70957C3.52192 2.97534 4.45738 2.47533 5.47578 2.27275C6.49418 2.07018 7.54978 2.17415 8.50909 2.57151C9.4684 2.96887 10.2883 3.64178 10.8652 4.50513C11.4421 5.36849 11.75 6.38353 11.75 7.42188C11.7474 8.81345 11.1934 10.1473 10.2094 11.1313C9.2254 12.1153 7.89158 12.6692 6.5 12.6719ZM6.5 3.67188C5.75832 3.67188 5.0333 3.89181 4.41661 4.30387C3.79993 4.71592 3.31928 5.30159 3.03545 5.98681C2.75163 6.67204 2.67736 7.42604 2.82206 8.15347C2.96675 8.8809 3.3239 9.54908 3.84835 10.0735C4.3728 10.598 5.04098 10.9551 5.76841 11.0998C6.49584 11.2445 7.24984 11.1703 7.93507 10.8864C8.62029 10.6026 9.20596 10.122 9.61801 9.50527C10.0301 8.88858 10.25 8.16356 10.25 7.42188C10.25 6.42732 9.85491 5.47349 9.15165 4.77023C8.44839 4.06697 7.49456 3.67188 6.5 3.67188ZM17.5 23.6719C16.4616 23.6719 15.4466 23.364 14.5833 22.7871C13.7199 22.2102 13.047 21.3903 12.6496 20.431C12.2523 19.4717 12.1483 18.4161 12.3509 17.3977C12.5535 16.3793 13.0535 15.4438 13.7877 14.7096C14.5219 13.9753 15.4574 13.4753 16.4758 13.2728C17.4942 13.0702 18.5498 13.1741 19.5091 13.5715C20.4684 13.9689 21.2883 14.6418 21.8652 15.5051C22.4421 16.3685 22.75 17.3835 22.75 18.4219C22.7474 19.8135 22.1934 21.1473 21.2094 22.1313C20.2254 23.1153 18.8916 23.6692 17.5 23.6719ZM17.5 14.6719C16.7583 14.6719 16.0333 14.8918 15.4166 15.3039C14.7999 15.7159 14.3193 16.3016 14.0355 16.9868C13.7516 17.672 13.6774 18.426 13.8221 19.1535C13.9668 19.8809 14.3239 20.5491 14.8484 21.0735C15.3728 21.598 16.041 21.9551 16.7684 22.0998C17.4958 22.2445 18.2498 22.1703 18.9351 21.8864C19.6203 21.6026 20.206 21.122 20.618 20.5053C21.0301 19.8886 21.25 19.1636 21.25 18.4219C21.25 17.4273 20.8549 16.4735 20.1517 15.7702C19.4484 15.067 18.4946 14.6719 17.5 14.6719ZM6.5 23.6719C5.46165 23.6719 4.44662 23.364 3.58326 22.7871C2.7199 22.2102 2.04699 21.3903 1.64963 20.431C1.25227 19.4717 1.14831 18.4161 1.35088 17.3977C1.55345 16.3793 2.05347 15.4438 2.78769 14.7096C3.52192 13.9753 4.45738 13.4753 5.47578 13.2728C6.49418 13.0702 7.54978 13.1741 8.50909 13.5715C9.4684 13.9689 10.2883 14.6418 10.8652 15.5051C11.4421 16.3685 11.75 17.3835 11.75 18.4219C11.7474 19.8135 11.1934 21.1473 10.2094 22.1313C9.2254 23.1153 7.89158 23.6692 6.5 23.6719ZM6.5 14.6719C5.75832 14.6719 5.0333 14.8918 4.41661 15.3039C3.79993 15.7159 3.31928 16.3016 3.03545 16.9868C2.75163 17.672 2.67736 18.426 2.82206 19.1535C2.96675 19.8809 3.3239 20.5491 3.84835 21.0735C4.3728 21.598 5.04098 21.9551 5.76841 22.0998C6.49584 22.2445 7.24984 22.1703 7.93507 21.8864C8.62029 21.6026 9.20596 21.122 9.61801 20.5053C10.0301 19.8886 10.25 19.1636 10.25 18.4219C10.25 17.4273 9.85491 16.4735 9.15165 15.7702C8.44839 15.067 7.49456 14.6719 6.5 14.6719ZM17.5 12.6719C16.4616 12.6719 15.4466 12.364 14.5833 11.7871C13.7199 11.2102 13.047 10.3903 12.6496 9.43096C12.2523 8.47165 12.1483 7.41605 12.3509 6.39765C12.5535 5.37925 13.0535 4.44379 13.7877 3.70957C14.5219 2.97534 15.4574 2.47533 16.4758 2.27275C17.4942 2.07018 18.5498 2.17415 19.5091 2.57151C20.4684 2.96887 21.2883 3.64178 21.8652 4.50513C22.4421 5.36849 22.75 6.38353 22.75 7.42188C22.7474 8.81345 22.1934 10.1473 21.2094 11.1313C20.2254 12.1153 18.8916 12.6692 17.5 12.6719ZM17.5 3.67188C16.7583 3.67188 16.0333 3.89181 15.4166 4.30387C14.7999 4.71592 14.3193 5.30159 14.0355 5.98681C13.7516 6.67204 13.6774 7.42604 13.8221 8.15347C13.9668 8.8809 14.3239 9.54908 14.8484 10.0735C15.3728 10.598 16.041 10.9551 16.7684 11.0998C17.4958 11.2445 18.2498 11.1703 18.9351 10.8864C19.6203 10.6026 20.206 10.122 20.618 9.50527C21.0301 8.88858 21.25 8.16356 21.25 7.42188C21.25 6.42732 20.8549 5.47349 20.1517 4.77023C19.4484 4.06697 18.4946 3.67188 17.5 3.67188Z" fill="#F5F5F5"/>
</svg>
