<svg width="22" height="22" viewBox="0 0 22 22" fill="none" xmlns="http://www.w3.org/2000/svg">
<path d="M4 7.17188C3.35721 7.17188 2.72886 6.98127 2.1944 6.62415C1.65994 6.26704 1.24338 5.75946 0.997393 5.1656C0.751408 4.57174 0.687047 3.91827 0.812449 3.28783C0.937851 2.65739 1.24738 2.0783 1.7019 1.62378C2.15642 1.16926 2.73552 0.859726 3.36596 0.734324C3.9964 0.608922 4.64986 0.673283 5.24372 0.919268C5.83758 1.16525 6.34516 1.58181 6.70228 2.11627C7.05939 2.65073 7.25 3.27909 7.25 3.92188C7.24736 4.78302 6.90411 5.60814 6.29518 6.21706C5.68626 6.82598 4.86114 7.16924 4 7.17188ZM4 2.17188C3.65388 2.17188 3.31554 2.27451 3.02775 2.4668C2.73997 2.6591 2.51567 2.93241 2.38321 3.25218C2.25076 3.57195 2.2161 3.92382 2.28363 4.26328C2.35115 4.60275 2.51782 4.91457 2.76256 5.15931C3.00731 5.40406 3.31913 5.57073 3.65859 5.63825C3.99806 5.70577 4.34993 5.67112 4.6697 5.53867C4.98947 5.40621 5.26278 5.18191 5.45507 4.89412C5.64737 4.60634 5.75 4.26799 5.75 3.92188C5.74738 3.45856 5.56216 3.01496 5.23454 2.68734C4.90692 2.35972 4.46332 2.1745 4 2.17188ZM18 21.1719C17.3572 21.1719 16.7289 20.9813 16.1944 20.6242C15.6599 20.267 15.2434 19.7595 14.9974 19.1656C14.7514 18.5717 14.687 17.9183 14.8124 17.2878C14.9379 16.6574 15.2474 16.0783 15.7019 15.6238C16.1564 15.1693 16.7355 14.8597 17.366 14.7343C17.9964 14.6089 18.6499 14.6733 19.2437 14.9193C19.8376 15.1653 20.3452 15.5818 20.7023 16.1163C21.0594 16.6507 21.25 17.2791 21.25 17.9219C21.2474 18.783 20.9041 19.6081 20.2952 20.2171C19.6863 20.826 18.8611 21.1692 18 21.1719ZM18 16.1719C17.6539 16.1719 17.3155 16.2745 17.0278 16.4668C16.74 16.6591 16.5157 16.9324 16.3832 17.2522C16.2508 17.572 16.2161 17.9238 16.2836 18.2633C16.3512 18.6028 16.5178 18.9146 16.7626 19.1593C17.0073 19.4041 17.3191 19.5707 17.6586 19.6383C17.9981 19.7058 18.3499 19.6711 18.6697 19.5387C18.9895 19.4062 19.2628 19.1819 19.4551 18.8941C19.6474 18.6063 19.75 18.268 19.75 17.9219C19.7474 17.4586 19.5622 17.015 19.2345 16.6873C18.9069 16.3597 18.4633 16.1745 18 16.1719ZM11 21.1719C10.3572 21.1719 9.72886 20.9813 9.1944 20.6242C8.65994 20.267 8.24338 19.7595 7.99739 19.1656C7.75141 18.5717 7.68705 17.9183 7.81245 17.2878C7.93785 16.6574 8.24738 16.0783 8.7019 15.6238C9.15643 15.1693 9.73552 14.8597 10.366 14.7343C10.9964 14.6089 11.6499 14.6733 12.2437 14.9193C12.8376 15.1653 13.3452 15.5818 13.7023 16.1163C14.0594 16.6507 14.25 17.2791 14.25 17.9219C14.2474 18.783 13.9041 19.6081 13.2952 20.2171C12.6863 20.826 11.8611 21.1692 11 21.1719ZM11 16.1719C10.6539 16.1719 10.3155 16.2745 10.0278 16.4668C9.73997 16.6591 9.51567 16.9324 9.38321 17.2522C9.25076 17.572 9.2161 17.9238 9.28363 18.2633C9.35115 18.6028 9.51782 18.9146 9.76256 19.1593C10.0073 19.4041 10.3191 19.5707 10.6586 19.6383C10.9981 19.7058 11.3499 19.6711 11.6697 19.5387C11.9895 19.4062 12.2628 19.1819 12.4551 18.8941C12.6474 18.6063 12.75 18.268 12.75 17.9219C12.7474 17.4586 12.5622 17.015 12.2345 16.6873C11.9069 16.3597 11.4633 16.1745 11 16.1719ZM4 21.1719C3.35721 21.1719 2.72886 20.9813 2.1944 20.6242C1.65994 20.267 1.24338 19.7595 0.997393 19.1656C0.751408 18.5717 0.687047 17.9183 0.812449 17.2878C0.937851 16.6574 1.24738 16.0783 1.7019 15.6238C2.15642 15.1693 2.73552 14.8597 3.36596 14.7343C3.9964 14.6089 4.64986 14.6733 5.24372 14.9193C5.83758 15.1653 6.34516 15.5818 6.70228 16.1163C7.05939 16.6507 7.25 17.2791 7.25 17.9219C7.24736 18.783 6.90411 19.6081 6.29518 20.2171C5.68626 20.826 4.86114 21.1692 4 21.1719ZM4 16.1719C3.65388 16.1719 3.31554 16.2745 3.02775 16.4668C2.73997 16.6591 2.51567 16.9324 2.38321 17.2522C2.25076 17.572 2.2161 17.9238 2.28363 18.2633C2.35115 18.6028 2.51782 18.9146 2.76256 19.1593C3.00731 19.4041 3.31913 19.5707 3.65859 19.6383C3.99806 19.7058 4.34993 19.6711 4.6697 19.5387C4.98947 19.4062 5.26278 19.1819 5.45507 18.8941C5.64737 18.6063 5.75 18.268 5.75 17.9219C5.74738 17.4586 5.56216 17.015 5.23454 16.6873C4.90692 16.3597 4.46332 16.1745 4 16.1719ZM18 14.1719C17.3572 14.1719 16.7289 13.9813 16.1944 13.6242C15.6599 13.267 15.2434 12.7595 14.9974 12.1656C14.7514 11.5717 14.687 10.9183 14.8124 10.2878C14.9379 9.6574 15.2474 9.0783 15.7019 8.62378C16.1564 8.16926 16.7355 7.85973 17.366 7.73432C17.9964 7.60892 18.6499 7.67328 19.2437 7.91927C19.8376 8.16525 20.3452 8.58181 20.7023 9.11627C21.0594 9.65073 21.25 10.2791 21.25 10.9219C21.2474 11.783 20.9041 12.6081 20.2952 13.2171C19.6863 13.826 18.8611 14.1692 18 14.1719ZM18 9.17188C17.6539 9.17188 17.3155 9.27451 17.0278 9.46681C16.74 9.6591 16.5157 9.93241 16.3832 10.2522C16.2508 10.572 16.2161 10.9238 16.2836 11.2633C16.3512 11.6028 16.5178 11.9146 16.7626 12.1593C17.0073 12.4041 17.3191 12.5707 17.6586 12.6383C17.9981 12.7058 18.3499 12.6711 18.6697 12.5387C18.9895 12.4062 19.2628 12.1819 19.4551 11.8941C19.6474 11.6063 19.75 11.268 19.75 10.9219C19.7474 10.4586 19.5622 10.015 19.2345 9.68734C18.9069 9.35972 18.4633 9.1745 18 9.17188ZM11 14.1719C10.3572 14.1719 9.72886 13.9813 9.1944 13.6242C8.65994 13.267 8.24338 12.7595 7.99739 12.1656C7.75141 11.5717 7.68705 10.9183 7.81245 10.2878C7.93785 9.6574 8.24738 9.0783 8.7019 8.62378C9.15643 8.16926 9.73552 7.85973 10.366 7.73432C10.9964 7.60892 11.6499 7.67328 12.2437 7.91927C12.8376 8.16525 13.3452 8.58181 13.7023 9.11627C14.0594 9.65073 14.25 10.2791 14.25 10.9219C14.2474 11.783 13.9041 12.6081 13.2952 13.2171C12.6863 13.826 11.8611 14.1692 11 14.1719ZM11 9.17188C10.6539 9.17188 10.3155 9.27451 10.0278 9.46681C9.73997 9.6591 9.51567 9.93241 9.38321 10.2522C9.25076 10.572 9.2161 10.9238 9.28363 11.2633C9.35115 11.6028 9.51782 11.9146 9.76256 12.1593C10.0073 12.4041 10.3191 12.5707 10.6586 12.6383C10.9981 12.7058 11.3499 12.6711 11.6697 12.5387C11.9895 12.4062 12.2628 12.1819 12.4551 11.8941C12.6474 11.6063 12.75 11.268 12.75 10.9219C12.7474 10.4586 12.5622 10.015 12.2345 9.68734C11.9069 9.35972 11.4633 9.1745 11 9.17188ZM4 14.1719C3.35721 14.1719 2.72886 13.9813 2.1944 13.6242C1.65994 13.267 1.24338 12.7595 0.997393 12.1656C0.751408 11.5717 0.687047 10.9183 0.812449 10.2878C0.937851 9.6574 1.24738 9.0783 1.7019 8.62378C2.15642 8.16926 2.73552 7.85973 3.36596 7.73432C3.9964 7.60892 4.64986 7.67328 5.24372 7.91927C5.83758 8.16525 6.34516 8.58181 6.70228 9.11627C7.05939 9.65073 7.25 10.2791 7.25 10.9219C7.24736 11.783 6.90411 12.6081 6.29518 13.2171C5.68626 13.826 4.86114 14.1692 4 14.1719ZM4 9.17188C3.65388 9.17188 3.31554 9.27451 3.02775 9.46681C2.73997 9.6591 2.51567 9.93241 2.38321 10.2522C2.25076 10.572 2.2161 10.9238 2.28363 11.2633C2.35115 11.6028 2.51782 11.9146 2.76256 12.1593C3.00731 12.4041 3.31913 12.5707 3.65859 12.6383C3.99806 12.7058 4.34993 12.6711 4.6697 12.5387C4.98947 12.4062 5.26278 12.1819 5.45507 11.8941C5.64737 11.6063 5.75 11.268 5.75 10.9219C5.74738 10.4586 5.56216 10.015 5.23454 9.68734C4.90692 9.35972 4.46332 9.1745 4 9.17188ZM18 7.17188C17.3572 7.17188 16.7289 6.98127 16.1944 6.62415C15.6599 6.26704 15.2434 5.75946 14.9974 5.1656C14.7514 4.57174 14.687 3.91827 14.8124 3.28783C14.9379 2.65739 15.2474 2.0783 15.7019 1.62378C16.1564 1.16926 16.7355 0.859726 17.366 0.734324C17.9964 0.608922 18.6499 0.673283 19.2437 0.919268C19.8376 1.16525 20.3452 1.58181 20.7023 2.11627C21.0594 2.65073 21.25 3.27909 21.25 3.92188C21.2474 4.78302 20.9041 5.60814 20.2952 6.21706C19.6863 6.82598 18.8611 7.16924 18 7.17188ZM18 2.17188C17.6539 2.17188 17.3155 2.27451 17.0278 2.4668C16.74 2.6591 16.5157 2.93241 16.3832 3.25218C16.2508 3.57195 16.2161 3.92382 16.2836 4.26328C16.3512 4.60275 16.5178 4.91457 16.7626 5.15931C17.0073 5.40406 17.3191 5.57073 17.6586 5.63825C17.9981 5.70577 18.3499 5.67112 18.6697 5.53867C18.9895 5.40621 19.2628 5.18191 19.4551 4.89412C19.6474 4.60634 19.75 4.26799 19.75 3.92188C19.7474 3.45856 19.5622 3.01496 19.2345 2.68734C18.9069 2.35972 18.4633 2.1745 18 2.17188ZM11 7.17188C10.3572 7.17188 9.72886 6.98127 9.1944 6.62415C8.65994 6.26704 8.24338 5.75946 7.99739 5.1656C7.75141 4.57174 7.68705 3.91827 7.81245 3.28783C7.93785 2.65739 8.24738 2.0783 8.7019 1.62378C9.15643 1.16926 9.73552 0.859726 10.366 0.734324C10.9964 0.608922 11.6499 0.673283 12.2437 0.919268C12.8376 1.16525 13.3452 1.58181 13.7023 2.11627C14.0594 2.65073 14.25 3.27909 14.25 3.92188C14.2474 4.78302 13.9041 5.60814 13.2952 6.21706C12.6863 6.82598 11.8611 7.16924 11 7.17188ZM11 2.17188C10.6539 2.17188 10.3155 2.27451 10.0278 2.4668C9.73997 2.6591 9.51567 2.93241 9.38321 3.25218C9.25076 3.57195 9.2161 3.92382 9.28363 4.26328C9.35115 4.60275 9.51782 4.91457 9.76256 5.15931C10.0073 5.40406 10.3191 5.57073 10.6586 5.63825C10.9981 5.70577 11.3499 5.67112 11.6697 5.53867C11.9895 5.40621 12.2628 5.18191 12.4551 4.89412C12.6474 4.60634 12.75 4.26799 12.75 3.92188C12.7474 3.45856 12.5622 3.01496 12.2345 2.68734C11.9069 2.35972 11.4633 2.1745 11 2.17188Z" fill="#F5F5F5"/>
</svg>
